<?xml version="1.0" encoding="utf-8" ?>
<svg baseProfile="full" height="200mm" version="1.1" viewBox="0,0,200,200" width="200mm" xmlns="http://www.w3.org/2000/svg" xmlns:ev="http://www.w3.org/2001/xml-events" xmlns:xlink="http://www.w3.org/1999/xlink"><defs /><rect fill="#1a1a1a" height="200" width="200" x="0" y="0" /><text alignment-baseline="middle" fill="#e1ed5e" style="dominant-baseline: central; font-size:9.0px; font-family:Arial;" text-anchor="middle" x="100.0" y="100.0">2019</text><line stroke="#e1ed5e" stroke-width="0.3" x1="100.0" x2="100.0" y1="15.0" y2="10.0" /><path d="M 100.0 14.0 a86.0,86.0 0 0,1 42.46469731375804,11.215312516191453" fill="none" id="id37" stroke="none" /><text fill="#e1ed5e" style="font-size:6.75px; font-family:Arial;" text-anchor="middle"><textPath startOffset="22.20632615414155" xlink:href="#id37">January</textPath></text><line stroke="#e1ed5e" stroke-width="0.3" x1="143.23703022742887" x2="145.7803849466894" y1="26.81831364943548" y2="22.513508569990506" /><path d="M 143.74570117128098 25.957352633546492 a86.0,86.0 0 0,1 28.547481713284135,27.462654790039103" fill="none" id="id38" stroke="none" /><text fill="#e1ed5e" style="font-size:6.75px; font-family:Arial;" text-anchor="middle"><textPath startOffset="19.985693538727396" xlink:href="#id38">February</textPath></text><path d="M 116.60985879189232 87.15038557335679 l 24.868114229916465 -19.23831402637354 a52.440989677959166,52.440989677959166 0 0,0 0.5461955314775517,0.7187292951039154 l -25.195585701618132 18.807399955388593" fill="#87ff25" stroke="none" /><line stroke="#e1ed5e" stroke-width="0.3" x1="172.23445277983987" x2="176.4835382374775" y1="55.19839476539836" y2="52.563006222186495" /><path d="M 173.08426987136738 54.67131705675599 a86.0,86.0 0 0,1 12.851231095245387,41.99856678651699" fill="none" id="id39" stroke="none" /><text fill="#e1ed5e" style="font-size:6.75px; font-family:Arial;" text-anchor="middle"><textPath startOffset="22.20632615414155" xlink:href="#id39">March</textPath></text><line stroke="#e1ed5e" stroke-width="0.3" x1="184.98032266829074" x2="189.97916517819016" y1="98.17113171792111" y2="98.06355123074" /><path d="M 185.9800911702706 98.14961562048488 a86.0,86.0 0 0,1 -9.607161424134198,41.387399972396054" fill="none" id="id40" stroke="none" /><text fill="#e1ed5e" style="font-size:6.75px; font-family:Arial;" text-anchor="middle"><textPath startOffset="21.466115282336823" xlink:href="#id40">April</textPath></text><line stroke="#e1ed5e" stroke-width="0.3" x1="174.80103733775053" x2="179.2010983576182" y1="140.37084112569926" y2="142.7455964860345" /><path d="M 175.68104954172406 140.8457921977663 a86.0,86.0 0 0,1 -30.038265399797805,32.042727171017184" fill="none" id="id41" stroke="none" /><text fill="#e1ed5e" style="font-size:6.75px; font-family:Arial;" text-anchor="middle"><textPath startOffset="22.206326154141568" xlink:href="#id41">May</textPath></text><line stroke="#e1ed5e" stroke-width="0.3" x1="143.8653032363475" x2="146.44561519142675" y1="172.8068346515853" y2="177.08958963109032" /><path d="M 144.38136562736335 173.6633856474863 a86.0,86.0 0 0,1 -40.68145358897372,12.25698825130547" fill="none" id="id42" stroke="none" /><text fill="#e1ed5e" style="font-size:6.75px; font-family:Arial;" text-anchor="middle"><textPath startOffset="21.466115282336833" xlink:href="#id42">June</textPath></text><path d="M 109.89434966115114 118.52300852407294 l 4.080536586489124 7.639088627633545 a29.660626645602296,29.660626645602296 0 0,0 -0.45240802625483084,0.23667849721273299 l -3.9484376577077978 -7.7081965437909945" fill="#ff5708" stroke="none" /><path d="M 109.57404056367764 118.69057910512821 l 3.332415424222641 6.50558911708407 a28.309424212612075,28.309424212612075 0 0,0 -0.4356228480979351,0.21843033941828643 l -3.2199386684419458 -6.561987297411659" fill="#ff4306" stroke="none" /><path d="M 108.92500713936063 119.00905698771935 l 6.19857416738421 13.20212384713594 a35.584868726995055,35.584868726995055 0 0,0 -0.5567032496777601,0.25555515735692863 l -5.970402921939031 -13.306866074826942" fill="#ffa90f" stroke="none" /><path d="M 107.93186726928326 119.44442032107085 l 5.513846410278161 13.516810550079239 a35.59817350502695,35.59817350502695 0 0,0 -0.5693655338925427,0.22656229630129154 l -5.280359800343752 -13.6097196907866" fill="#ffa90f" stroke="none" /><path d="M 107.59598834532513 119.57807347666477 l 3.740221203649907 9.64013137133153 a31.340279856404404,31.340279856404404 0 0,0 -0.5046229480551061,0.19080522008520048 l -3.5737280348345264 -9.703084841523362" fill="#ff6e0a" stroke="none" /><path d="M 106.91757812671514 119.82793768551818 l 4.393450598349092 12.593000482646467 a34.33739364778847,34.33739364778847 0 0,0 -0.5597490065565235,0.18989725409321503 l -4.176031858855342 -12.666760723637806" fill="#ff980e" stroke="none" /><path d="M 106.2309692047433 120.05430185196036 l 0.8092439042207384 2.6045420854828563 a23.727364143558724,23.727364143558724 0 0,0 -0.39107783431689797,0.11782854341928872 l -0.7642910954635946 -2.618085998007871" fill="#ff0000" stroke="none" /><path d="M 105.88484417918355 120.15858648285463 l 2.053547752110801 7.0344462312238445 a28.3280619641334,28.3280619641334 0 0,0 -0.46925951549159206,0.13261742638453128 l -1.9321570685146034 -7.068752450946894" fill="#ff4406" stroke="none" /><path d="M 105.18746579009965 120.34920634021253 l 2.9459482068420386 11.556260870774071 a32.92584488205258,32.92584488205258 0 0,0 -0.5504052234713862,0.13527621263671114 l -2.7465896986274414 -11.605258341724811" fill="#ff850c" stroke="none" /><path d="M 104.83641907484287 120.43548508189849 l 2.8120508564894826 11.881853585898728 a33.21008086198522,33.21008086198522 0 0,0 -0.5574230638515962,0.12686767451893735 l -2.6071076432450244 -11.92849799399535" fill="#ff880c" stroke="none" /><path d="M 104.48393922423573 120.51570834832081 l 1.6265634124658945 7.442139358141627 a28.61781771643122,28.61781771643122 0 0,0 -0.48215372682528496,0.10104000134911464 l -1.4982182242112314 -7.469035340217282" fill="#ff4806" stroke="none" /><path d="M 104.13013068566511 120.58985236759428 l 1.524578650260505 7.600449409652236 a28.751849539917114,28.751849539917114 0 0,0 -0.48608751083962937,0.09315982835044133 l -1.3935235248491713 -7.6255664363511455" fill="#ff4a06" stroke="none" /><path d="M 103.7750983002368 120.6578951692458 l 2.623111249455965 14.354051973992709 a35.59176208341907,35.59176208341907 0 0,0 -0.6036210796729427,0.10494726195940303 l -2.3756411983109724 -14.397077814473118" fill="#ffa90f" stroke="none" /><path d="M 103.06178313531738 120.77559828337769 l 1.5279903273951385 10.368112900183426 a31.4801011231554,31.4801011231554 0 0,0 -0.5367678170832998,0.07439112840825697 l -1.3492939191250082 -10.392878594084285" fill="#ff700a" stroke="none" /><path d="M 102.34483914955558 120.86867818915974 l 1.008860452905411 8.978690130384084 a30.035190970361008,30.035190970361008 0 0,0 -0.5142702679841694,0.05330621600082178 l -0.8541575883156391 -8.994725714840664" fill="#ff5c08" stroke="none" /><path d="M 101.98527174616119 120.90594882070398 l 1.3927477399761812 14.666361433085694 a35.7323421068448,35.7323421068448 0 0,0 -0.6128193357230155,0.05287663089546674 l -1.1400840865116242 -14.688162316259824" fill="#ffab0f" stroke="none" /><path d="M 101.62511606390274 120.93702456842531 l 1.1632759259599956 14.986952121556214 a36.03203062708882,36.03203062708882 0 0,0 -0.6187853356610639,0.04267505962550546 l -0.9051278295200016 -15.004755525698005" fill="#ffaf10" stroke="none" /><path d="M 100.90346689309514 120.98055641714683 l 1.7512524318006761 40.66806512431929 a61.705753967169834,61.705753967169834 0 0,0 -1.0615730044242642,0.0365627207087313 l -1.0509590757017597 -40.69218464345411" fill="#31ff3b" stroke="none" /><line stroke="#e1ed5e" stroke-width="0.3" x1="102.19456741930631" x2="102.32365962044197" y1="184.97166512339345" y2="189.96999836594603" /><path d="M 102.22038585953345 185.97133177190398 a86.0,86.0 0 0,1 -42.740103519485714,-10.115201625700543" fill="none" id="id43" stroke="none" /><text fill="#e1ed5e" style="font-size:6.75px; font-family:Arial;" text-anchor="middle"><textPath startOffset="22.20632615414155" xlink:href="#id43">July</textPath></text><path d="M 100.18074693466247 120.99922214144158 l 0.08912678424772484 10.35477113161245 a31.355154695693585,31.355154695693585 0 0,0 -0.5397474378203535,0.0 l 0.08912678424771771 -10.35477113161245" fill="#ff6f0a" stroke="none" /><path d="M 99.81925306533755 120.99922214144158 l -0.06460248561675917 7.505532245341345 a28.505810267186785,28.505810267186785 0 0,0 -0.4906261382301315,-0.008446573907787315 l 0.1937883137395586 -7.503308194154398" fill="#ff4606" stroke="none" /><path d="M 99.45781275523022 120.99299961872073 l -0.37135637405048505 14.37858284947589 a35.383377569812666,35.383377569812666 0 0,0 -0.6087282954754878,-0.020965833307943372 l 0.6188050212006159 -14.370060217741852" fill="#ffa60f" stroke="none" /><path d="M 98.73552117531835 120.96189622390904 l -0.8724086259513896 14.462352967152468 a35.48864210880848,35.48864210880848 0 0,0 -0.6094536149440618,-0.042031489529292365 l 1.1212250016743814 -14.445193133106889" fill="#ffa70f" stroke="none" /><path d="M 98.37488393609728 120.93702456842531 l -0.7870083468160052 10.139345403596273 a31.169843034746748,31.169843034746748 0 0,0 -0.534571242098489,-0.04612505612673573 l 0.9614239066560359 -10.124296095190875" fill="#ff6c0a" stroke="none" /><path d="M 97.65516085044442 120.86867818915974 l -1.8660275511290336 16.607334649798133 a37.711840802016944,37.711840802016944 0 0,0 -0.6444640709569325,-0.07803562394502249 l 2.1516190451373554 -16.572753497127763" fill="#ffc512" stroke="none" /><path d="M 96.93821686468263 120.77559828337769 l -2.1093917135019877 14.313187095617259 a35.467786915597536,35.467786915597536 0 0,0 -0.6032295944488824,-0.09421205660972407 l 2.355457171559387 -14.274756731660428" fill="#ffa70f" stroke="none" /><path d="M 96.22490169976321 120.6578951692458 l -6.511354221695362 35.63109149056373 a57.22115976344923,57.22115976344923 0 0,0 -0.9673983260853105,-0.1854041916216663 l 7.123720162352368 -35.5137301005936" fill="#54ff2b" stroke="none" /><path d="M 95.16358092515715 120.4354850818985 l -3.5172723538601773 14.861649828932405 a36.272191736913065,36.272191736913065 0 0,0 -0.6063444649717996,-0.14902471720252855 l 3.7725701035751875 -14.798903853415847" fill="#ffb210" stroke="none" /><path d="M 94.46302465271185 120.25689768951611 l -5.573100777318996 20.389061749174246 a42.13701235477223,42.13701235477223 0 0,0 -0.6980072984483842,-0.19726383474796624 l 5.923239243871994 -20.29010912108776" fill="#fffe18" stroke="none" /><path d="M 94.11515582081647 120.15858648285463 l -4.102659859370318 14.053698121252058 a35.64029537970365,35.64029537970365 0 0,0 -0.5874284832979578,-0.17698738326834806 l 4.343963317108521 -13.980995368877984" fill="#ffa90f" stroke="none" /><path d="M 93.42475214034765 119.94407469862007 l -7.611485228004822 23.087195067776136 a45.30953071274068,45.30953071274068 0 0,0 -0.7386106547324518,-0.25057683628692673 l 8.007765615674499 -22.95275524459109" fill="#daff1c" stroke="none" /><path d="M 92.7421414339146 119.70592522655815 l -4.4406802080702015 12.056960236755655 a33.84873265583238,33.84873265583238 0 0,0 -0.5450125952600382,-0.20607712865337705 l 4.647563024090522 -11.978734857995644" fill="#ff910d" stroke="none" /><path d="M 92.06813273071674 119.44442032107085 l -7.843126371229187 19.22687818844908 a41.76505420528754,41.76505420528754 0 0,0 -0.6633255987189967,-0.2772701540618405 l 8.172923429445646 -19.08902299136727" fill="#fff917" stroke="none" /><path d="M 91.7346041902142 119.30500536409082 l -1.8427847251479905 4.304085348426713 a25.681987423069423,25.681987423069423 0 0,0 -0.4048940509275308,-0.1774936531873067 l 1.9165994507332644 -4.271727141944954" fill="#ff1d02" stroke="none" /><path d="M 91.07499286063937 119.00905698771935 l -6.5809901517182 14.016618124362958 a36.484670323298204,36.484670323298204 0 0,0 -0.5661853271690666,-0.27180336406682537 l 6.8212881468875075 -13.901260483796571" fill="#ffb510" stroke="none" /><path d="M 90.42595943632237 118.69057910512821 l -7.274485962972903 14.201355680058084 a36.9560850203616,36.9560850203616 0 0,0 -0.5636842970964818,-0.2948929828757353 l 7.51786116259588 -14.074033278237632" fill="#ffbb11" stroke="none" /><line stroke="#e1ed5e" stroke-width="0.3" x1="58.666819895761336" x2="56.23545636021788" y1="174.27360380694188" y2="178.64263932499728" /><path d="M 58.180547188652646 175.14741091055294 a86.0,86.0 0 0,1 -31.652253787137756,-30.449443065178592" fill="none" id="id44" stroke="none" /><text fill="#e1ed5e" style="font-size:6.75px; font-family:Arial;" text-anchor="middle"><textPath startOffset="22.20632615414155" xlink:href="#id44">August</textPath></text><path d="M 88.8546689885994 117.79835938074946 l -3.995279704137261 6.38019848204699 a28.52789429951071,28.52789429951071 0 0,0 -0.4139508829687023,-0.26420303891878477 l 4.1045123891528865 -6.310481014304401" fill="#ff4706" stroke="none" /><path d="M 88.24862548938628 117.40417183066458 l -10.40742377896317 15.413736631406184 a39.598326447755475,39.598326447755475 0 0,0 -0.5616232815675852,-0.3862896142166774 l 10.671203945153644 -15.232306227824406" fill="#ffdd14" stroke="none" /><path d="M 87.95078237400918 117.19931262002967 l -11.082311144812172 15.819129494425546 a40.31482534924487,40.31482534924487 0 0,0 -0.5649310182298913,-0.4030632816581946 l 11.352969490890949 -15.626021950923132" fill="#ffe615" stroke="none" /><path d="M 87.65650970185807 116.9893568818739 l -13.174616162864718 18.13330349571431 a43.41399577733745,43.41399577733745 0 0,0 -0.6007980793847261,-0.4444560560753014 l 13.484799212668007 -17.90383749089924" fill="#f1ff19" stroke="none" /><path d="M 86.79598089348748 116.32954008644616 l -9.350428928284906 11.563767272540895 a35.87115445002153,35.87115445002153 0 0,0 -0.47679574907562494,-0.3923704413999004 l 9.548094805905219 -11.401101712283813" fill="#ffac10" stroke="none" /><path d="M 86.24171649860922 115.8653595955263 l -10.889592357697301 12.557329450734041 a37.62136410319839,37.62136410319839 0 0,0 -0.48559802067892943,-0.42848379373541823 l 11.104132731282819 -12.368022515226334" fill="#ffc412" stroke="none" /><path d="M 85.70375840098266 115.38237550388516 l -10.16782666972039 10.940310906805589 a35.935698909761356,35.935698909761356 0 0,0 -0.44947716046263314,-0.42500871016722563 l 10.35463966457384 -10.763667559892433" fill="#ffad10" stroke="none" /><path d="M 85.44109423537348 115.13401014063109 l -6.276899990625833 6.524849438936902 a30.053901572974702,30.053901572974702 0 0,0 -0.3697346144129146,-0.3618631390238988 l 6.388284557414543 -6.4158361969904325" fill="#ff5c08" stroke="none" /><path d="M 85.18274418774928 114.88116024355367 l -23.079823710847354 23.179363263076336 a53.71026052793595,53.71026052793595 0 0,0 -0.6495344853228132,-0.657975004361267 l 23.475398821225703 -22.778647764734405" fill="#79ff26" stroke="none" /><path d="M 84.43433777217949 114.09645910891817 l -16.799348748112358 15.213701108133302 a43.66439542031335,43.66439542031335 0 0,0 -0.4997310011775209,-0.56145307743492 l 17.058738598938216 -14.922273860957517" fill="#eeff19" stroke="none" /><path d="M 83.95833913139862 113.55231037782056 l -19.769392094053092 16.701570980336932 a46.879940822568386,46.879940822568386 0 0,0 -0.5154650409850161,-0.6209108479509734 l 20.053953134931643 -16.3587988752722" fill="#c7ff1e" stroke="none" /><path d="M 83.72743513129214 113.27417163493432 l -2.932343494685666 2.3920280026593934 a24.784235237975043,24.784235237975043 0 0,0 -0.266822459558328,-0.332902044127698 l 2.973083866298855 -2.341198124953436" fill="#ff1001" stroke="none" /><path d="M 83.50135304334701 112.99209946851258 l -24.415370509020605 19.226238554421123 a52.076656288028516,52.076656288028516 0 0,0 -0.5485238739518913,-0.7090410488451336 l 24.742701200190567 -18.803119511462736" fill="#8bff24" stroke="none" /><path d="M 83.28015986056508 112.70617746262583 l -27.52599037014704 20.91826928731859 a55.57244764019759,55.57244764019759 0 0,0 -0.572234080208097,-0.7666010635956472 l 27.88198571705022 -20.441355344213637" fill="#65ff29" stroke="none" /><path d="M 82.85270091963577 112.12312394758628 l -25.26323896382649 17.861085634569466 a51.939450916084866,51.939450916084866 0 0,0 -0.5098452997304099,-0.7344701803209607 l 25.566945170719034 -17.423574192061494" fill="#8dff24" stroke="none" /><path d="M 82.6465618267979 111.8261652097733 l -12.847743669773891 8.755587088568792 a36.54750213602583,36.54750213602583 0 0,0 -0.34980640163504234,-0.5229131080885558 l 12.996553176819663 -8.533137066274415" fill="#ffb510" stroke="none" /><path d="M 82.44556493220864 111.52570212397912 l -20.687783515625128 13.582962338899152 a45.74835858575925,45.74835858575925 0 0,0 -0.42653838664641136,-0.661997048250495 l 20.918526765648586 -13.224843690727209" fill="#d4ff1c" stroke="none" /><path d="M 82.05923443525364 110.91462005526583 l -26.350482371864395 16.03083783264105 a51.84373004106948,51.84373004106948 0 0,0 -0.4572595370830551,-0.7663932856706346 l 26.622522784645682 -15.574882453084305" fill="#8eff24" stroke="none" /><line stroke="#e1ed5e" stroke-width="0.3" x1="26.63291911575756" x2="22.317208475507996" y1="142.92168965132927" y2="145.44649492493687" /><path d="M 25.769776987707644 143.4266507060508 a86.0,86.0 0 0,1 -11.730757126820373,-40.83630448921669" fill="none" id="id45" stroke="none" /><text fill="#e1ed5e" style="font-size:6.75px; font-family:Arial;" text-anchor="middle"><textPath startOffset="21.46611528233685" xlink:href="#id45">September</textPath></text><path d="M 81.87401531095188 110.60418214915194 l -18.988823640888764 11.108965837744027 a42.99964875285376,42.99964875285376 0 0,0 -0.3682571902071272,-0.6420874516170734 l 19.177232827248268 -10.780458540268647" fill="#f6ff19" stroke="none" /><path d="M 81.51974371655577 109.97397251340807 l -18.080963247487592 9.75847021168974 a41.54626420616247,41.54626420616247 0 0,0 -0.3342446252503497,-0.6322648675978214 l 18.246260380962827 -9.445790329005792" fill="#fff617" stroke="none" /><path d="M 81.18737489456691 109.33194174019688 l -16.026372030646804 7.949829928494385 a38.88978469285428,38.88978469285428 0 0,0 -0.2923155173677048,-0.6022565467737346 l 16.160840804629228 -7.672784425755365" fill="#ffd413" stroke="none" /><path d="M 80.87730276802145 108.67885076344099 l -27.729452446461906 12.58503319983154 a51.45169278745361,51.45169278745361 0 0,0 -0.3590811563651729,-0.8096332129467051 l 27.941974687558357 -12.10585165039214" fill="#92ff23" stroke="none" /><path d="M 80.45479744820244 107.68017299344265 l -22.572541400029184 8.86974808239715 a45.25267111683205,45.25267111683205 0 0,0 -0.2786394875752367,-0.727439776518683 l 22.72187516719793 -8.479884739045309" fill="#daff1b" stroke="none" /><path d="M 80.32549172779594 107.34259656027581 l -6.850698929534459 2.556705240077127 a28.312237517187363,28.312237517187363 0 0,0 -0.16647021190620573,-0.45805452705478417 l 6.893693402445889 -2.4384029160162255" fill="#ff4406" stroke="none" /><path d="M 79.86692584326677 105.97154293290107 l -25.918275250829904 7.687454593481285 a48.034310609013474,48.034310609013474 0 0,0 -0.22829418480378436,-0.7947220066853338 l 26.046762072519794 -7.2401751112913555" fill="#b9ff1f" stroke="none" /><path d="M 79.76711848015287 105.62410040840567 l -10.276411644220975 2.85651704471824 a31.66603609164371,31.66603609164371 0 0,0 -0.14145960763751814,-0.5264238242849257 l 10.324059328200267 -2.679202287257775" fill="#ff730a" stroke="none" /><path d="M 79.67330655649465 105.27499134158121 l -16.66107809792102 4.323725496830516 a38.212963880661746,38.212963880661746 0 0,0 -0.15974599409398546,-0.6381058384314799 l 16.733035406310066 -4.036291819001644" fill="#ffcb13" stroke="none" /><path d="M 79.58551787078972 104.9243191809786 l -7.111713265790996 1.7154658062202486 a28.315687835544825,28.315687835544825 0 0,0 -0.11021468090307131,-0.47480196074424014 l 7.140188512624622 -1.5927951881274343" fill="#ff4406" stroke="none" /><path d="M 79.50377843672027 104.57218783832718 l -36.23386806221995 8.0828581198809 a58.12446349964518,58.12446349964518 0 0,0 -0.20943063830127662,-0.9783902190940083 l 36.367632739245664 -7.457954081370727" fill="#4aff2c" stroke="none" /><path d="M 79.35854240842038 103.8639653848113 l -29.108901292934416 5.449023475535476 a50.6145233174322,50.6145233174322 0 0,0 -0.15293674160938864,-0.8577504661547932 l 29.198384476882993 -4.94715425864747" fill="#9bff22" stroke="none" /><path d="M 79.29508885075956 103.50808413554451 l -49.9050804883713 8.455540807802487 a71.61633361774864,71.61633361774864 0 0,0 -0.195472504859327,-1.2172074743521257 l 50.04323474759192 -7.5952541037571475" fill="#3dffae" stroke="none" /><path d="M 79.18660465613746 102.79330883721812 l -29.206367137620767 3.9197066158938885 a50.46821985346547,50.46821985346547 0 0,0 -0.108142558304962,-0.8620025921027517 l 29.269511205172574 -3.4163862695037284" fill="#9dff22" stroke="none" /><path d="M 79.10278846688536 102.07522291339032 l -21.602848732743084 2.145297070551859 a42.709108062992776,42.709108062992776 0 0,0 -0.06635247110481696,-0.7321939895794236 l 21.636575800124977 -1.7731216924238689" fill="#f9ff18" stroke="none" /><path d="M 79.04373962182676 101.35467743843564 l -23.39687794548693 1.5124465009795067 a44.44571159112766,44.44571159112766 0 0,0 -0.042781429459858224,-0.7638911619445644 l 23.419445725834322 -1.1094836226995046" fill="#e4ff1a" stroke="none" /><path d="M 79.0235259727143 100.99374915477108 l -17.27764558798993 0.8185191504141917 a38.29702317347649,38.29702317347649 0 0,0 -0.025527459170324087,-0.6587502924710448 l 17.289175180011455 -0.5209916109291501" fill="#ffcc13" stroke="none" /><path d="M 79.0095281055655 100.63252640178507 l -15.208012021167 0.45827788772121325 a36.214915322088856,36.214915322088856 0 0,0 -0.013413206725855721,-0.6232590103667153 l 15.213647290577864 -0.19642906156436918" fill="#ffb110" stroke="none" /><line stroke="#e1ed5e" stroke-width="0.3" x1="15.007084014347285" x2="10.007500721073583" y1="101.09737516637583" y2="101.16192664675087" /><path d="M 14.007167355692545 101.11028546245083 a86.0,86.0 0 0,1 10.666146001902534,-42.60595125391555" fill="none" id="id46" stroke="none" /><text fill="#e1ed5e" style="font-size:6.75px; font-family:Arial;" text-anchor="middle"><textPath startOffset="22.20632615414155" xlink:href="#id46">October</textPath></text><path d="M 79.00486145842228 99.54816195383935 l -22.7386428139389 -0.48936014025573316 a43.74390798360665,43.74390798360665 0 0,0 0.022680811229983642,-0.7526657058462476 l 22.72685030825327 0.8806959935269751" fill="#edff1a" stroke="none" /><path d="M 79.08570108090925 98.10471618934814 l -16.86754060320608 -1.5285607590502548 a37.93665917455134,37.93665917455134 0 0,0 0.06453364322517256,-0.6498449804005898 l 16.83872983429868 1.818681270155275" fill="#ffc812" stroke="none" /><path d="M 79.12142395522702 97.74499172005258 l -23.846397902589395 -2.5755503920355913 a44.98508187917095,44.98508187917095 0 0,0 0.0897766143647954,-0.7691512062231011 l 23.798530935221013 2.9856453365835542" fill="#ddff1b" stroke="none" /><path d="M 79.21141760316559 97.0276538004421 l -19.163138220412968 -2.73994060651874 a40.358025234561055,40.358025234561055 0 0,0 0.10424690578108857,-0.6868568590921176 l 19.113135421192577 3.0693965780029493" fill="#ffe715" stroke="none" /><path d="M 79.3925641242962 95.95851677861259 l -32.087216577390095 -6.2928715731897 a53.69846632979897,53.69846632979897 0 0,0 0.18569621110261705,-0.9055206740034135 l 31.974141070372486 6.844267903356516" fill="#79ff26" stroke="none" /><path d="M 79.54389044137918 95.25157060432595 l -29.972543567934135 -6.957457210191784 a51.76945853867694,51.76945853867694 0 0,0 0.20896914439702366,-0.8663120133089343 l 29.848341623276294 7.472354455160115" fill="#8eff24" stroke="none" /><path d="M 79.71946130924805 94.55025226153421 l -29.35717731271896 -7.888804785086173 a51.39863649421828,51.39863649421828 0 0,0 0.2369556184519513,-0.8524554338388026 l 29.21703492370065 8.392971522343919" fill="#93ff23" stroke="none" /><path d="M 80.2630227832202 92.82701384747504 l -28.88123330984231 -10.496272267225198 a51.7294218787999,51.7294218787999 0 0,0 0.31135055071161055,-0.8342646821522715 l 28.696278170629075 10.991860086406811" fill="#8fff24" stroke="none" /><path d="M 80.95270993114464 91.15688171328213 l -28.222992244252378 -13.103137397436782 a52.116386372380006,52.116386372380006 0 0,0 0.3847723177911868,-0.8104286304432906 l 27.99326173261944 13.587008443520606" fill="#8bff24" stroke="none" /><path d="M 81.26839172434947 90.50648371742162 l -18.836184279627858 -9.546517283982853 a42.1172401243506,42.1172401243506 0 0,0 0.33330895285701984,-0.6438468068108592 l 18.669065893610725 9.869336813054048" fill="#fffd17" stroke="none" /><path d="M 81.43458229118936 90.18545643968196 l -12.298078202923678 -6.501336308394039 a34.91079082151943,34.91079082151943 0 0,0 0.2854238111396666,-0.5288469736774999 l 12.18434629256554 6.712064265404012" fill="#ffa00e" stroke="none" /><line stroke="#e1ed5e" stroke-width="0.3" x1="26.266209847984243" x2="21.928928074336255" y1="57.711370442889674" y2="55.22380399835377" /><path d="M 25.398753493254645 57.213857153982495 a86.0,86.0 0 0,1 29.58750427330803,-30.492523968695096" fill="none" id="id47" stroke="none" /><text fill="#e1ed5e" style="font-size:6.75px; font-family:Arial;" text-anchor="middle"><textPath startOffset="21.46611528233685" xlink:href="#id47">November</textPath></text><path d="M 82.34701348167596 88.62581576622439 l -12.520857259460692 -8.067447232573613 a35.8948169294607,35.8948169294607 0 0,0 0.33912630723888043,-0.5165126320434119 l 12.380134316863892 8.281777928594693" fill="#ffad10" stroke="none" /><path d="M 82.54541684631803 88.32363383020206 l -25.779456579882165 -17.24534880236393 a52.015841708217835,52.015841708217835 0 0,0 0.5042453699733651,-0.7399178598253326 l 25.47878674424006 17.68654468545968" fill="#8cff24" stroke="none" /><path d="M 82.95767976084542 87.72973835380427 l -21.954164733044163 -15.806729466286457 a48.052505346936144,48.052505346936144 0 0,0 0.489076997858514,-0.6671004754432338 l 21.678825122672016 16.182292385401194" fill="#b9ff1f" stroke="none" /><path d="M 83.39014120810768 87.1503855733568 l -5.775871732747765 -4.468293540206607 a28.302488715130394,28.302488715130394 0 0,0 0.3014160052463855,-0.3827677173883365 l 5.698101646907409 4.56705365154799" fill="#ff4306" stroke="none" /><path d="M 83.6137871275137 86.86637796730984 l -34.181546416956714 -27.39666051128554 a64.80588000057982,64.80588000057982 0 0,0 0.7051543477356592,-0.8644358519353045 l 33.70489357714467 27.980980532828926" fill="#34ff60" stroke="none" /><path d="M 84.07557802195018 86.31012108654704 l -23.3410168335052 -20.065764057747323 a51.78048008142754,51.78048008142754 0 0,0 0.5868655032011981,-0.6708887201190379 l 22.99215946672616 20.464568334069305" fill="#8eff24" stroke="none" /><path d="M 84.5562425177563 85.77008943001954 l -16.90575667964517 -15.576999700091799 a43.987986614056204,43.987986614056204 0 0,0 0.5178698919867073,-0.5524274933374079 l 16.635119465688007 15.865696610307257" fill="#eaff1a" stroke="none" /><path d="M 85.31137513191541 84.99185889309783 l -44.06587460425377 -45.02442332070654 a84.0,84.0 0 0,0 1.0420670255502897,-1.0024676529507457 l 43.28432433509105 45.776274060419595" fill="#4dd2ff" stroke="none" /><path d="M 86.37877921826538 84.01681056812374 l -9.82671259507642 -11.530699884868133 a36.14996106467378,36.14996106467378 0 0,0 0.4770804403950454,-0.39954114873188246 l 9.626774617722266 11.698142190993828" fill="#ffb010" stroke="none" /><path d="M 87.22198572758235 83.33499621200491 l -8.902243572657575 -11.610248642485189 a35.630373001644635,35.630373001644635 0 0,0 0.4899241546308623,-0.36900071607505736 l 8.701073264268322 11.761765948066099" fill="#ffa90f" stroke="none" /><path d="M 87.80319425747018 82.90503203632743 l -15.364684755366554 -21.535047717373875 a47.45433457528961,47.45433457528961 0 0,0 0.6690357504534145,-0.46870229845077 l 14.991717865329479 21.79633485858859" fill="#c0ff1e" stroke="none" /><path d="M 88.39885842347998 82.49532879139004 l -12.501654345859798 -18.86343231349564 a43.63007821526887,43.63007821526887 0 0,0 0.6295882079446241,-0.4095016835825299 l 12.175099112130887 19.075832921237705" fill="#eeff19" stroke="none" /><path d="M 89.00827224532344 82.1063720568725 l -6.382046959689597 -10.389447078842252 a33.19307729819454,33.19307729819454 0 0,0 0.48942075573765775,-0.29487052916572976 l 6.20226413773429 10.497764217466601" fill="#ff880c" stroke="none" /><line stroke="#e1ed5e" stroke-width="0.3" x1="56.762969772571076" x2="54.21961505331055" y1="26.818313649435495" y2="22.513508569990535" /><path d="M 56.25429882871897 25.957352633546506 a86.0,86.0 0 0,1 42.265352541879196,-11.944610805530505" fill="none" id="id48" stroke="none" /><text fill="#e1ed5e" style="font-size:6.75px; font-family:Arial;" text-anchor="middle"><textPath startOffset="22.20632615414155" xlink:href="#id48">December</textPath></text><path d="M 89.3179101791058 81.91981866633112 l -22.40014559595806 -37.913807229305185 a65.03661319108264,65.03661319108264 0 0,0 0.9687459578837958,-0.561160187031228 l 21.744202905608947 38.29377157372646" fill="#35ff63" stroke="none" /><path d="M 89.94658935756843 81.56283822128135 l -12.227727286971817 -22.424686924100875 a46.54180687125513,46.54180687125513 0 0,0 0.7066707459248883,-0.3774790389153239 l 11.839911494518624 22.631844689517948" fill="#cbff1d" stroke="none" /><path d="M 90.58718382345135 81.22770947309562 l -8.243535702770602 -16.440355816877354 a39.39133437976665,39.39133437976665 0 0,0 0.6087438017635389,-0.2987079397800628 l 7.9593206339966365 16.57981891679225" fill="#ffdb14" stroke="none" /><path d="M 92.91201910852362 80.23233633223022 l -7.359341493431492 -20.524461011648462 a42.80397686284822,42.80397686284822 0 0,0 0.6957032190928027,-0.24271719265068747 l 7.004956270275404 20.64809905747136" fill="#f8ff18" stroke="none" /><path d="M 93.94186890950719 79.89281104454417 l -18.155837586396416 -60.259979776129796 a83.93567828412733,83.93567828412733 0 0,0 1.3869762593624753,-0.4048964035011705 l 17.115871109310522 60.563574508549664" fill="#4dd3ff" stroke="none" /><path d="M 94.63758080256005 79.69619591428918 l -5.831264091585275 -22.078998177559722 a43.83606361504752,43.83606361504752 0 0,0 0.7312087352090504,-0.1864013876464217 l 5.450346467691225 22.176102561375004" fill="#ebff1a" stroke="none" /><path d="M 96.04723909329186 79.375362276772 l -1.6953125958119453 -8.845768550510604 a30.006758909103823,30.006758909103823 0 0,0 0.508121422284121,-0.09285594209202953 l 1.542796052424931 8.873639973953368" fill="#ff5c08" stroke="none" /><path d="M 96.40284397218896 79.31037775812273 l -3.9008726044824145 -22.436497048347892 a43.77308075067853,43.77308075067853 0 0,0 0.7434561648138654,-0.12267663737251948 l 3.5140872335296636 22.50031994866004" fill="#ecff1a" stroke="none" /><path d="M 97.11714578562143 79.19881850522333 l -3.5075578948017836 -25.308719396667907 a46.55062112522239,46.55062112522239 0 0,0 0.7946529548668191,-0.10316876023422913 l 3.0713902114271066 25.365346480066275" fill="#cbff1d" stroke="none" /><path d="M 97.83486435360386 79.11191278185805 l -3.053207669296223 -29.455737887607 a50.61355384912888,50.61355384912888 0 0,0 0.8673593456650825,-0.08236622109264606 l 2.5457231965409037 29.503929653214826" fill="#9bff22" stroke="none" /><path d="M 98.91598698831166 79.02799685794201 l -0.7975451136997573 -15.42981352630959 a36.450411763609175,36.450411763609175 0 0,0 0.6268762081719752,-0.026994608193021095 l 0.531828073138458 15.441255861026804" fill="#ffb410" stroke="none" /></svg>