<?xml version="1.0" encoding="utf-8" ?>
<svg baseProfile="full" height="200mm" version="1.1" viewBox="0,0,200,200" width="200mm" xmlns="http://www.w3.org/2000/svg" xmlns:ev="http://www.w3.org/2001/xml-events" xmlns:xlink="http://www.w3.org/1999/xlink"><defs /><rect fill="#1a1a1a" height="200" width="200" x="0" y="0" /><text alignment-baseline="middle" fill="#e1ed5e" style="dominant-baseline: central; font-size:9.0px; font-family:Arial;" text-anchor="middle" x="100.0" y="100.0">2023</text><line stroke="#e1ed5e" stroke-width="0.3" x1="100.0" x2="100.0" y1="15.0" y2="10.0" /><path d="M 100.0 14.0 a86.0,86.0 0 0,1 42.46469731375804,11.215312516191453" fill="none" id="id85" stroke="none" /><text fill="#e1ed5e" style="font-size:6.75px; font-family:Arial;" text-anchor="middle"><textPath startOffset="22.20632615414155" xlink:href="#id85">January</textPath></text><path d="M 100.0 79.0 l 0.0 -19.31995456984206 a40.31995456984206,40.31995456984206 0 0,0 0.6940417381977656,0.0059738363574648986 l -0.3325612589252373 19.317092110093153" fill="#fff617" stroke="none" /><path d="M 101.44485096284872 79.0497635885617 l 0.5419329732316185 -7.85798964757644 a28.876654914930207,28.876654914930207 0 0,0 0.4955918918923341,0.03846746905330285 l -0.6771150544862938 7.8474969163346735" fill="#ff6109" stroke="none" /><path d="M 101.80526077348638 79.07773832637324 l 0.08765028445713927 -1.015832290887546 a22.01960669651354,22.01960669651354 0 0,0 0.3773477695919342,0.035833717563965986 l -0.10512318113931768 1.0141730288084019" fill="#ff0000" stroke="none" /><path d="M 102.52436894288641 79.15227682838746 l 1.6520016792999535 -13.643201318149892 a34.74285457086616,34.74285457086616 0 0,0 0.5930857930118749,0.07699955760917375 l -1.8866022008196746 13.612743437376581" fill="#ffb010" stroke="none" /><path d="M 102.88285421437855 79.19881850522331 l 0.44348964954884534 -3.1999913992560454 a24.23057704204212,24.23057704204212 0 0,0 0.4126479034451205,0.06081357438467681 l -0.4985065334226216 3.1918833407103997" fill="#ff2003" stroke="none" /><path d="M 103.95276090670814 79.375362276772 l 1.7363315596371207 -9.059796489119494 a30.22468209258475,30.22468209258475 0 0,0 0.5101258379423568,0.10232644407651525 l -1.8920238070466027 9.02856608896577" fill="#ff740a" stroke="none" /><path d="M 104.66035177308747 79.52364482259891 l 1.9685884620883995 -8.649457918742229 a29.87065176980588,29.87065176980588 0 0,0 0.500370845124223,0.11842161270728269 l -2.1171829941751463 8.614290393894079" fill="#ff6f0a" stroke="none" /><path d="M 105.01212808612495 79.60689891045804 l 4.679579330898779 -19.040043014010642 a40.60667490140923,40.60667490140923 0 0,0 0.6773408227628829,0.17266925734479416 l -5.006629042346687 18.956670760496984" fill="#fff917" stroke="none" /><path d="M 106.0581310904928 79.89281104454417 l 3.0680852924927913 -10.183102641080252 a31.635258659796957,31.635258659796957 0 0,0 0.5200454298781824,0.16158064651459023 l -3.2429160950816915 10.12878185968314" fill="#ff870c" stroke="none" /><path d="M 106.74666289553966 80.11325718540242 l 4.969069326742329 -14.647034431520376 a36.466973447061804,36.466973447061804 0 0,0 0.5927063949918547,0.20678362311751827 l -5.220457725797457 14.559329955230652" fill="#ffc612" stroke="none" /><path d="M 107.4271985657038 80.35727306442388 l 2.1017763396837643 -5.558572098866554 a26.942658290727493,26.942658290727493 0 0,0 0.43238711541126,0.167759483242689 l -2.1971466200946916 5.521569911733319" fill="#ff4606" stroke="none" /><path d="M 107.76421540070413 80.48803036053334 l 2.249695816866826 -5.653629402496965 a27.08478896012066,27.08478896012066 0 0,0 0.4317007501784167,0.17610157535807858 l -2.3466804366336302 5.614066940955307" fill="#ff4806" stroke="none" /><path d="M 108.09893153111575 80.62456947434976 l 5.27348174607769 -12.61598259064881 a34.67379341857147,34.67379341857147 0 0,0 0.5486983205721224,0.23492398547214408 l -5.489863824440127 12.523339077213876" fill="#ffaf10" stroke="none" /><path d="M 108.76106565485865 80.91482961587045 l 3.5412733340211897 -7.71433608867977 a29.48832127781204,29.48832127781204 0 0,0 0.4594867254427515,0.2157351786397059 l -3.6735382707635393 7.652235927400061" fill="#ff6a09" stroke="none" /><path d="M 109.41281617654863 81.2277094730956 l 4.29195637554319 -8.55959050929206 a30.575357915834193,30.575357915834193 0 0,0 0.46844289274475126,0.2399546440845276 l -4.438659755876698 8.484443339895032" fill="#ff780b" stroke="none" /><path d="M 110.05341064243156 81.56283822128135 l 5.8049710626075335 -10.645858844197116 a33.125675221128134,33.125675221128134 0 0,0 0.49826680169417925,0.2772849356807909 l -5.987361953373748 10.544358510956146" fill="#ff9a0e" stroke="none" /><line stroke="#e1ed5e" stroke-width="0.3" x1="143.23703022742887" x2="145.7803849466894" y1="26.81831364943548" y2="22.513508569990506" /><path d="M 143.74570117128098 25.957352633546492 a86.0,86.0 0 0,1 28.547481713284135,27.462654790039103" fill="none" id="id86" stroke="none" /><text fill="#e1ed5e" style="font-size:6.75px; font-family:Arial;" text-anchor="middle"><textPath startOffset="19.985693538727396" xlink:href="#id86">February</textPath></text><path d="M 110.99172775467656 82.1063720568725 l 6.606955180765022 -10.755579148258008 a33.62277067743371,33.62277067743371 0 0,0 0.49054157046405483,0.30717708642222097 l -6.79111590360134 10.640257720512842" fill="#ffa10e" stroke="none" /><path d="M 111.2981086023043 82.29822771554956 l 5.32475551422037 -8.342777795911484 a30.89721994492261,30.89721994492261 0 0,0 0.44585125975748374,0.2899940615059017 l -5.467573799762134 8.249884810246055" fill="#ff7d0b" stroke="none" /><path d="M 112.48926042617603 83.11751280151076 l 6.050119975572219 -8.178312370110108 a31.17294180372197,31.17294180372197 0 0,0 0.4286336592614671,0.322837985648057 l -6.189999788592069 8.072957794956203" fill="#ff800b" stroke="none" /><path d="M 112.77801427241765 83.33499621200491 l 7.245385884447505 -9.449385533278058 a32.907413806997546,32.907413806997546 0 0,0 0.44654960137577976,0.34853904692620524 l -7.406968040982715 9.323268097128627" fill="#ff980e" stroke="none" /><path d="M 113.06298171725822 83.55741782278167 l 3.70099460062065 -4.658500576307851 a26.94970492153046,26.94970492153046 0 0,0 0.36073668872057235,0.29169064805689293 l -3.7806346879057138 4.594103830986829" fill="#ff4706" stroke="none" /><path d="M 113.34407831869373 83.78471172551755 l 6.027336967413139 -7.324223083817775 a30.485411677954424,30.485411677954424 0 0,0 0.4023239085354084,0.3369347031821983 l -6.152518412907664 7.219387223241757" fill="#ff770b" stroke="none" /><path d="M 113.6212207817346 84.01681056812373 l 8.116865571912818 -9.524359241201305 a33.51386933238318,33.51386933238318 0 0,0 0.43584978790551787,0.3779646411365356 l -8.2796091584651 9.383229606645097" fill="#ff9f0e" stroke="none" /><path d="M 113.89432698308785 84.25364557470407 l 14.484024701210563 -16.414655184638296 a42.891273977908426,42.891273977908426 0 0,0 0.5493943537174952,0.49325167527678687 l -14.76443004252405 16.162904500592212" fill="#e9ff1a" stroke="none" /><path d="M 114.42810811169701 84.74124197986012 l 7.548699843596055 -7.983290906083475 a31.987074361260245,31.987074361260245 0 0,0 0.39681756471066176,0.3817381828535122 l -7.685000651919135 7.852169636467662" fill="#ff8b0c" stroke="none" /><path d="M 114.94478906791727 85.2469230424477 l 3.0717653235408178 -3.0323606447564146 a25.31635879912402,25.31635879912402 0 0,0 0.30347772488827424,0.31276047194250867 l -3.1235073121322015 2.9790359772637918" fill="#ff3004" stroke="none" /><path d="M 115.4437574822437 85.77008943001954 l 4.500378999009331 -4.146658658720219 a27.11949255793841,27.11949255793841 0 0,0 0.3133674920214214,0.34602821150303836 l -4.571090131646788 4.068577659947632" fill="#ff4906" stroke="none" /><path d="M 115.68641384162765 86.03803664274999 l 5.317959853545092 -4.733341945466546 a28.119355516943255,28.119355516943255 0 0,0 0.3186969239990294,0.364325676464718 l -5.3986486411219685 4.641100712798881" fill="#ff5708" stroke="none" /><path d="M 116.82858285166822 87.43820079747576 l 3.921724201737231 -2.9273951576391517 a25.893829086049152,25.893829086049152 0 0,0 0.2635466371843247,0.35947731693975093 l -3.9715334514351825 2.859455397027907" fill="#ff3805" stroke="none" /><path d="M 117.2510076193507 88.02491185347247 l 11.120065357445698 -7.719187527410732 a34.536680155680614,34.536680155680614 0 0,0 0.33480110079622544,0.4912793031325067 l -11.251290923910657 7.526630201007818" fill="#ffad10" stroke="none" /><line stroke="#e1ed5e" stroke-width="0.3" x1="172.23445277983987" x2="176.4835382374775" y1="55.19839476539836" y2="52.563006222186495" /><path d="M 173.08426987136738 54.67131705675599 a86.0,86.0 0 0,1 12.851231095245387,41.99856678651699" fill="none" id="id87" stroke="none" /><text fill="#e1ed5e" style="font-size:6.75px; font-family:Arial;" text-anchor="middle"><textPath startOffset="22.20632615414155" xlink:href="#id87">March</textPath></text><path d="M 118.3937258080291 89.86733742301442 l 18.578955890048196 -10.234701388469206 a42.211476008884674,42.211476008884674 0 0,0 0.34511278813140855,0.639441582858662 l -18.75237677739807 9.913378822278087" fill="#f1ff19" stroke="none" /><path d="M 118.56541770881063 90.18545643968196 l 12.019041147109018 -6.353824338440562 a34.59516214760454,34.59516214760454 0 0,0 0.27378045748705165,0.5288567012955928 l -12.126631037756185 6.145994914884625" fill="#ffae10" stroke="none" /><path d="M 119.04729006885535 91.15688171328212 l 8.574734351802356 -3.981006740384474 a30.453807903218998,30.453807903218998 0 0,0 0.21665373049448716,0.4773677766043496 l -8.641990399260191 3.8328169549380613" fill="#ff770a" stroke="none" /><path d="M 119.196687751892 91.48605970444005 l 2.052884497317008 -0.9104766546049053 a23.245729836357224,23.245729836357224 0 0,0 0.15907749209389113,0.36717278435373435 l -2.06825269925358 0.8750047256645681" fill="#ff1202" stroke="none" /><path d="M 119.47837535516314 92.15188598940014 l 10.857228438220405 -4.374531503198208 a32.70538061030804,32.70538061030804 0 0,0 0.20589820334555675,0.5239884691238218 l -10.930920191447662 4.186994029178601" fill="#ff950d" stroke="none" /><path d="M 119.61058180528143 92.48833698450437 l 18.680636241808646 -7.155455445270387 a41.004167391521804,41.004167391521804 0 0,0 0.24679707669522086,0.6612934657564148 l -18.80103790700549 6.832838842484638" fill="#fffe18" stroke="none" /><path d="M 120.18372546131832 94.20196356495316 l 6.869504981055991 -1.9733542376619764 a28.147322969619573,28.147322969619573 0 0,0 0.12976348745716465,0.46682830615879034 l -6.902455239079519 1.8548146280842341" fill="#ff5708" stroke="none" /><path d="M 120.28053869075195 94.5502522615342 l 15.992184310751803 -4.29738931542239 a37.559514303184216,37.559514303184216 0 0,0 0.1624067462809028,0.6258194433015827 l -16.06378738890301 4.0214734465719575" fill="#ffd413" stroke="none" /><path d="M 120.37134235888165 94.90015583598534 l 30.950260553428237 -7.748213292842571 a52.90538257969144,52.90538257969144 0 0,0 0.21355433963859374,0.8853206077720361 l -31.07904769332765 7.21430745341113" fill="#78ff26" stroke="none" /><path d="M 120.73433829027371 96.67025291283417 l 4.41745330153536 -0.7094030230218777 a25.474052561193066,25.474052561193066 0 0,0 0.06580082007915392,0.43354519030195976 l -4.429010015053814 0.6332587203278359" fill="#ff3204" stroke="none" /><path d="M 120.94382443527127 98.46500227214037 l 11.007645135260507 -0.8067633647298178 a32.03716986144974,32.03716986144974 0 0,0 0.03557561271715045,0.5503389825954208 l -11.019901338982072 0.6171653178813619" fill="#ff8c0c" stroke="none" /><line stroke="#e1ed5e" stroke-width="0.3" x1="184.98032266829074" x2="189.97916517819016" y1="98.17113171792111" y2="98.06355123074" /><path d="M 185.9800911702706 98.14961562048488 a86.0,86.0 0 0,1 -9.607161424134198,41.387399972396054" fill="none" id="id88" stroke="none" /><text fill="#e1ed5e" style="font-size:6.75px; font-family:Arial;" text-anchor="middle"><textPath startOffset="21.466115282336823" xlink:href="#id88">April</textPath></text><path d="M 120.99980553446 99.90962569577887 l 18.992450103238053 -0.08173549325102389 a39.99262597996507,39.99262597996507 0 0,0 -0.0029626969827106606,0.6884264396905928 l -18.99104310896584 -0.2452004246432536" fill="#fff216" stroke="none" /><path d="M 120.92983693683757 101.71520430193887 l 8.928805656409175 0.7317174003441205 a29.958737679153845,29.958737679153845 0 0,0 -0.04654361484817091,0.5136049114326946 l -8.914887445283929 -0.8853037003253856" fill="#ff700a" stroke="none" /><path d="M 120.8583938346157 102.4346265915055 l 37.7889052795271 4.410784185344952 a59.04545149363798,59.04545149363798 0 0,0 -0.1265217239548641,1.0085026257548935 l -37.707382046325385 -5.060604565387241" fill="#3aff2e" stroke="none" /><path d="M 120.49622156327973 104.57218783832717 l 2.2144954893836877 0.4939978480097131 a23.26892576924388,23.26892576924388 0 0,0 -0.09057089637057002,0.3901770511038297 l -2.205664027082565 -0.5320435564621077" fill="#ff1202" stroke="none" /><path d="M 120.41448212921028 104.9243191809786 l 5.169963983315705 1.2470829603648097 a26.318246280383587,26.318246280383587 0 0,0 -0.11002115481017992,0.43947982316255046 l -5.147731514210465 -1.335890622924756" fill="#ff3e05" stroke="none" /><path d="M 119.9155931802556 106.66101706037122 l 8.5883469727619 2.8724791266910366 a30.055983660421667,30.055983660421667 0 0,0 -0.16832663159457262,0.4892359833635283 l -8.537629510224098 -3.0198878131438653" fill="#ff710a" stroke="none" /><path d="M 118.64920377521936 109.65438752849418 l 12.703514288378038 6.5764014052295385 a35.304835920685356,35.304835920685356 0 0,0 -0.2840315941110233,0.5372807359570825 l -12.588430186042123 -6.7940971562727555" fill="#ffb711" stroke="none" /><line stroke="#e1ed5e" stroke-width="0.3" x1="174.80103733775053" x2="179.2010983576182" y1="140.37084112569926" y2="142.7455964860345" /><path d="M 175.68104954172406 140.8457921977663 a86.0,86.0 0 0,1 -30.038265399797805,32.042727171017184" fill="none" id="id89" stroke="none" /><text fill="#e1ed5e" style="font-size:6.75px; font-family:Arial;" text-anchor="middle"><textPath startOffset="22.206326154141568" xlink:href="#id89">May</textPath></text><path d="M 118.48025628344425 109.97397251340804 l 10.777164702289323 5.816539709430454 a33.24660823296198,33.24660823296198 0 0,0 -0.27614251340724916,0.501278872849239 l -10.675445779430563 -6.001189100677498" fill="#ff9c0e" stroke="none" /><path d="M 118.30583269289576 110.29060199501025 l 1.438322510700081 0.8085512823365056 a22.65000812754198,22.65000812754198 0 0,0 -0.19397898804146688,0.33821871618785854 l -1.4241915265062344 -0.8331898443826793" fill="#ff0901" stroke="none" /><path d="M 117.75023020441432 111.22182372390056 l 7.582481629730075 4.793699645505674 a29.970706993125752,29.970706993125752 0 0,0 -0.2794342224002595,0.4336881185854274 l -7.498842543952765 -4.923509364012554" fill="#ff700a" stroke="none" /><path d="M 117.35343817320211 111.8261652097733 l 10.056644484138967 6.853485628516068 a33.16989579004845,33.16989579004845 0 0,0 -0.3256005822708126,0.46905192320004196 l -9.937182994706019 -7.025578813903129" fill="#ff9b0e" stroke="none" /><path d="M 116.498646956653 112.99209946851258 l 6.514994386254316 5.1303270701774135 a29.29249104310161,29.29249104310161 0 0,0 -0.31535750172090005,0.39345697182939854 l -6.425718972478562 -5.241711875585063" fill="#ff6709" stroke="none" /><path d="M 116.27256486870786 113.27417163493432 l 11.602922287316 9.464960388931448 a35.97375306225983,35.97375306225983 0 0,0 -0.39554683242465183,0.47646164064936186 l -11.438279454997804 -9.66328328669458" fill="#ffbf11" stroke="none" /><path d="M 115.80600337817218 113.82643327865902 l 10.310434264495829 9.019138362890619 a34.69853683907354,34.69853683907354 0 0,0 -0.39711839330583076,0.44616672470228397 l -10.153657021541658 -9.19527925733377" fill="#ffaf10" stroke="none" /><path d="M 115.56566222782051 114.09645910891815 l 11.108517094540016 10.060012525777859 a35.98676095954343,35.98676095954343 0 0,0 -0.4197660172209277,0.4555731068980445 l -10.933704669323367 -10.249736887477239" fill="#ffc011" stroke="none" /><path d="M 115.32070863581623 114.36230785411682 l 10.942769136387671 10.258234318608245 a35.99918556814838,35.99918556814838 0 0,0 -0.42769337880695,0.44843479778349193 l -10.764569206201758 -10.445076232974243" fill="#ffc011" stroke="none" /><path d="M 115.07121518719521 114.62390073753431 l 7.393016272713668 7.173591165694256 a31.30131544129854,31.30131544129854 0 0,0 -0.37853630973388996,0.3834552832468503 l -7.268439337924242 -7.299786942921771" fill="#ff820c" stroke="none" /><path d="M 114.0293411484842 115.62618273729858 l 2.423629842470123 2.6994911881589094 a24.627841546740893,24.627841546740893 0 0,0 -0.31788403726899855,0.28049570314663724 l -2.3768034522945367 -2.7408100330778353" fill="#ff2603" stroke="none" /><path d="M 113.48314897796784 116.09983520530334 l 6.496645701669079 7.757455276584718 a31.118523496104924,31.118523496104924 0 0,0 -0.4136242601593703,0.34038460671489923 l -6.362151312965017 -7.868135002156795" fill="#ff800b" stroke="none" /><path d="M 113.20401910651253 116.32954008644616 l 5.904786696729762 7.3025076901475305 a30.391119448635536,30.391119448635536 0 0,0 -0.4096180308508703,0.3254253371151127 l -5.778211173161542 -7.403066941267769" fill="#ff760a" stroke="none" /><path d="M 112.92097659922987 116.55440617244103 l 6.46485151244406 8.282793251703392 a31.5070913733732,31.5070913733732 0 0,0 -0.4304037792262497,0.3300152645520151 l -6.321319004724317 -8.39284785808278" fill="#ff850c" stroke="none" /><path d="M 112.63410532772338 116.77436683061366 l 2.9765556611477724 3.9519883091579158 a25.947534254518274,25.947534254518274 0 0,0 -0.3590830207115307,0.26564103425978486 l -2.9080876700176774 -4.00263929215747" fill="#ff3805" stroke="none" /><path d="M 112.04921762599082 117.19931262002967 l 7.145008906625079 10.198939522252658 a33.45269126150323,33.45269126150323 0 0,0 -0.47445970395595105,0.326337710735465 l -6.968392318046244 -10.320418022353216" fill="#ff9f0e" stroke="none" /><path d="M 111.7513745106137 117.40417183066458 l 5.942341934013778 8.800803684941735 a31.619113577018688,31.619113577018688 0 0,0 -0.4536970916271641,0.30068569298423775 l -5.7899701436466495 -8.90178739901729" fill="#ff860c" stroke="none" /><path d="M 111.45004920935366 117.60387380957326 l 2.8185867529722497 4.333435133197926 a26.169438203292962,26.169438203292962 0 0,0 -0.37972876432150693,0.24236086363464138 l -2.7435761866038124 -4.381310425656376" fill="#ff3c05" stroke="none" /><path d="M 111.1453310114006 117.79835938074945 l 1.7412850878627164 2.7807175710096597 a24.280924254982875,24.280924254982875 0 0,0 -0.3561442721620398,0.21877290024330143 l -1.6931616157683678 -2.8102789380813396" fill="#ff2103" stroke="none" /><line stroke="#e1ed5e" stroke-width="0.3" x1="143.8653032363475" x2="146.44561519142675" y1="172.8068346515853" y2="177.08958963109032" /><path d="M 144.38136562736335 173.6633856474863 a86.0,86.0 0 0,1 -40.68145358897372,12.25698825130547" fill="none" id="id90" stroke="none" /><text fill="#e1ed5e" style="font-size:6.75px; font-family:Arial;" text-anchor="middle"><textPath startOffset="21.466115282336833" xlink:href="#id90">June</textPath></text><path d="M 110.8373102113329 117.98757091392108 l 5.497514895145277 9.124675505122473 a31.652810572620083,31.652810572620083 0 0,0 -0.4691129344024707,0.2771601904289943 l -5.339634089714424 -9.217954267845217" fill="#ff870c" stroke="none" /><path d="M 110.5260780823613 118.17145234162733 l 5.375829485309088 9.280439354967736 a31.725022017522974,31.725022017522974 0 0,0 -0.47489522812668833,0.26965790453445526 l -5.215285490261201 -9.37160042529682" fill="#ff880c" stroke="none" /><path d="M 110.21172684928248 118.3499491758327 l 4.6645056612491125 8.381877333540231 a30.592365750863575,30.592365750863575 0 0,0 -0.4623485247759494,0.25210927990338905 l -4.519534324604515 -8.46092726520339" fill="#ff790b" stroke="none" /><path d="M 109.57404056367764 118.69057910512821 l 4.8408679507640215 9.450411743031061 a31.618111161103638,31.618111161103638 0 0,0 -0.48653662229346367,0.24395956275253883 l -4.677477420787798 -9.532339146692902" fill="#ff860c" stroke="none" /><path d="M 109.2508944713604 118.85261126421891 l 4.150286607691772 8.457964826227295 a30.421361256616997,30.421361256616997 0 0,0 -0.47209220265333335,0.22663294626950947 l -4.004081737038206 -8.528152048996365" fill="#ff760a" stroke="none" /><path d="M 108.92500713936063 119.00905698771935 l 4.0529739200472505 8.632285780046749 a30.536401595202484,30.536401595202484 0 0,0 -0.4777231056248972,0.2192992469537015 l -3.9037828186549337 -8.700772097334525" fill="#ff780b" stroke="none" /><path d="M 108.59647513512805 119.15986991738527 l 3.8317794649851957 8.540290636242377 a30.360507359100332,30.360507359100332 0 0,0 -0.4786541092142495,0.20982789513190603 l -3.6842046811131923 -8.604983084668739" fill="#ff750a" stroke="none" /><path d="M 108.2653958097858 119.30500536409082 l 3.72502544426244 8.700325772387275 a30.464221209696486,30.464221209696486 0 0,0 -0.48384224941031234,0.20224609949427885 l -3.5747117353546667 -8.763156914901527" fill="#ff770a" stroke="none" /><path d="M 107.93186726928326 119.44442032107085 l 3.509873470985786 8.604210424437731 a30.292558787025925,30.292558787025925 0 0,0 -0.4845062880630846,0.1927950510905086 l -3.3612461068808352 -8.663352319934308" fill="#ff750a" stroke="none" /><path d="M 107.59598834532513 119.57807347666477 l 8.913399980883295 22.973600250457757 a45.642138861857,45.642138861857 0 0,0 -0.7349031589232662,0.2778774915411697 l -8.516626601199754 -23.123625992105556" fill="#c9ff1d" stroke="none" /><path d="M 107.2578585660854 119.70592522655815 l 3.2794551288958136 8.904099875389203 a30.488826088265455,30.488826088265455 0 0,0 -0.49403576843802727,0.17714364961115628 l -3.1256997998280514 -8.95923106604032" fill="#ff770b" stroke="none" /><path d="M 106.91757812671514 119.82793768551818 l 3.13411022359894 8.98333796521562 a30.51435798627273,30.51435798627273 0 0,0 -0.497428015175705,0.16875459015462477 l -2.979012475486008 -9.035955542268367" fill="#ff780b" stroke="none" /><path d="M 106.57524785965236 119.94407469862006 l 3.3566728395900025 10.181476847802292 a31.720528128519383,31.720528128519383 0 0,0 -0.5200333693853164,0.16649826276463794 l -3.1809181251137457 -10.237747957226636" fill="#ff880c" stroke="none" /><path d="M 106.2309692047433 120.05430185196036 l 2.8113167584455043 9.048190261062842 a30.474874612189282,30.474874612189282 0 0,0 -0.502291274003539,0.15133624049911684 l -2.6551505100017194 -9.095241870667685" fill="#ff770b" stroke="none" /><path d="M 105.88484417918355 120.15858648285463 l 2.6948637868282384 9.231280056395144 a30.616590992090543,30.616590992090543 0 0,0 -0.5071694164303613,0.14333114306159286 l -2.5355632022932717 -9.276299992795256" fill="#ff790b" stroke="none" /><path d="M 105.53697534728816 120.25689768951611 l 4.372993016812008 15.998494951203758 a37.58538237812981,37.58538237812981 0 0,0 -0.6255452548447951,0.16521218729685785 l -4.096957319155716 -16.0713984878042" fill="#ffd413" stroke="none" /><path d="M 105.18746579009965 120.34920634021253 l 2.2890499304649516 8.979403670859794 a30.26657649126213,30.26657649126213 0 0,0 -0.505951536158377,0.12435057784801233 l -2.1341451095633635 -9.017475507021835" fill="#ff740a" stroke="none" /><path d="M 104.83641907484287 120.43548508189849 l 2.1426168044567295 9.053271245962717 a30.30336106059072,30.30336106059072 0 0,0 -0.50863448473958,0.11576355275501872 l -1.9864621703242873 -9.08881153229542" fill="#ff750a" stroke="none" /><path d="M 104.48393922423573 120.51570834832081 l 2.2201455816894144 10.158001026991299 a31.397789729949885,31.397789729949885 0 0,0 -0.5289907666048216,0.11085515842292436 l -2.044963353655215 -10.194712166140764" fill="#ff830c" stroke="none" /><path d="M 103.7750983002368 120.6578951692458 l 1.4013514802409328 7.668402163797606 a28.79539464792574,28.79539464792574 0 0,0 -0.4883575914631895,0.08490722707848442 l -1.2691449173056932 -7.691387969397097" fill="#ff6008" stroke="none" /><path d="M 103.41894727170886 120.7198165907248 l 2.5399156059795898 15.392628586960596 a36.60077517630503,36.60077517630503 0 0,0 -0.6224992503382767,0.09722158055915847 l -2.274580492032796 -15.43406847486686" fill="#ffc712" stroke="none" /><path d="M 102.70371172650421 120.8252237178851 l 1.196012668431774 9.212236328804357 a30.289550284098368,30.289550284098368 0 0,0 -0.5176232840509132,0.06267697108297102 l -1.0372619613294805 -9.231458828612679" fill="#ff740a" stroke="none" /><path d="M 102.34483914955558 120.86867818915974 l 1.0374633181863717 9.233250871128023 a30.291353603526705,30.291353603526705 0 0,0 -0.5186563505010294,0.05376085138730375 l -0.8783743710797397 -9.249741090971085" fill="#ff750a" stroke="none" /><path d="M 101.98527174616119 120.90594882070398 l 0.8787517152222252 9.25371472195931 a30.295345110990365,30.295345110990365 0 0,0 -0.5195733660811517,0.04483097627618878 l -0.7193340313995319 -9.267469950514164" fill="#ff750a" stroke="none" /><path d="M 101.62511606390274 120.93702456842531 l 0.7248361890837818 9.338356463282881 a30.366444839764053,30.366444839764053 0 0,0 -0.5214890872367336,0.03596494068189723 l -0.5639843410681179 -9.349449748481064" fill="#ff760a" stroke="none" /><path d="M 101.26447882468166 120.96189622390904 l 0.8760297053959876 14.522381407371773 a35.54877966655326,35.54877966655326 0 0,0 -0.6111206482364768,0.03158795704503771 l -0.6259209887460312 -14.535309171179014" fill="#ffba11" stroke="none" /><path d="M 100.90346689309514 120.98055641714683 l 0.4087760276100183 9.492709223542073 a30.50150652493958,30.50150652493958 0 0,0 -0.5247415976534986,0.018073161618935185 l -0.24531407828186746 -9.498339183587102" fill="#ff770b" stroke="none" /><line stroke="#e1ed5e" stroke-width="0.3" x1="102.19456741930631" x2="102.32365962044197" y1="184.97166512339345" y2="189.96999836594603" /><path d="M 102.22038585953345 185.97133177190398 a86.0,86.0 0 0,1 -42.740103519485714,-10.115201625700543" fill="none" id="id91" stroke="none" /><text fill="#e1ed5e" style="font-size:6.75px; font-family:Arial;" text-anchor="middle"><textPath startOffset="22.20632615414155" xlink:href="#id91">July</textPath></text><path d="M 100.54218724476979 120.99299961872073 l 0.3814706120498694 14.770196994796974 a35.77512230382433,35.77512230382433 0 0,0 -0.6157414904581904,0.010600548160780425 l -0.12716943169901102 -14.774575020236915" fill="#ffbd11" stroke="none" /><path d="M 99.81925306533755 120.99922214144158 l -0.09248374638472663 10.744783796375524 a31.745181807405558,31.745181807405558 0 0,0 -0.5463803979467762,-0.009406434051132785 l 0.2774238342241708 -10.741599885045233" fill="#ff880c" stroke="none" /><path d="M 99.45781275523022 120.99299961872073 l -0.21738735481188873 8.417041715207557 a29.419848484241047,29.419848484241047 0 0,0 -0.5061329768653282,-0.017432243093485265 l 0.36224068335185994 -8.412052673687977" fill="#ff6909" stroke="none" /><path d="M 99.09653310690486 120.98055641714683 l -0.4017704427197868 9.330023606450972 a30.338670140098944,30.338670140098944 0 0,0 -0.5215534242401488,-0.02695835463771722 l 0.5623119353734246 -9.321725445051053" fill="#ff750a" stroke="none" /><path d="M 98.73552117531835 120.96189622390904 l -0.5584212894922838 9.257228267547914 a30.274055721961474,30.274055721961474 0 0,0 -0.5199024702663344,-0.0358555182862577 l 0.7176865205375482 -9.24624440474537" fill="#ff740a" stroke="none" /><path d="M 98.37488393609728 120.93702456842531 l -0.7216299200095642 9.297048807866238 a30.325012937111673,30.325012937111673 0 0,0 -0.5200821773267633,-0.04487487865142622 l 0.8815564150778691 -9.28324967693615" fill="#ff750a" stroke="none" /><path d="M 98.01472825383883 120.90594882070398 l -0.8722175660296004 9.184906716772177 a30.226227554005877,30.226227554005877 0 0,0 -0.517541245523922,-0.05364526619703264 l 1.0301914081591157 -9.168532082119384" fill="#ff740a" stroke="none" /><path d="M 97.65516085044442 120.86867818915974 l -1.3802522705405864 12.28401549813247 a33.36131599340018,33.36131599340018 0 0,0 -0.5701172114737344,-0.06903325464379889 l 1.5914969050657102 -12.258436714763322" fill="#ff9d0e" stroke="none" /><path d="M 97.2962882734958 120.8252237178851 l -1.4064835758394416 10.833379474319463 a31.924298919551422,31.924298919551422 0 0,0 -0.5443418423569765,-0.07544081929650967 l 1.592754009383249 -10.807564089530349" fill="#ff8a0c" stroke="none" /><path d="M 96.58105272829116 120.7198165907248 l -1.8168102098426375 11.010399206677619 a32.15928716491316,32.15928716491316 0 0,0 -0.5454077714528345,-0.09482613214298019 l 2.006066952767522 -10.977494496013632" fill="#ff8e0d" stroke="none" /><path d="M 96.22490169976321 120.6578951692458 l -1.6953607172982004 9.277264109866167 a30.430900133389642,30.430900133389642 0 0,0 -0.514474050718469,-0.09860017627875267 l 1.8548023825883644 -9.246706735238947" fill="#ff760a" stroke="none" /><path d="M 95.51606077576429 120.51570834832081 l -1.1785158185310762 5.392153106398824 a26.5194397050221,26.5194397050221 0 0,0 -0.44512229263862746,-0.10130838461078383 l 1.2711582605625662 -5.371067988210354" fill="#ff4006" stroke="none" /><path d="M 94.81253420990036 120.34920634021253 l -2.298957680914644 9.018269442013995 a30.30668523951465,30.30668523951465 0 0,0 -0.5044036256149685,-0.13321758197812647 l 2.453851749341102 -8.977360510732288" fill="#ff750a" stroke="none" /><path d="M 94.46302465271185 120.25689768951611 l -2.6549156113964685 9.712948052170294 a31.069257011706245,31.069257011706245 0 0,0 -0.5146679116437993,-0.1454502927093546 l 2.821714691144882 -9.665808966122418" fill="#ff7f0b" stroke="none" /><path d="M 94.11515582081647 120.15858648285463 l -2.7406878492307456 9.388250792885396 a30.780113641314927,30.780113641314927 0 0,0 -0.5073222676586794,-0.15285203761754038 l 2.901885091329671 -9.339683386162129" fill="#ff7b0b" stroke="none" /><path d="M 93.76903079525671 120.05430185196036 l -2.6982325695793703 8.684230115588356 a30.09375124467514,30.09375124467514 0 0,0 -0.4933636285564093,-0.1579594539538787 l 2.84731754322672 -8.636497814974772" fill="#ff720a" stroke="none" /><path d="M 93.42475214034765 119.94407469862007 l -1.52415210643141 4.623065793345526 a25.867830828319818,25.867830828319818 0 0,0 -0.4216829255139708,-0.14305774322979598 l 1.6035047648826068 -4.596145063217607" fill="#ff3705" stroke="none" /><path d="M 93.08242187328487 119.8279376855182 l -10.241304089130018 29.35477353172148 a52.08998292930839,52.08998292930839 0 0,0 -0.8440572513321475,-0.3026489002091209 l 10.745080901091892 -29.1741370904724" fill="#81ff25" stroke="none" /><path d="M 92.06813273071674 119.44442032107085 l -4.047302381081939 9.921679976793078 a31.715427668824432,31.715427668824432 0 0,0 -0.5037143000855626,-0.21055261828820526 l 4.217488140664964 -9.8505423154849" fill="#ff880c" stroke="none" /><path d="M 91.7346041902142 119.30500536409082 l -3.6152714764621128 8.443979798658228 a30.185367858102843,30.185367858102843 0 0,0 -0.4758929155080252,-0.20861746895509717 l 3.760085066627881 -8.38049777640868" fill="#ff730a" stroke="none" /><path d="M 91.40352486487194 119.15986991738527 l -4.000668932273523 8.916712387343344 a30.773080972971666,30.773080972971666 0 0,0 -0.48142580802199386,-0.2209989760181243 l 4.153562736062937 -8.846526340991145" fill="#ff7b0b" stroke="none" /><path d="M 90.7491055286396 118.85261126421891 l -4.322899139592216 8.809735887212401 a30.81320046536935,30.81320046536935 0 0,0 -0.474150729627231,-0.23774901904277584 l 4.4739037769022065 -8.734019027260324" fill="#ff7c0b" stroke="none" /><path d="M 90.42595943632237 118.69057910512821 l -0.710627453269404 1.3872970916790885 a22.558712480838405,22.558712480838405 0 0,0 -0.3440838492810299,-0.1800084075368172 l 0.7344022050769295 -1.3748592651975546" fill="#ff0801" stroke="none" /><line stroke="#e1ed5e" stroke-width="0.3" x1="58.666819895761336" x2="56.23545636021788" y1="174.27360380694188" y2="178.64263932499728" /><path d="M 58.180547188652646 175.14741091055294 a86.0,86.0 0 0,1 -31.652253787137756,-30.449443065178592" fill="none" id="id92" stroke="none" /><text fill="#e1ed5e" style="font-size:6.75px; font-family:Arial;" text-anchor="middle"><textPath startOffset="22.20632615414155" xlink:href="#id92">August</textPath></text><path d="M 89.7882731507175 118.34994917583269 l -3.6066262556040827 6.48092232228174 a28.416879876003282,28.416879876003282 0 0,0 -0.42537529663207446,-0.24153919504098972 l 3.717650319157364 -6.417879961446117" fill="#ff5b08" stroke="none" /><path d="M 89.1626897886671 117.98757091392108 l -4.635438719418523 7.693817105602725 a29.982322293034777,29.982322293034777 0 0,0 -0.43977042383752135,-0.27014291281480035 l 4.767188343188353 -7.612885725959547" fill="#ff700a" stroke="none" /><path d="M 88.8546689885994 117.79835938074946 l -3.497584897275619 5.585412663178519 a27.590139204269168,27.590139204269168 0 0,0 -0.4003436904571157,-0.2555182848558591 l 3.5932103897796583 -5.524379949498855" fill="#ff4f07" stroke="none" /><path d="M 88.24862548938628 117.40417183066458 l -9.800670612179525 14.515115251927154 a38.51404337168227,38.51404337168227 0 0,0 -0.5462448887424272,-0.37571221540386135 l 10.049072385544843 -14.344262247158191" fill="#ffdf14" stroke="none" /><path d="M 87.65650970185807 116.9893568818739 l -9.65483597803127 13.288741685276866 a37.42578805843732,37.42578805843732 0 0,0 -0.5179284049386336,-0.38315105205419364 l 9.882149353388469 -13.120580684482906" fill="#ffd213" stroke="none" /><path d="M 87.36589467227662 116.77436683061367 l -2.935073860218904 3.896912708034945 a25.878584550767215,25.878584550767215 0 0,0 -0.35351535499368575,-0.2710604995410902 l 3.001717943706077 -3.845812866666488" fill="#ff3705" stroke="none" /><path d="M 87.07902340077011 116.55440617244103 l -11.462349600647377 14.685607509802592 a39.62934583659425,39.62934583659425 0 0,0 -0.5341328289314553,-0.42434742327676284 l 11.71343992229619 -14.486126172520699" fill="#ffed16" stroke="none" /><path d="M 86.79598089348748 116.32954008644616 l -5.986468918514716 7.403524895911006 a30.52102888330441,30.52102888330441 0 0,0 -0.4056824223276477,-0.3338490148569521 l 6.113021469387053 -7.299380762196873" fill="#ff780b" stroke="none" /><path d="M 86.51685102203217 116.09983520530335 l -18.50890406691089 22.10094287283822 a49.827611861313954,49.827611861313954 0 0,0 -0.6528236306079056,-0.5563504607102707 l 18.886593174095854 -21.779068021905" fill="#9aff23" stroke="none" /><path d="M 85.97065885151581 115.62618273729859 l -7.0831193838841955 7.889331129041289 a31.60245848235285,31.60245848235285 0 0,0 -0.40165287651880943,-0.36690037960214494 l 7.21787180986986 -7.7662379828525685" fill="#ff860c" stroke="none" /><path d="M 85.70375840098266 115.38237550388516 l -6.342896317162978 6.824787637858447 a30.317191636547204,30.317191636547204 0 0,0 -0.3792018973727321,-0.3585590625549655 l 6.459434048926528 -6.714593938557551" fill="#ff750a" stroke="none" /><path d="M 85.18274418774928 114.88116024355367 l -6.173205028727997 6.19982906503242 a29.74907656626306,29.74907656626306 0 0,0 -0.3597646138068214,-0.36443965437943904 l 6.279010267590352 -6.092648916672316" fill="#ff6d0a" stroke="none" /><path d="M 84.67929136418377 114.36230785411682 l -15.58556754468671 14.610598274457463 a42.36304045840786,42.36304045840786 0 0,0 -0.4941418537385364,-0.5362933880317915 l 15.834755806420976 -14.340153631624327" fill="#efff19" stroke="none" /><path d="M 84.43433777217949 114.09645910891817 l -10.49789930447659 9.507029390025204 a35.162962177091806,35.162962177091806 0 0,0 -0.4024336561625817,-0.4521384788685622 l 10.659991810287512 -9.324916741415779" fill="#ffb510" stroke="none" /><path d="M 83.95833913139862 113.55231037782056 l -9.604348318940588 8.113942219645631 a33.5729696164146,33.5729696164146 0 0,0 -0.3691491895182332,-0.4446639792413072 l 9.742593508352359 -7.947416983290563" fill="#ffa00e" stroke="none" /><path d="M 83.50135304334701 112.99209946851258 l -27.438165401315267 21.6065823496902 a55.92416529315881,55.92416529315881 0 0,0 -0.5890497197912681,-0.761426167531523 l 27.8060219383246 -21.131078188045425" fill="#59ff2a" stroke="none" /><path d="M 82.85270091963577 112.12312394758628 l -13.215338045695537 9.343231280119282 a37.18459546654804,37.18459546654804 0 0,0 -0.3650094655722496,-0.5258233588491733 l 13.374208418429921 -9.114366659083096" fill="#ffcf13" stroke="none" /><path d="M 82.6465618267979 111.8261652097733 l -8.130460594650884 5.54081382975595 a30.838953571248602,30.838953571248602 0 0,0 -0.29516828096207787,-0.4412365310800369 l 8.224631981023693 -5.400040384470092" fill="#ff7c0b" stroke="none" /><path d="M 82.44556493220864 111.52570212397912 l -46.544796583487646 30.559881805981416 a76.68055733372105,76.68055733372105 0 0,0 -0.7149371523561998,-1.1095983371287053 l 47.0639385992209 -29.754161868931263" fill="#44ffe6" stroke="none" /><path d="M 82.05923443525364 110.91462005526583 l -52.193949411112484 31.753222846045933 a82.09398919894184,82.09398919894184 0 0,0 -0.7240655614222294,-1.2135755291169388 l 52.732795848232946 -30.850085223042882" fill="#4be3ff" stroke="none" /><line stroke="#e1ed5e" stroke-width="0.3" x1="26.63291911575756" x2="22.317208475507996" y1="142.92168965132927" y2="145.44649492493687" /><path d="M 25.769776987707644 143.4266507060508 a86.0,86.0 0 0,1 -11.730757126820373,-40.83630448921669" fill="none" id="id93" stroke="none" /><text fill="#e1ed5e" style="font-size:6.75px; font-family:Arial;" text-anchor="middle"><textPath startOffset="21.46611528233685" xlink:href="#id93">September</textPath></text><path d="M 81.69416730710424 110.29060199501025 l -22.851445173088653 12.845912624248657 a47.2146145813458,47.2146145813458 0 0,0 -0.3921591715067198,-0.7118828066161014 l 23.06918075404689 -12.450659299234733" fill="#b7ff1f" stroke="none" /><path d="M 81.51974371655577 109.97397251340807 l -55.44076885033272 29.92191754022421 a84.0,84.0 0 0,0 -0.6757899671004557,-1.2783399396554953 l 55.94761132565806 -28.96316258548259" fill="#4dd2ff" stroke="none" /><path d="M 81.18737489456691 109.33194174019688 l -30.32572420066403 15.042977249790917 a54.85174608247656,54.85174608247656 0 0,0 -0.4122937851483463,-0.8494473147909192 l 30.580171242427095 -14.518740979034712" fill="#64ff29" stroke="none" /><path d="M 80.87730276802145 108.67885076344099 l -50.466163072754426 22.904106706216762 a76.42049908919628,76.42049908919628 0 0,0 -0.5333383548003248,-1.202537192861111 l 50.852942512286035 -22.032021176862955" fill="#44ffe4" stroke="none" /><path d="M 80.45479744820244 107.68017299344265 l -25.690920715942887 10.095096990494701 a48.603159067040835,48.603159067040835 0 0,0 -0.29926983319976125,-0.7812990989758243 l 25.860884828736157 -9.651374324685719" fill="#a7ff21" stroke="none" /><path d="M 80.20201598880116 107.00284435728193 l -30.124497357667124 10.655487256569383 a52.95347789720246,52.95347789720246 0 0,0 -0.2965625968645762,-0.8619497243629229 l 30.30345078547493 -10.135364829117163" fill="#78ff26" stroke="none" /><path d="M 80.0844068197444 106.66101706037122 l -35.41618322380385 11.845381582752477 a58.3445993281901,58.3445993281901 0 0,0 -0.31035923125290327,-0.9551874966374319 l 35.614834706073 -11.233995186137243" fill="#41ff2d" stroke="none" /><path d="M 79.97269907076064 106.31721596034903 l -29.125382858983823 9.18702595512638 a51.53996353276399,51.53996353276399 0 0,0 -0.2595975375131805,-0.8483797728060753 l 29.279207169003136 -8.684319209768256" fill="#87ff25" stroke="none" /><path d="M 79.86692584326677 105.97154293290107 l -20.92388232547458 6.206099508541987 a42.8248601984121,42.8248601984121 0 0,0 -0.2035350653392736,-0.7085322637380499 l 21.027610027699957 -5.845009769299342" fill="#eaff1a" stroke="none" /><path d="M 79.76711848015287 105.62410040840567 l -17.866336449612774 4.966275813181334 a39.54372868609094,39.54372868609094 0 0,0 -0.17665110746005377,-0.6573844866838514 l 17.9491756334146 -4.658000393321943" fill="#ffec16" stroke="none" /><line stroke="#e1ed5e" stroke-width="0.3" x1="15.007084014347285" x2="10.007500721073583" y1="101.09737516637583" y2="101.16192664675087" /><path d="M 14.007167355692545 101.11028546245083 a86.0,86.0 0 0,1 10.666146001902534,-42.60595125391555" fill="none" id="id94" stroke="none" /><text fill="#e1ed5e" style="font-size:6.75px; font-family:Arial;" text-anchor="middle"><textPath startOffset="22.20632615414155" xlink:href="#id94">October</textPath></text><line stroke="#e1ed5e" stroke-width="0.3" x1="26.266209847984243" x2="21.928928074336255" y1="57.711370442889674" y2="55.22380399835377" /><path d="M 25.398753493254645 57.213857153982495 a86.0,86.0 0 0,1 29.58750427330803,-30.492523968695096" fill="none" id="id95" stroke="none" /><text fill="#e1ed5e" style="font-size:6.75px; font-family:Arial;" text-anchor="middle"><textPath startOffset="21.46611528233685" xlink:href="#id95">November</textPath></text><line stroke="#e1ed5e" stroke-width="0.3" x1="56.762969772571076" x2="54.21961505331055" y1="26.818313649435495" y2="22.513508569990535" /><path d="M 56.25429882871897 25.957352633546506 a86.0,86.0 0 0,1 42.265352541879196,-11.944610805530505" fill="none" id="id96" stroke="none" /><text fill="#e1ed5e" style="font-size:6.75px; font-family:Arial;" text-anchor="middle"><textPath startOffset="22.20632615414155" xlink:href="#id96">December</textPath></text></svg>