<?xml version="1.0" encoding="utf-8" ?>
<svg baseProfile="full" height="200mm" version="1.1" viewBox="0,0,200,200" width="200mm" xmlns="http://www.w3.org/2000/svg" xmlns:ev="http://www.w3.org/2001/xml-events" xmlns:xlink="http://www.w3.org/1999/xlink"><defs /><rect fill="#1a1a1a" height="200" width="200" x="0" y="0" /><text alignment-baseline="middle" fill="#e1ed5e" style="dominant-baseline: central; font-size:9.0px; font-family:Arial;" text-anchor="middle" x="100.0" y="100.0">2024</text><line stroke="#e1ed5e" stroke-width="0.3" x1="100.0" x2="100.0" y1="15.0" y2="10.0" /><path d="M 100.0 14.0 a86.0,86.0 0 0,1 42.35913384403234,11.155469271406648" fill="none" id="id97" stroke="none" /><text fill="#e1ed5e" style="font-size:6.75px; font-family:Arial;" text-anchor="middle"><textPath startOffset="22.145653131862478" xlink:href="#id97">January</textPath></text><path d="M 101.80034050326958 79.07731436759882 l 1.1245402823729214 -13.068862676993929 a34.117155275318055,34.117155275318055 0 0,0 0.5830791392558552,0.05521820071262484 l -1.3487189850137895 13.04763272077612" fill="#ff9c0e" stroke="none" /><path d="M 102.15924093988457 79.11130261209362 l 2.706575360875827 -26.18366140923627 a47.3231775243345,47.3231775243345 0 0,0 0.8073426442448163,0.09046442724323896 l -3.1556539067214397 26.13334122148606" fill="#bdff1f" stroke="none" /><path d="M 102.87502721639298 79.19773525538626 l 1.5196028071996561 -10.995088923605037 a32.099602386105154,32.099602386105154 0 0,0 0.5451962995761646,0.08012508117201263 l -1.7081242123835028 10.967382769134142" fill="#ff810b" stroke="none" /><path d="M 103.23170211078529 79.25015418208739 l 7.677545241430902 -49.29534794932829 a70.88963850720471,70.88963850720471 0 0,0 1.2008113913070506,0.1975930574772498 l -8.522634135791023 49.15628889335537" fill="#3cffa8" stroke="none" /><path d="M 103.58742460773223 79.30868818359171 l 2.48188626603067 -14.31486044685541 a35.52842004660029,35.52842004660029 0 0,0 0.6000331696351228,0.1093460316640591 l -2.7272541692168466 14.270146241259985" fill="#ffaf10" stroke="none" /><path d="M 103.94208987418118 79.37332000966035 l 1.8265265306296905 -9.557158624900605 a30.73013258638371,30.73013258638371 0 0,0 0.5172957080660145,0.10347362932445357 l -1.990318724226662 9.524395598913292" fill="#ff6e0a" stroke="none" /><path d="M 104.64783097203109 79.52079915486377 l 2.7978614014185474 -12.327893574723909 a33.64139978053328,33.64139978053328 0 0,0 0.5620802612462484,0.13264941118891008 l -3.009073816404681 12.27804801988877" fill="#ff960d" stroke="none" /><path d="M 105.3480935250658 79.69241777938227 l 3.5396538938333753 -13.440642379317127 a34.89892144221361,34.89892144221361 0 0,0 0.5780235221390928,0.15754288131544075 l -3.7698588169071607 13.377899003857545" fill="#ffa70f" stroke="none" /><path d="M 106.04205211174951 79.88797359093562 l 3.9879759443336384 -13.274674899804447 a34.86077003012755,34.86077003012755 0 0,0 0.5716491764372554,0.1770983761191331 l -4.215265753642524 13.204259935878667" fill="#ffa60f" stroke="none" /><path d="M 107.06938296918511 80.22567764915836 l 7.9414698475499685 -22.21370456084429 a44.590583156336336,44.590583156336336 0 0,0 0.7185684321034799,0.26386828147828106 l -8.321627431307572 22.074105430357285" fill="#ddff1b" stroke="none" /><path d="M 107.74402155503746 80.48000691201159 l 3.8489732450364884 -9.701926912908894 a31.43752752640359,31.43752752640359 0 0,0 0.4999248604116776,0.20331508855832592 l -4.0149525666386054 9.634424567771275" fill="#ff780b" stroke="none" /><path d="M 108.4095320186766 80.7573450057729 l 5.020739465636436 -11.488434450166457 a33.537621421049955,33.537621421049955 0 0,0 0.5255610337985431,0.23507676555161583 l -5.21721390229061 11.40055393370499" fill="#ff940d" stroke="none" /><path d="M 109.06512990194946 81.05736502329252 l 10.689595595676069 -22.337143494652675 a45.763187062650104,45.763187062650104 0 0,0 0.7057113853020003,0.3451988021997033 l -11.071467230240136 22.15035094235575" fill="#cfff1d" stroke="none" /><path d="M 110.02825361518725 81.54914285379988 l 8.912353834749041 -16.397727236605476 a39.663212729910114,39.663212729910114 0 0,0 0.5954313490240529,0.33027573212544337 l -9.192529371929194 16.242318589046885" fill="#ffe415" stroke="none" /><line stroke="#e1ed5e" stroke-width="0.3" x1="143.13028292997686" x2="145.6673583964461" y1="26.7553504044142" y2="22.446841604673864" /><path d="M 143.63769802327073 25.89364864446614 a86.0,86.0 0 0,1 29.32050498858742,28.57503671076993" fill="none" id="id98" stroke="none" /><text fill="#e1ed5e" style="font-size:6.75px; font-family:Arial;" text-anchor="middle"><textPath startOffset="20.669276256404974" xlink:href="#id98">February</textPath></text><path d="M 110.65571695917076 81.90426304109057 l 7.306751761101086 -12.408461898862521 a35.39994958303246,35.39994958303246 0 0,0 0.5209983255063642,0.3128445249688135 l -7.518682843164885 12.281203373357787" fill="#ffad10" stroke="none" /><path d="M 111.27062007382361 82.28071324371311 l 7.681413470289681 -12.076457824160519 a35.31240533524242,35.31240533524242 0 0,0 0.5086909511178639,0.3297273286848847 l -7.887590053664552 11.94281665377174" fill="#ffac0f" stroke="none" /><path d="M 111.8722381534696 82.67804972795209 l 5.884124566150959 -8.585113591207358 a31.40803042289532,31.40803042289532 0 0,0 0.44211276045579617,0.3086290430054642 l -6.030632417780516 8.482839732396767" fill="#ff770b" stroke="none" /><path d="M 114.91283532996326 85.21462403516908 l 5.97280303197514 -5.921753740162306 a29.41079921398066,29.41079921398066 0 0,0 0.35238787004480304,0.36158099834293794 l -6.073577703170755 5.8183500497516265" fill="#ff5c08" stroke="none" /><path d="M 115.16444852881244 85.47280134310134 l 9.40607547126255 -9.010807527434276 a34.02570182629532,34.02570182629532 0 0,0 0.40044065282849395,0.42525409646159074 l -9.559371957827304 8.848011971028189" fill="#ff9b0e" stroke="none" /><path d="M 115.6541949942343 86.00192230759917 l 4.3114349441728965 -3.8553117127065684 a26.783761723996555,26.783761723996555 0 0,0 0.30353518837526555,0.34536732518504637 l -4.376981196506753 3.780732109710224" fill="#ff3605" stroke="none" /><path d="M 115.8921839302757 86.27271002978787 l 10.501775833802784 -9.071183841393912 a34.8770916242493,34.8770916242493 0 0,0 0.38747690880942504,0.45644682428067695 l -10.655947306119321 8.889570234663683" fill="#ffa60f" stroke="none" /><path d="M 116.35404254752997 86.82634096563983 l 13.531242588255811 -10.89981120269362 a38.37528158726048,38.37528158726048 0 0,0 0.40884946307871595,0.5165679405417528 l -13.716358481976085 10.665923318237189" fill="#ffd413" stroke="none" /><path d="M 116.7966241395341 87.39550010848427 l 14.717965000604398 -11.044635321499555 a39.401153853602,39.401153853602 0 0,0 0.40132510644535374,0.5444745836115072 l -14.905392126633577 10.790354428619175" fill="#ffe115" stroke="none" /><path d="M 117.01052211995028 87.68569379921539 l 46.938275435938074 -33.9796916390358 a78.94670952507957,78.94670952507957 0 0,0 0.7852750305014315,1.104587673086576 l -47.51466556496947 33.16892673923972" fill="#47fffc" stroke="none" /><path d="M 117.42321728460499 88.27688183743584 l 7.394504574679129 -4.975352684098146 a29.91250987298826,29.91250987298826 0 0,0 0.28299450868120546,0.4284897551988779 l -7.478823522281059 4.847683050560209" fill="#ff6309" stroke="none" /><path d="M 117.81537515405839 88.88188828441811 l 20.136697540589108 -12.566788569038469 a44.73627525076509,44.73627525076509 0 0,0 0.4009904834826152,0.6549878191640925 l -20.349455988527122 12.21926363374982" fill="#dbff1b" stroke="none" /><line stroke="#e1ed5e" stroke-width="0.3" x1="172.87174338648825" x2="177.1583165268699" y1="56.24261187166439" y2="53.66864786411523" /><path d="M 173.72905801456457 55.72781907015455 a86.0,86.0 0 0,1 12.242430191666344,42.057860355516425" fill="none" id="id99" stroke="none" /><text fill="#e1ed5e" style="font-size:6.75px; font-family:Arial;" text-anchor="middle"><textPath startOffset="22.145653131862474" xlink:href="#id99">March</textPath></text><path d="M 118.00360718960297 89.18935116829356 l 18.205922531085506 -10.932133381274793 a42.23598727334968,42.23598727334968 0 0,0 0.3679082119485812,0.624788576306395 l -18.390904453163856 10.617993636674841" fill="#faff18" stroke="none" /><path d="M 118.18653347947321 89.5 l 19.60673958983374 -11.319956380121406 a43.63991276024281,43.63991276024281 0 0,0 0.368999640933192,0.6519870086662519 l -19.79817259578831 10.981712601356037" fill="#e9ff1a" stroke="none" /><path d="M 118.36410011445183 89.81374322990088 l 3.816828548580249 -2.1171304556702313 a25.36467885824188,25.36467885824188 0 0,0 0.207935591474275,0.38257806803890637 l -3.8526094896698653 2.0512975541567218" fill="#ff2203" stroke="none" /><path d="M 118.70294669586156 90.45014215332178 l 12.785265656970475 -6.528247743073658 a35.3555228575714,35.3555228575714 0 0,0 0.27136220202989403,0.5429061823924354 l -12.895447772212107 6.307809704517472" fill="#ffad10" stroke="none" /><path d="M 118.8641267826498 90.77261029715802 l 6.6895508977560025 -3.2721945617628165 a28.4469690790078,28.4469690790078 0 0,0 0.21080659223174444,0.44050469993494823 l -6.744736747947659 3.1568773597627646" fill="#ff4e07" stroke="none" /><path d="M 119.0197475246899 91.09779779509293 l 14.526879408598521 -6.79931306836595 a37.03935421248673,37.03935421248673 0 0,0 0.26459421636235725,0.5781861144050523 l -14.64145808981593 6.548937971746214" fill="#ffc312" stroke="none" /><path d="M 119.31412917781788 91.75594674310238 l 1.9040833203010852 -0.8127399456435692 a23.070284886167485,23.070284886167485 0 0,0 0.15234534632819105,0.3655733718116557 l -1.9177545111657595 0.7799340643906356" fill="#ff0000" stroke="none" /><path d="M 119.4528033332814 92.08871423366111 l 13.804359773297138 -5.614112943868673 a35.902302268345586,35.902302268345586 0 0,0 0.22728093501526564,0.5728964271339864 l -13.89869938327853 5.376315499521122" fill="#ffb410" stroke="none" /><path d="M 119.58574465831526 92.42381321644754 l 41.36675140071429 -16.001548100829257 a65.35377845315605,65.35377845315605 0 0,0 0.39576168171573334,1.049804880067292 l -41.63534376624447 15.28907494056781" fill="#35ff69" stroke="none" /><path d="M 119.71291397450082 92.76114493625339 l 13.984008819023494 -5.1351217370504845 a35.89704594558449,35.89704594558449 0 0,0 0.20745044723242334,0.5802758222720986 l -14.070099436299861 4.894310958397469" fill="#ffb410" stroke="none" /><path d="M 119.83427380445688 93.10060997987247 l 6.654026274145099 -2.314615746566283 a28.045105514558735,28.045105514558735 0 0,0 0.15426754954632355,0.45606459868653637 l -6.692779245263787 2.200049473405585" fill="#ff4806" stroke="none" /><path d="M 119.94978838288452 93.4421083053983 l 59.84936514865356 -19.673675083805065 a84.0,84.0 0 0,0 0.4385411368909713,1.373723865234452 l -60.17827100132179 18.643382184879226" fill="#4dd2ff" stroke="none" /><line stroke="#e1ed5e" stroke-width="0.3" x1="184.99686870605535" x2="189.99668451229388" y1="99.2704041080226" y2="99.22748670261217" /><path d="M 185.99683186730306 99.26182062694052 a86.0,86.0 0 0,1 -10.086455211305974,41.156179273409016" fill="none" id="id100" stroke="none" /><text fill="#e1ed5e" style="font-size:6.75px; font-family:Arial;" text-anchor="middle"><textPath startOffset="21.40746469413373" xlink:href="#id100">April</textPath></text><line stroke="#e1ed5e" stroke-width="0.3" x1="174.33088141563837" x2="178.70328620479359" y1="141.23008692659167" y2="143.65538615756765" /><path d="M 175.20536237346943 141.71514677278685 a86.0,86.0 0 0,1 -30.301960400862466,31.631185727798858" fill="none" id="id101" stroke="none" /><text fill="#e1ed5e" style="font-size:6.75px; font-family:Arial;" text-anchor="middle"><textPath startOffset="22.145653131862474" xlink:href="#id101">May</textPath></text><line stroke="#e1ed5e" stroke-width="0.3" x1="143.1302829299769" x2="145.66735839644613" y1="173.24464959558577" y2="177.55315839532614" /><path d="M 143.63769802327073 174.10635135553383 a86.0,86.0 0 0,1 -40.68552437913181,11.842963189579606" fill="none" id="id102" stroke="none" /><text fill="#e1ed5e" style="font-size:6.75px; font-family:Arial;" text-anchor="middle"><textPath startOffset="21.407464694133747" xlink:href="#id102">June</textPath></text><line stroke="#e1ed5e" stroke-width="0.3" x1="101.45913802915013" x2="101.54496967792366" y1="184.9874750549273" y2="189.98673829345242" /><path d="M 101.47630435890484 185.9873277026323 a86.0,86.0 0 0,1 -42.54439059252881,-10.42667462771756" fill="none" id="id103" stroke="none" /><text fill="#e1ed5e" style="font-size:6.75px; font-family:Arial;" text-anchor="middle"><textPath startOffset="22.145653131862474" xlink:href="#id103">July</textPath></text><line stroke="#e1ed5e" stroke-width="0.3" x1="58.13341422392154" x2="55.67067388415222" y1="173.97424548756322" y2="178.32567169271397" /><path d="M 57.64086615596768 174.84453072859336 a86.0,86.0 0 0,1 -31.369924170532247,-30.572349798747897" fill="none" id="id104" stroke="none" /><text fill="#e1ed5e" style="font-size:6.75px; font-family:Arial;" text-anchor="middle"><textPath startOffset="22.145653131862474" xlink:href="#id104">August</textPath></text><line stroke="#e1ed5e" stroke-width="0.3" x1="26.387840678322732" x2="22.057713659400548" y1="142.50000000000003" y2="145.00000000000006" /><path d="M 25.521815274538298 143.00000000000003 a86.0,86.0 0 0,1 -11.493303480769221,-40.785679425670985" fill="none" id="id105" stroke="none" /><text fill="#e1ed5e" style="font-size:6.75px; font-family:Arial;" text-anchor="middle"><textPath startOffset="21.40746469413373" xlink:href="#id105">September</textPath></text><line stroke="#e1ed5e" stroke-width="0.3" x1="15.003131293944662" x2="10.003315487706104" y1="100.72959589197737" y2="100.7725132973878" /><path d="M 14.003168132696942 100.73817937305945 a86.0,86.0 0 0,1 10.791469493833604,-42.45332614584628" fill="none" id="id106" stroke="none" /><text fill="#e1ed5e" style="font-size:6.75px; font-family:Arial;" text-anchor="middle"><textPath startOffset="22.145653131862435" xlink:href="#id106">October</textPath></text><line stroke="#e1ed5e" stroke-width="0.3" x1="26.387840678322718" x2="22.05771365940052" y1="57.49999999999999" y2="54.99999999999999" /><path d="M 25.521815274538284 56.99999999999999 a86.0,86.0 0 0,1 29.574782752854787,-30.34633250058573" fill="none" id="id107" stroke="none" /><text fill="#e1ed5e" style="font-size:6.75px; font-family:Arial;" text-anchor="middle"><textPath startOffset="21.40746469413373" xlink:href="#id107">November</textPath></text><line stroke="#e1ed5e" stroke-width="0.3" x1="56.869717070023135" x2="54.33264160355391" y1="26.7553504044142" y2="22.446841604673864" /><path d="M 56.362301976729285 25.89364864446614 a86.0,86.0 0 0,1 42.16139366436587,-11.88097634709845" fill="none" id="id108" stroke="none" /><text fill="#e1ed5e" style="font-size:6.75px; font-family:Arial;" text-anchor="middle"><textPath startOffset="22.145653131862474" xlink:href="#id108">December</textPath></text></svg>