<?xml version="1.0" encoding="utf-8" ?>
<svg baseProfile="full" height="200mm" version="1.1" viewBox="0,0,200,200" width="200mm" xmlns="http://www.w3.org/2000/svg" xmlns:ev="http://www.w3.org/2001/xml-events" xmlns:xlink="http://www.w3.org/1999/xlink"><defs /><rect fill="#1a1a1a" height="200" width="200" x="0" y="0" /><text alignment-baseline="middle" fill="#e1ed5e" style="dominant-baseline: central; font-size:9.0px; font-family:Arial;" text-anchor="middle" x="100.0" y="100.0">2024</text><line stroke="#e1ed5e" stroke-width="0.3" x1="100.0" x2="100.0" y1="15.0" y2="10.0" /><path d="M 100.0 14.0 a86.0,86.0 0 0,1 42.35913384403234,11.155469271406648" fill="none" id="id97" stroke="none" /><text fill="#e1ed5e" style="font-size:6.75px; font-family:Arial;" text-anchor="middle"><textPath startOffset="22.145653131862478" xlink:href="#id97">January</textPath></text><path d="M 101.80034050326958 79.07731436759882 l 0.6843175712091084 -7.952807476771277 a28.982195017716283,28.982195017716283 0 0,0 0.495320116472337,0.04690733001231371 l -0.8207372510664583 7.9398883912537785" fill="#ff6008" stroke="none" /><path d="M 102.15924093988457 79.11130261209362 l 1.6470348873058398 -15.933568465080787 a37.018468339745205,37.018468339745205 0 0,0 0.6315422944694414,0.07076563136646898 l -1.920313083376078 15.902947073207349" fill="#ffca12" stroke="none" /><path d="M 102.87502721639298 79.19773525538626 l 0.9247253464598986 -6.690851955567749 a27.754451632642738,27.754451632642738 0 0,0 0.47139600499950224,0.06927897932196252 l -1.0394464570670827 6.673991902946904" fill="#ff4f07" stroke="none" /><path d="M 103.23170211078529 79.25015418208739 l 4.672023932640007 -29.997745131379318 a51.35938933171009,51.35938933171009 0 0,0 0.8699852483212097,0.14315574154304156 l -5.186286684014288 29.91312339134061" fill="#8aff24" stroke="none" /><path d="M 103.58742460773223 79.30868818359171 l 1.5103046179933337 -8.711035688751691 a29.84099331578967,29.84099331578967 0 0,0 0.5039792307355129,0.09184180427149473 l -1.6596185822799001 8.683825710548831" fill="#ff6c09" stroke="none" /><path d="M 103.94208987418118 79.37332000966035 l 1.1114979327837071 -5.815826858644549 a26.92108686849921,26.92108686849921 0 0,0 0.4531761343495655,0.09064791880776947 l -1.2111705526642296 5.79588954317392" fill="#ff4306" stroke="none" /><path d="M 104.64783097203109 79.52079915486377 l 1.7025852686738372 -7.50190484184169 a28.692683072449622,28.692683072449622 0 0,0 0.479397138716879,0.11313641940644947 l -1.8311145611306012 7.471572278789013" fill="#ff5c08" stroke="none" /><path d="M 105.3480935250658 79.69241777938227 l 2.1539889619940267 -8.179046933824615 a29.457923929316102,29.457923929316102 0 0,0 0.4879054205936722,0.13298079200183904 l -2.2940757835223917 8.140865647678634" fill="#ff6609" stroke="none" /><path d="M 106.04205211174951 79.88797359093562 l 2.4268068072298163 -8.078050585129873 a29.434707614110525,29.434707614110525 0 0,0 0.4826722516954147,0.1495330973898566 l -2.565119691796861 8.03520089993337" fill="#ff6609" stroke="none" /><path d="M 107.06938296918511 80.22567764915836 l 4.832630225071448 -13.517726835500412 a35.35560008120462,35.35560008120462 0 0,0 0.569748505583712,0.20921954308945057 l -5.063967882309284 13.43277644340224" fill="#ffb510" stroke="none" /><path d="M 107.74402155503746 80.48000691201159 l 2.342219361972794 -5.9039228431022055 a27.351558586434063,27.351558586434063 0 0,0 0.4349490937822847,0.17689000992646609 l -2.443222916945518 5.862845576596445" fill="#ff4906" stroke="none" /><path d="M 108.4095320186766 80.7573450057729 l 3.05527537844008 -6.991067979658054 a28.62953072831497,28.62953072831497 0 0,0 0.4486473735819668,0.20067426363900376 l -3.1748361548776787 6.937589965109198" fill="#ff5b08" stroke="none" /><path d="M 109.06512990194946 81.05736502329252 l 6.504949809183265 -13.592843247691675 a36.06916585535877,36.06916585535877 0 0,0 0.5562204609487879,0.2720753000127971 l -6.73733051939412 13.479174197581658" fill="#ffbe11" stroke="none" /><path d="M 110.02825361518725 81.54914285379988 l 5.4234431843404 -9.9785246040498 a32.35714265329953,32.35714265329953 0 0,0 0.4857512988626105,0.26943805717601366 l -5.59393867135911 9.883953631440642" fill="#ff8e0d" stroke="none" /><line stroke="#e1ed5e" stroke-width="0.3" x1="143.13028292997686" x2="145.6673583964461" y1="26.7553504044142" y2="22.446841604673864" /><path d="M 143.63769802327073 25.89364864446614 a86.0,86.0 0 0,1 29.32050498858742,28.57503671076993" fill="none" id="id98" stroke="none" /><text fill="#e1ed5e" style="font-size:6.75px; font-family:Arial;" text-anchor="middle"><textPath startOffset="20.669276256404974" xlink:href="#id98">February</textPath></text><path d="M 110.65571695917076 81.90426304109057 l 4.446384622197479 -7.550933161018106 a29.762815061992185,29.762815061992185 0 0,0 0.4380338670619429,0.26302675143544585 l -4.575351245816856 7.47349240904674" fill="#ff6a09" stroke="none" /><path d="M 111.27062007382361 82.28071324371311 l 4.674377869638986 -7.348898404599965 a29.709541677338862,29.709541677338862 0 0,0 0.427979200783536,0.27741094724987647 l -4.79984270267953 7.267573615646194" fill="#ff6a09" stroke="none" /><path d="M 111.8722381534696 82.67804972795209 l 3.580671937606024 -5.224307366644489 a27.33360868588636,27.33360868588636 0 0,0 0.3847594715944542,0.2685919930993652 l -3.6698265003742394 5.162070557739997" fill="#ff4906" stroke="none" /><path d="M 114.91283532996326 85.21462403516908 l 3.6346355290420727 -3.6035704547776026 a26.118231672318185,26.118231672318185 0 0,0 0.3129377056836267,0.3211016543385784 l -3.695960035876511 3.540646108371282" fill="#ff3805" stroke="none" /><path d="M 115.16444852881244 85.47280134310134 l 5.723888082978782 -5.483355303906948 a28.92654276310618,28.92654276310618 0 0,0 0.34042982352763335,0.3615246753551422 l -5.817173740242675 5.384289168607311" fill="#ff5f08" stroke="none" /><path d="M 115.6541949942343 86.00192230759917 l 2.6236416210869553 -2.346076515753025 a24.51959804149105,24.51959804149105 0 0,0 0.2778758595265472,0.3161717191732345 l -2.6635285445720926 2.3006925187684923" fill="#ff2103" stroke="none" /><path d="M 115.8921839302757 86.27271002978787 l 6.3906556702494495 -5.520096159859419 a29.44463980935754,29.44463980935754 0 0,0 0.3271235496713344,0.38535071897236867 l -6.484473783427896 5.409578658437498" fill="#ff6609" stroke="none" /><path d="M 116.35404254752997 86.82634096563983 l 8.2341799654321 -6.632872513135628 a31.57339668595828,31.57339668595828 0 0,0 0.33638232082473374,0.4250080736186095 l -8.346828716898393 6.49054449560234" fill="#ff830c" stroke="none" /><path d="M 116.7966241395341 87.39550010848427 l 8.956337287537247 -6.721002472361855 a32.197671715210454,32.197671715210454 0 0,0 0.3279531882850711,0.444931485142194 l -9.070392495406145 6.5662646779507865" fill="#ff8b0c" stroke="none" /><path d="M 117.01052211995028 87.68569379921539 l 28.56339354539315 -20.677694180765922 a56.26236644728042,56.26236644728042 0 0,0 0.5596361367529247,0.7871983114964802 l -28.914144780676036 20.18431864255994" fill="#57ff2a" stroke="none" /><path d="M 117.42321728460499 88.27688183743584 l 4.499784925588814 -3.0276561169568503 a26.423538138439017,26.423538138439017 0 0,0 0.24998625073114336,0.37851104559608323 l -4.551095615240682 2.9499651930217086" fill="#ff3c05" stroke="none" /><path d="M 117.81537515405839 88.88188828441811 l 12.25380377132516 -7.647279840715353 a35.44425823046494,35.44425823046494 0 0,0 0.3177021369089893,0.5189425643983209 l -12.383273872689552 7.435800160192477" fill="#ffb610" stroke="none" /><line stroke="#e1ed5e" stroke-width="0.3" x1="172.87174338648825" x2="177.1583165268699" y1="56.24261187166439" y2="53.66864786411523" /><path d="M 173.72905801456457 55.72781907015455 a86.0,86.0 0 0,1 12.242430191666344,42.057860355516425" fill="none" id="id99" stroke="none" /><text fill="#e1ed5e" style="font-size:6.75px; font-family:Arial;" text-anchor="middle"><textPath startOffset="22.145653131862474" xlink:href="#id99">March</textPath></text><path d="M 118.00360718960297 89.18935116829356 l 11.078867412205401 -6.652541559313489 a33.92275560148144,33.92275560148144 0 0,0 0.29549351544541147,0.5018125902792107 l -11.191434637780581 6.461377800740722" fill="#ffa20f" stroke="none" /><path d="M 118.18653347947321 89.5 l 11.931307953799966 -6.888543858910735 a34.777087717821466,34.777087717821466 0 0,0 0.2940595447814282,0.5195750393874095 l -12.047800863602768 6.682712049424207" fill="#ffad10" stroke="none" /><path d="M 118.36410011445183 89.81374322990088 l 2.3226583191617975 -1.2883394166191697 a23.656042190927344,23.656042190927344 0 0,0 0.19392846061256347,0.3568065249093853 l -2.3444321293897024 1.248278058235181" fill="#ff1402" stroke="none" /><path d="M 118.70294669586156 90.45014215332178 l 7.780229911532724 -3.9726408291615343 a29.735780024349843,29.735780024349843 0 0,0 0.2282293145257812,0.45661151380833914 l -7.847279139270243 3.8384974591894445" fill="#ff6a09" stroke="none" /><path d="M 118.8641267826498 90.77261029715802 l 4.07079879181599 -1.9912316794060487 a25.531711200476124,25.531711200476124 0 0,0 0.18920304012244385,0.3953615849180573 l -4.104381089898346 1.9210575924228879" fill="#ff2f04" stroke="none" /><path d="M 119.0197475246899 91.09779779509293 l 8.840055789876192 -4.137592470246025 a30.760443525678543,30.760443525678543 0 0,0 0.21974020937145883,0.4801720142704958 l -8.909780464102703 3.9852314737608445" fill="#ff780b" stroke="none" /><path d="M 119.31412917781788 91.75594674310238 l 1.158693640016813 -0.4945774147403928 a22.259832437503775,22.259832437503775 0 0,0 0.14699349828715394,0.3527308847850369 l -1.1670129828404503 0.4746140205140781" fill="#ff0000" stroke="none" /><path d="M 119.4528033332814 92.08871423366111 l 8.400380226687808 -3.4163615074197877 a30.068512220993426,30.068512220993426 0 0,0 0.19034989792648319,0.47980608853125606 l -8.457788799580417 3.2716544016749665" fill="#ff6f0a" stroke="none" /><path d="M 119.58574465831526 92.42381321644754 l 25.172948707194685 -9.737437336472308 a47.990647130011155,47.990647130011155 0 0,0 0.2906160847059998,0.77089369195057 l -25.336395475715126 9.30387536432758" fill="#b0ff20" stroke="none" /><path d="M 119.71291397450082 92.76114493625339 l 8.50970223192721 -3.124880531221512 a30.065313585887374,30.065313585887374 0 0,0 0.17374863544565786,0.4860058565645082 l -8.562091037416813 2.978339718276087" fill="#ff6f0a" stroke="none" /><path d="M 119.83427380445688 93.10060997987247 l 4.049180958708015 -1.4085153291532608 a25.287164782093555,25.287164782093555 0 0,0 0.13909696092541315,0.4112154490657572 l -4.072763341205793 1.338798205613342" fill="#ff2c04" stroke="none" /><path d="M 119.94978838288452 93.4421083053983 l 36.957293552356724 -12.14859645578425 a59.90282692248163,59.90282692248163 0 0,0 0.31273635501866875,0.9796421778383554 l -37.16039462315265 11.512385244254508" fill="#32ff2f" stroke="none" /><path d="M 120.16314734710363 94.1308016681162 l 22.642657361732354 -6.590947560376071 a44.582419768642055,44.582419768642055 0 0,0 0.20758743961627538,0.7366545901404026 l -22.75246329342321 6.2012850463326545" fill="#d7ff1c" stroke="none" /><path d="M 120.26092885502905 94.47779374421319 l 14.501931554126852 -3.952565932302447 a36.03092799030645,36.03092799030645 0 0,0 0.15752467647035293,0.5981468544266976 l -14.567645711401935 3.7030385735029507" fill="#ffbe11" stroke="none" /><path d="M 120.35273937422433 94.82641323984039 l 45.56260370248729 -11.58183568999646 a68.01159191199532,68.01159191199532 0 0,0 0.27791632988252013,1.1339934651007793 l -45.754707558886096 10.797986400287586" fill="#39ff8a" stroke="none" /><path d="M 120.43855184770803 95.1765574152323 l 4.812297679110225 -1.1356891490627805 a25.944491763130827,25.944491763130827 0 0,0 0.09857564976687758,0.43434250130088264 l -4.831084190434769 1.0529123138228715" fill="#ff3505" stroke="none" /><path d="M 120.592083275326 95.88100663000786 l 8.113266751133354 -1.6228805755141287 a29.27398566214778,29.27398566214778 0 0,0 0.09433710235411992,0.4936115825818122 l -8.13993014576963 1.483366427899002" fill="#ff6409" stroke="none" /><path d="M 120.77682067341334 96.94652285012252 l 25.412038244359394 -3.7346945103230933 a46.68500789990577,46.68500789990577 0 0,0 0.10972195878683672,0.7938934358489389 l -25.47240471970144 3.297912766274069" fill="#bfff1e" stroke="none" /><path d="M 120.86939407059847 97.66154086499901 l 21.107031083883218 -2.3650868580029165 a42.239124205623696,42.239124205623696 0 0,0 0.07455729895105799,0.7212742344222012 l -21.14452077531594 2.002408101297784" fill="#f3ff19" stroke="none" /><path d="M 120.96210409425399 98.7389718711861 l 16.034860700177365 -0.964617401650967 a37.06384899100027,37.06384899100027 0 0,0 0.03275457742355132,0.6354300515612142 l -16.04905686705749 0.6892155567130221" fill="#ffcb12" stroke="none" /><path d="M 120.98066250479742 99.09900007780936 l 21.379976959958793 -0.9181482030396249 a42.39968249603516,42.39968249603516 0 0,0 0.02498615914869974,0.7274447613234194 l -21.392587806104338 0.5509971771520855" fill="#f1ff19" stroke="none" /><path d="M 120.99303781780057 99.45929381324524 l 43.87088836758491 -1.1299584635943811 a64.88543781586947,64.88543781586947 0 0,0 0.0191213319130481,1.1137217223536913 l -43.883821131096624 0.37668982527162337" fill="#35ff67" stroke="none" /><line stroke="#e1ed5e" stroke-width="0.3" x1="184.99686870605535" x2="189.99668451229388" y1="99.2704041080226" y2="99.22748670261217" /><path d="M 185.99683186730306 99.26182062694052 a86.0,86.0 0 0,1 -10.086455211305974,41.156179273409016" fill="none" id="id100" stroke="none" /><text fill="#e1ed5e" style="font-size:6.75px; font-family:Arial;" text-anchor="middle"><textPath startOffset="21.40746469413373" xlink:href="#id100">April</textPath></text><path d="M 120.99922638620191 100.18025310272382 l 57.93406114990293 0.4972942375878932 a78.93619544705564,78.93619544705564 0 0,0 -0.023262002136427953,1.3548950043123513 l -57.91698771616784 -1.4917361578693156" fill="#47fffc" stroke="none" /><path d="M 120.99303781780057 100.54070618675476 l 3.52134424006944 0.09069733655623205 a24.522512067250958,24.522512067250958 0 0,0 -0.014451131545516976,0.42072892738007234 l -3.519268421527077 -0.1511325285004151" fill="#ff2103" stroke="none" /><path d="M 120.96210409425399 101.26102812881392 l 6.78324183820416 0.4080629847109467 a27.795504781475366,27.795504781475366 0 0,0 -0.03274050884338885,0.4760398130289049 l -6.775237368195705 -0.5244462218941951" fill="#ff4f07" stroke="none" /><path d="M 120.86939407059847 102.33845913500097 l 3.936686167015243 0.4411138961556252 a24.961322941512186,24.961322941512186 0 0,0 -0.0513703000824263,0.42541977681542825 l -3.928533780673153 -0.508627349894462" fill="#ff2703" stroke="none" /><path d="M 120.7213421655516 103.40968896794604 l 2.985492084358716 0.4912615863682471 a24.025640582093253,24.025640582093253 0 0,0 -0.07045826000543784,0.4063845201573992 l -2.9766190068610436 -0.5424391394462343" fill="#ff1a02" stroke="none" /><path d="M 120.51834098615036 104.47187691870673 l 12.496450933088735 2.723543318202515 a33.7897996125514,33.7897996125514 0 0,0 -0.1283837618678406,0.5656825431835133 l -12.44785630966323 -2.937660195325045" fill="#ffa10e" stroke="none" /><path d="M 120.16314734710363 105.8691983318838 l 33.015484101888205 9.610326249238726 a55.38576102253431,55.38576102253431 0 0,0 -0.27356261679318045,0.910600979885319 l -32.8456451650914 -10.17566483271477" fill="#60ff29" stroke="none" /><path d="M 120.05942366710727 106.21446072829308 l 1.4000328374074698 0.4337337518154189 a22.465679676219565,22.465679676219565 0 0,0 -0.11728719888378483,0.3674004799992348 l -1.39238092274643 -0.45770326550603724" fill="#ff0300" stroke="none" /><path d="M 119.83427380445688 106.89939002012753 l 5.625733965331014 1.956922303229246 a26.95637704897491,26.95637704897491 0 0,0 -0.15578196832833077,0.43574989098774264 l -5.59131182695874 -2.05320715059791" fill="#ff4406" stroke="none" /><path d="M 119.58574465831526 107.57618678355244 l 32.63824561894754 12.625174554781466 a55.99500120905056,55.99500120905056 0 0,0 -0.35447855504784026,0.8935175212513374 l -32.41670838893358 -13.183593093246369" fill="#59ff2a" stroke="none" /><path d="M 119.31412917781788 108.2440532568976 l 43.45118145561133 18.546725596439895 a68.24390119621897,68.24390119621897 0 0,0 -0.4691479567483755,1.0735023367419396 l -43.12639961684599 -19.289890002957677" fill="#39ff8d" stroke="none" /><path d="M 119.0197475246899 108.90220220490707 l 6.671923217733937 3.122796951052069 a28.366574524216617,28.366574524216617 0 0,0 -0.21021082745685937,0.4392597806911323 l -6.6173331323171665 -3.2368692338083043" fill="#ff5708" stroke="none" /><path d="M 118.8641267826498 109.22738970284198 l 28.213532793985987 13.800652687696333 a52.407983815007015,52.407983815007015 0 0,0 -0.4022439704619504,0.8047573934774174 l -27.972468910312305 -14.282941937337496" fill="#7fff26" stroke="none" /><path d="M 118.5362547648365 109.86951160357373 l 3.223153886922173 1.7161478999213964 a24.651559200285014,24.651559200285014 0 0,0 -0.20208955026484957,0.37182201066690246 l -3.1932189870419845 -1.7712247440629023" fill="#ff2303" stroke="none" /><line stroke="#e1ed5e" stroke-width="0.3" x1="174.33088141563837" x2="178.70328620479359" y1="141.23008692659167" y2="143.65538615756765" /><path d="M 175.20536237346943 141.71514677278685 a86.0,86.0 0 0,1 -30.301960400862466,31.631185727798858" fill="none" id="id101" stroke="none" /><text fill="#e1ed5e" style="font-size:6.75px; font-family:Arial;" text-anchor="middle"><textPath startOffset="22.145653131862474" xlink:href="#id101">May</textPath></text><path d="M 118.18653347947321 110.5 l 5.908909025147492 3.411510216285912 a27.823020432571827,27.823020432571827 0 0,0 -0.242360090510195,0.41158041866300665 l -5.849475224507532 -3.512441803242468" fill="#ff5007" stroke="none" /><path d="M 117.81537515405839 111.11811171558189 l 3.1186296429449887 1.946255550048801 a24.676106842292665,24.676106842292665 0 0,0 -0.22735191016823603,0.3574349649330231 l -3.0847600411508624 -1.999504189660496" fill="#ff2303" stroke="none" /><path d="M 117.62189284568427 111.42229804090321 l 2.7036081003710533 1.7524461065941295 a24.221888284361967,24.221888284361967 0 0,0 -0.2291570116807186,0.3469729228837828 l -2.673126649769608 -1.7985989078169733" fill="#ff1d02" stroke="none" /><path d="M 117.21940702142032 112.02048342749411 l 31.032546081212875 21.663127273670664 a58.8458716316305,58.8458716316305 0 0,0 -0.5853340046519867,0.8233455809286762 l -30.656096978030927 -22.192650081308845" fill="#3dff2e" stroke="none" /><path d="M 116.79662413953412 112.60449989151573 l 28.54694544717112 21.422160060429512 a56.690853674554006,56.690853674554006 0 0,0 -0.5907943442272672,0.7733687613467279 l -28.174999125589547 -21.909049735017117" fill="#52ff2b" stroke="none" /><path d="M 116.35404254752997 113.17365903436017 l 3.8633174828101278 3.112015094256312 a25.96083258333372,25.96083258333372 0 0,0 -0.2825443267683047,0.344658137592422 l -3.809326336803195 -3.1778755135472267" fill="#ff3505" stroke="none" /><path d="M 116.1254893667686 113.45245675266167 l 48.37646810030581 40.35737025798503 a84.0,84.0 0 0,0 -0.933221745971542,1.0993328702017733 l -47.67655179082715 -41.181869910636365" fill="#4dd2ff" stroke="none" /><path d="M 115.6541949942343 113.99807769240083 l 5.883354626774082 5.260931985826318 a28.89248167713264,28.89248167713264 0 0,0 -0.333780118250297,0.36688281962760644 l -5.792176807681905 -5.361152381011596" fill="#ff5e08" stroke="none" /><path d="M 115.41159269507618 114.26474011684316 l 3.3524381716578944 3.102966722690714 a25.568067882257758,25.568067882257758 0 0,0 -0.3009047057016811,0.31955036992463637 l -3.2986776322199534 -3.1600585525598475" fill="#ff3004" stroke="none" /><path d="M 115.16444852881244 114.52719865689866 l 30.598903597114404 29.313057470833254 a63.373909893162725,63.373909893162725 0 0,0 -0.7593196281809135,0.7791288309218353 l -30.09119716778268 -29.834008993822827" fill="#33ff55" stroke="none" /><path d="M 114.65682725009322 115.03919595460226 l 3.696657359297686 3.793096108378221 a26.29649447459768,26.29649447459768 0 0,0 -0.3259857636680271,0.31228698749766653 l -3.630999109764347 -3.855995226181468" fill="#ff3a05" stroke="none" /><path d="M 114.39649973595853 115.28858382429668 l 9.524892939784074 10.11510622707936 a34.89384610176204,34.89384610176204 0 0,0 -0.4396129925180197,0.40689922283377944 l -9.349850175952087 -10.277123196045519" fill="#ffaf10" stroke="none" /><path d="M 114.13192950727249 115.5334660781643 l 3.382580809987982 3.7180488511181964 a26.026503774533577,26.026503774533577 0 0,0 -0.3330586568443112,0.29782310469177714 l -3.318257126320293 -3.7755674856933608" fill="#ff3605" stroke="none" /><path d="M 113.86319453409587 115.77377054828091 l 26.12427485616473 29.72462921932457 a60.573113587216824,60.573113587216824 0 0,0 -0.7869327791070541,0.6797337919861323 l -25.61016259729482 -30.16870714377542" fill="#30ff34" stroke="none" /><path d="M 113.31354834802062 116.24036423190432 l 3.7580674627715407 4.584231251359244 a26.92775229076594,26.92775229076594 0 0,0 -0.3599974148427201,0.28998843451739537 l -3.678819277573568 -4.648067979670042" fill="#ff4306" stroke="none" /><path d="M 113.03279911837588 116.46651593811092 l 3.3567503917887764 4.24114446364137 a26.40879649776639,26.40879649776639 0 0,0 -0.3578895646388697,0.27829709013886583 l -3.283450882514676 -4.298142605401029" fill="#ff3c05" stroke="none" /><path d="M 112.45986205192187 116.90419585922612 l 16.012770715828047 21.72439881768082 a47.98811460601374,47.98811460601374 0 0,0 -0.6673067019669698,0.48307859099865136 l -15.637483003487109 -21.99607818005255" fill="#b0ff20" stroke="none" /><line stroke="#e1ed5e" stroke-width="0.3" x1="143.1302829299769" x2="145.66735839644613" y1="173.24464959558577" y2="177.55315839532614" /><path d="M 143.63769802327073 174.10635135553383 a86.0,86.0 0 0,1 -40.68552437913181,11.842963189579606" fill="none" id="id102" stroke="none" /><text fill="#e1ed5e" style="font-size:6.75px; font-family:Arial;" text-anchor="middle"><textPath startOffset="21.407464694133747" xlink:href="#id102">June</textPath></text><path d="M 110.65571695917076 118.09573695890943 l 1.8849473734625306 3.2010527289962476 a24.714803517622112,24.714803517622112 0 0,0 -0.36743561016914,0.2121390484410082 l -1.8297192954329922 -3.2329386747134277" fill="#ff2403" stroke="none" /><path d="M 110.34350942703117 118.27599006163325 l 6.364201046371976 11.244933442973096 a33.92097454124637,33.92097454124637 0 0,0 -0.5092278270255751,0.28246009160449087 l -6.170229031190306 -11.352526450010732" fill="#ffa20f" stroke="none" /><path d="M 110.02825361518725 118.45085714620011 l 2.4572427783052615 4.521049947059566 a26.145671452331626,26.145671452331626 0 0,0 -0.39618309880486396,0.21094518501180673 l -2.3792708637138436 -4.562565599793942" fill="#ff3805" stroke="none" /><path d="M 109.71004243097381 118.62028667847754 l 19.456942023747814 37.31125182450591 a63.07971133013128,63.07971133013128 0 0,0 -0.9644370557271652,0.4924484325403772 l -18.813577746307065 -37.63975820871912" fill="#33ff52" stroke="none" /><path d="M 109.3889696526874 118.78422872680471 l 2.741876063671348 5.485588837302465 a27.13266412258745,27.13266412258745 0 0,0 -0.4184111993483196,0.2046658844538422 l -2.647304615060959 -5.531848471853531" fill="#ff4606" stroke="none" /><path d="M 108.07796709384702 119.3841803445677 l 5.89649193832188 14.149434109453352 a36.32889763800571,36.32889763800571 0 0,0 -0.5777082521943397,0.2349489168413171 l -5.652729224937099 -14.24857028287396" fill="#ffc212" stroke="none" /><path d="M 106.0420521117495 120.11202640906438 l 1.8651779051294073 6.208570629938529 a27.48268755106385,27.48268755106385 0 0,0 -0.4529931966021624,0.13185971753730308 l -1.758324696145638 -6.2396740417783505" fill="#ff4b07" stroke="none" /><path d="M 105.69591212413111 120.21278271476187 l 1.9695569190912048 6.989262682141405 a28.261470050720757,28.261470050720757 0 0,0 -0.4680888057413221,0.12757968550325982 l -1.8492867124151875 -7.022042861788807" fill="#ff5607" stroke="none" /><path d="M 104.9986988182912 120.39639698878246 l 9.784776482948114 39.92522711359043 a62.106758700887994,62.106758700887994 0 0,0 -1.037679269694171,0.24488948219366125 l -9.097965059514063 -40.08731273943032" fill="#32ff46" stroke="none" /><path d="M 104.29559338865022 120.5559693870025 l 7.321215150693836 35.03466480578849 a56.791450506185186,56.791450506185186 0 0,0 -0.9559989212252895,0.1912265585563617 l -6.718719743937587 -35.15518076100771" fill="#51ff2b" stroke="none" /><path d="M 103.2317021107853 120.74984581791261 l 2.027146893197178 13.015737231387549 a34.172651221493986,34.172651221493986 0 0,0 -0.5804060364538935,0.0852996999791595 l -1.803415751135599 -13.04861800466559" fill="#ffa60f" stroke="none" /><path d="M 102.51750503828377 120.84855314841334 l 4.607781116519376 38.15903763572978 a59.4362303055697,59.4362303055697 0 0,0 -1.0139936886986751,0.11362010780712509 l -3.9520515262199014 -38.23251350404388" fill="#37ff2e" stroke="none" /><path d="M 102.15924093988457 120.88869738790638 l 0.385915133839081 3.733378845905409 a24.75327165251598,24.75327165251598 0 0,0 -0.42304571446368144,0.04006286899868184 l -0.3217698559903843 -3.739453470409275" fill="#ff2403" stroke="none" /><path d="M 101.44090949804482 120.95050786540614 l 0.3862385470202145 5.615823705964884 a26.629090167307808,26.629090167307808 0 0,0 -0.45631564258474067,0.027450815926198215 l -0.2897785523030087 -5.621626499715774" fill="#ff3f05" stroke="none" /><path d="M 101.08105385017728 120.97215588758144 l 1.625078495831327 31.526088675917453 a52.56794493341979,52.56794493341979 0 0,0 -0.9016009325319975,0.038718623392969456 l -1.0836518026984998 -31.549339867736254" fill="#7dff26" stroke="none" /><path d="M 100.72087961077811 120.9876233191556 l 1.560289637424828 45.4261303682977 a66.45291876205789,66.45291876205789 0 0,0 -1.140416531570673,0.029373084517329156 l -0.7802597917834113 -45.446221170165074" fill="#37ff79" stroke="none" /><line stroke="#e1ed5e" stroke-width="0.3" x1="101.45913802915013" x2="101.54496967792366" y1="184.9874750549273" y2="189.98673829345242" /><path d="M 101.47630435890484 185.9873277026323 a86.0,86.0 0 0,1 -42.54439059252881,-10.42667462771756" fill="none" id="id103" stroke="none" /><text fill="#e1ed5e" style="font-size:6.75px; font-family:Arial;" text-anchor="middle"><textPath startOffset="22.145653131862474" xlink:href="#id103">July</textPath></text><path d="M 100.0 121.0 l 1.2487628740033712e-15 10.196922695366602 a31.196922695366602,31.196922695366602 0 0,0 -0.5355366623207735,-0.004596938155260377 l 0.17504373747192006 -10.195420155405778" fill="#ff7e0b" stroke="none" /><path d="M 99.63950707515114 120.99690560180557 l -0.09183511289124295 5.34893492602408 a26.34972322001802,26.34972322001802 0 0,0 -0.4521947345912124,-0.011646932317915503 l 0.1836431615531993 -5.346570276356117" fill="#ff3b05" stroke="none" /><path d="M 99.27912038922189 120.98762331915562 l -1.2435633281161862 36.20498945149347 a57.226340015709404,57.226340015709404 0 0,0 -0.9814977851788533,-0.042149738020631065 l 1.8648868738958784 -36.17830714504701" fill="#4dff2c" stroke="none" /><path d="M 98.91894614982273 120.97215588758144 l -0.3639357694820927 7.060256701730263 a28.069630396183072,28.069630396183072 0 0,0 -0.48100071579148745,-0.028935808631870372 l 0.48508083740602653 -7.052968915273701" fill="#ff5307" stroke="none" /><path d="M 98.55909050195518 120.95050786540614 l -2.0661961998368854 30.04203927789532 a51.113008662550236,51.113008662550236 0 0,0 -0.8748380992210713,-0.06771800174253875 l 2.5816032938331928 -30.00214350915773" fill="#8dff24" stroke="none" /><path d="M 98.19965949673042 120.92268563240118 l -0.22795194883395134 2.649147178594468 a23.658936416094267,23.658936416094267 0 0,0 -0.40434298140868546,-0.03829170073321547 l 0.27339449362765206 -2.644843722356069" fill="#ff1402" stroke="none" /><path d="M 97.48249496171623 120.84855314841334 l -5.0525439911526435 41.84231226248246 a63.14626076241667,63.14626076241667 0 0,0 -1.0750566041538616,-0.13918760079075085 l 5.7700784171973 -41.74941306549131" fill="#33ff52" stroke="none" /><path d="M 97.12497278360702 120.80226474461374 l -0.3526628346179895 2.551692592501216 a23.57594762399129,23.57594762399129 0 0,0 -0.40042612518980214,-0.0588488509719708 l 0.3964140654154765 -2.5452626682303627" fill="#ff1302" stroke="none" /><path d="M 96.76829788921471 120.74984581791261 l -6.4036053033186535 41.11573968379834 a62.61141923350561,62.61141923350561 0 0,0 -1.0605852565301932,-0.17451890036201695 l 7.108468062901911 -40.999754784940656" fill="#32ff4c" stroke="none" /><path d="M 96.05791012581884 120.62667999033965 l -3.131885834229363 16.387350093672197 a37.68394293838314,37.68394293838314 0 0,0 -0.6343526794175844,-0.12688830196644632 l 3.4127349991779052 -16.331172395042888" fill="#ffd313" stroke="none" /><path d="M 95.00130118170881 120.39639698878247 l -9.424584617224662 38.455521385663296 a60.593559075314694,60.593559075314694 0 0,0 -1.008146133597632,-0.2562668048357319 l 10.083336044047673 -38.2880693489923" fill="#30ff34" stroke="none" /><path d="M 94.30408787586889 120.21278271476187 l -10.950751453524347 38.860353683426176 a61.373828723541195,61.373828723541195 0 0,0 -1.0116160149742826,-0.29446667850924496 l 11.616227480880237 -38.66664331061442" fill="#31ff3d" stroke="none" /><path d="M 93.61358852112213 120.00534299687104 l -5.4621255147699355 17.110030378771167 a38.96073369051423,38.96073369051423 0 0,0 -0.6353888292172686,-0.20886492858949088 l 5.755037081634947 -17.013744528779657" fill="#ffe315" stroke="none" /><path d="M 92.59220618246901 119.65005319985036 l -2.1697022618191646 5.755393025611015 a27.150785054299583,27.150785054299583 0 0,0 -0.4347070014443656,-0.16815400672867714 l 2.2681815257570586 -5.717299130744298" fill="#ff4606" stroke="none" /><path d="M 91.92203290615298 119.3841803445677 l -3.7079899526267397 8.89782603995873 a30.639527878799278,30.639527878799278 0 0,0 -0.4837615599022648,-0.2064890436817871 l 3.860186587699436 -8.832862346617539" fill="#ff760a" stroke="none" /><path d="M 91.26138138417905 119.09545874513695 l -6.662795114816504 14.559409768946187 a37.01153495334249,37.01153495334249 0 0,0 -0.5754611371050554,-0.2693448689013797 l 6.911744965793049 -14.44288866847428" fill="#ffca12" stroke="none" /><path d="M 90.93487009805054 118.94263497670748 l -1.28985799000484 2.695307109851442 a23.988045188881028,23.988045188881028 0 0,0 -0.3699182178408308,-0.18094553718424 l 1.3359364571077401 -2.6727678225699805" fill="#ff1902" stroke="none" /><path d="M 89.97174638481275 118.45085714620012 l -3.0126121194483026 5.5428669822102306 a27.308661202245936,27.308661202245936 0 0,0 -0.4099625789373327,-0.22739933180288763 l 3.107318886541738 -5.490334734974194" fill="#ff4806" stroke="none" /><line stroke="#e1ed5e" stroke-width="0.3" x1="58.13341422392154" x2="55.67067388415222" y1="173.97424548756322" y2="178.32567169271397" /><path d="M 57.64086615596768 174.84453072859336 a86.0,86.0 0 0,1 -31.369924170532247,-30.572349798747897" fill="none" id="id104" stroke="none" /><text fill="#e1ed5e" style="font-size:6.75px; font-family:Arial;" text-anchor="middle"><textPath startOffset="22.145653131862474" xlink:href="#id104">August</textPath></text><path d="M 89.65649057296885 118.27599006163327 l -3.0405695959821553 5.372395134348902 a27.17314287438634,27.17314287438634 0 0,0 -0.4039838036804249,-0.23324015780314403 l 3.13234586752298 -5.319408079269586" fill="#ff4706" stroke="none" /><path d="M 89.03521579738668 117.91015095944536 l -8.196035026018075 13.387607259055697 a36.69722963680012,36.69722963680012 0 0,0 -0.5344442474749878,-0.33353273775002834 l 8.424643402282774 -13.244938724464122" fill="#ffc612" stroke="none" /><path d="M 88.72937992617639 117.7192867562869 l -7.267663998894877 11.425974933167332 a34.541486003175606,34.541486003175606 0 0,0 -0.49758551424542946,-0.32252891867625705 l 7.462735145397316 -11.29953217278718" fill="#ffaa0f" stroke="none" /><path d="M 86.96720088162412 116.46651593811092 l -9.964320264957715 12.589593146112641 a37.05570097900722,37.05570097900722 0 0,0 -0.49539807160962124,-0.3990576190992223 l 10.1789691069226 -12.416687233220008" fill="#ffcb12" stroke="none" /><path d="M 86.68645165197938 116.24036423190432 l -32.86346590001149 40.08808487320391 a72.83687818303122,72.83687818303122 0 0,0 -0.9601484428850823,-0.8009899799174465 l 33.546788677058466 -39.518032709374594" fill="#3fffbf" stroke="none" /><path d="M 86.13680546590413 115.77377054828092 l -5.158780078644793 5.8697447453003395 a28.814532313248396,28.814532313248396 0 0,0 -0.3687367889665676,-0.3297267104377769 l 5.2587818944347315 -5.78032250497918" fill="#ff5d08" stroke="none" /><path d="M 85.86807049272751 115.53346607816431 l -3.7136349833944258 4.081935379847156 a26.51844916938979,26.51844916938979 0 0,0 -0.3340948648163996,-0.309233219127341 l 3.7831596195247923 -4.017584414587438" fill="#ff3d05" stroke="none" /><path d="M 85.08716467003676 114.78537596483092 l -6.107196467938311 6.054998521181818 a29.60004975506027,29.60004975506027 0 0,0 -0.3546553907126625,-0.36390767430583293 l 6.210238659801783 -5.949268154808247" fill="#ff6809" stroke="none" /><path d="M 84.1078160697243 113.72728997021213 l -7.055183928077293 6.094099841708602 a30.32275029911844,30.32275029911844 0 0,0 -0.3368791663905082,-0.3968428109374028 l 7.158757657974913 -5.972090248321645" fill="#ff720a" stroke="none" /><path d="M 83.4222238831116 112.89097897827486 l -14.667561767062578 11.405584746022086 a39.58022420718565,39.58022420718565 0 0,0 -0.4124787525531544,-0.5399479278379116 l 14.861192496970029 -11.152115904943305" fill="#ffeb16" stroke="none" /><path d="M 82.78059297857968 112.02048342749411 l -5.152392888295062 3.5967703910271314 a27.28362234074606,27.28362234074606 0 0,0 -0.2647943928523206,-0.38634293264783937 l 5.213377017962708 -3.507792723309241" fill="#ff4806" stroke="none" /><path d="M 82.37810715431573 111.42229804090323 l -6.118315007962337 3.96581786877636 a28.29119262569321,28.29119262569321 0 0,0 -0.2606592978988439,-0.4097997106555939 l 6.1854919974870715 -3.8602044834420943" fill="#ff5608" stroke="none" /><path d="M 81.99639281039703 110.81064883170644 l -5.006745322867316 3.0064067109042996 a26.84003253753129,26.84003253753129 0 0,0 -0.23379750343270728,-0.3970392738450935 l 5.057616536429793 -2.9200162687656475" fill="#ff4206" stroke="none" /><line stroke="#e1ed5e" stroke-width="0.3" x1="26.387840678322732" x2="22.057713659400548" y1="142.50000000000003" y2="145.00000000000006" /><path d="M 25.521815274538298 143.00000000000003 a86.0,86.0 0 0,1 -11.493303480769221,-40.785679425670985" fill="none" id="id105" stroke="none" /><text fill="#e1ed5e" style="font-size:6.75px; font-family:Arial;" text-anchor="middle"><textPath startOffset="21.40746469413373" xlink:href="#id105">September</textPath></text><path d="M 81.81346652052679 110.50000000000001 l -42.243554353902745 24.389327477752367 a69.77865495550469,69.77865495550469 0 0,0 -0.5900171882753948,-1.0425038373275703 l 42.65600490719952 -23.660566870325674" fill="#3bff9e" stroke="none" /><path d="M 81.4637452351635 109.86951160357371 l -6.883406670111543 3.665026342411832 a28.79831427147616,28.79831427147616 0 0,0 -0.2285926960085066,-0.43835663567307454 l 6.945307435094999 -3.5463234636342547" fill="#ff5d08" stroke="none" /><path d="M 81.29705330413844 109.54985784667822 l -7.363103732153338 3.7596532298287193 a29.26742335791581,29.26742335791581 0 0,0 -0.22463456366179554,-0.4494196040522256 l 7.42655820902687 -3.6327017696127406" fill="#ff6409" stroke="none" /><path d="M 81.1358732173502 109.22738970284198 l -5.668821906723354 2.7729048628667243 a27.310668996917563,27.310668996917563 0 0,0 -0.20238602737673989,-0.4229089580017019 l 5.715587192060005 -2.6751834027999175" fill="#ff4806" stroke="none" /><path d="M 80.9802524753101 108.90220220490708 l -9.872598179992798 4.620874444942267 a31.900489688978087,31.900489688978087 0 0,0 -0.22788423962275303,-0.4979681901330348 l 9.950466884470607 -4.450717272594543" fill="#ff870c" stroke="none" /><path d="M 80.83023694016515 108.57439118712176 l -11.925810831128024 5.334263494573753 a34.064429991752135,34.064429991752135 0 0,0 -0.23417854853400108,-0.5358463475114705 l 12.015623261678993 -5.128755077286433" fill="#ffa40f" stroke="none" /><path d="M 80.68587082218212 108.24405325689762 l -46.947047083211146 20.038902755842496 a72.0449101624379,72.0449101624379 0 0,0 -0.47575081296289745,-1.1416287601087043 l 47.28412374071053 -19.23004148629251" fill="#3effb6" stroke="none" /><path d="M 80.28708602549918 107.23885506374661 l -12.04674760786204 4.423732586448202 a33.833298014303786,33.833298014303786 0 0,0 -0.1955239663746905,-0.5469153326763294 l 12.120911744280674 -4.2162822973909515" fill="#ffa10e" stroke="none" /><path d="M 80.16572619554312 106.89939002012753 l -7.504408068662253 2.610422677751807 a28.945467073591335,28.945467073591335 0 0,0 -0.1592201631617536,-0.47070612081879665 l 7.548113653396374 -2.4812148824588482" fill="#ff5f08" stroke="none" /><path d="M 80.05021161711548 106.5578916946017 l -3.505978346970958 1.1524847202278867 a24.690542670094462,24.690542670094462 0 0,0 -0.12890260301188683,-0.40378556799402227 l 3.5252456657601 -1.092130118542473" fill="#ff2303" stroke="none" /><path d="M 79.73907114497094 105.5222062557868 l -5.261748334347192 1.434112906481857 a26.453684567569276,26.453684567569276 0 0,0 -0.11565364356077942,-0.4391557224489036 l 5.2855914587127035 -1.3435766796601507" fill="#ff3c05" stroke="none" /><path d="M 79.64726062577567 105.17358676015961 l -6.5925717942493325 1.6758059700467163 a27.80222967206901,27.80222967206901 0 0,0 -0.11360848078677804,-0.46356137059918234 l 6.620367801552404 -1.5623887748394343" fill="#ff4f07" stroke="none" /><path d="M 79.48165901384964 104.47187691870673 l -6.624804114707839 1.4438452227454495 a27.780318472276562,27.780318472276562 0 0,0 -0.09755163229399061,-0.46681987461516455 l 6.648613457826197 -1.3299088968448758" fill="#ff4f07" stroke="none" /><path d="M 79.34024301695615 103.76489593502545 l -1.8823242358008003 0.3430221792822958 a22.913324003968654,22.913324003968654 0 0,0 -0.06719624955447513,-0.3875701107217851 l 1.8879353028475099 -0.310659035639918" fill="#ff0a01" stroke="none" /><path d="M 79.2786578344484 103.40968896794605 l -26.949104351695738 4.434464865734611 a48.31151229800395,48.31151229800395 0 0,0 -0.12763098165890463,-0.8194824585387189 l 27.021256825492912 -3.9711942252644428" fill="#acff20" stroke="none" /><path d="M 79.17382384314188 102.69636545807758 l -3.465583738903654 0.44868919840467225 a24.494508928035305,24.494508928035305 0 0,0 -0.05040959876018026,-0.41746379171428977 l 3.4727754239234954 -0.3891317297669832" fill="#ff2003" stroke="none" /><path d="M 79.13060592940153 102.33845913500099 l -2.2128258804325824 0.24795175541556924 a23.226674302659887,23.226674302659887 0 0,0 -0.040997964143198534,-0.39661811273052777 l 2.216756237057447 -0.20992912040211006" fill="#ff0e01" stroke="none" /><path d="M 79.0935383218832 101.97986365728391 l -16.532075980720414 1.5656047837088134 a37.6060427125515,37.6060427125515 0 0,0 -0.05534602594852342,-0.6432047158971603 l 16.55651562936668 -1.2815790204359911" fill="#ffd213" stroke="none" /><path d="M 79.03789590574601 101.26102812881392 l -11.398642510297812 0.6857140280931889 a32.419249310085675,32.419249310085675 0 0,0 -0.028649987533633008,-0.5558021042468001 l 11.408734087288018 -0.48994013046965795" fill="#ff8e0d" stroke="none" /><path d="M 79.01933749520258 100.90099992219065 l -3.4640815152285014 0.14876256528931195 a24.467274296184144,24.467274296184144 0 0,0 -0.014418579892821479,-0.41978122152888 l 3.4661247821181713 -0.08927507919631208" fill="#ff2003" stroke="none" /><path d="M 79.00696218219943 100.54070618675478 l -6.770346371647519 0.174380106461698 a27.77259170581029,27.77259170581029 0 0,0 -0.008184408735891786,-0.47670077770912545 l 6.772342211982076 -0.05813241278352013" fill="#ff4f07" stroke="none" /><line stroke="#e1ed5e" stroke-width="0.3" x1="15.003131293944662" x2="10.003315487706104" y1="100.72959589197737" y2="100.7725132973878" /><path d="M 14.003168132696942 100.73817937305945 a86.0,86.0 0 0,1 10.791469493833604,-42.45332614584628" fill="none" id="id106" stroke="none" /><text fill="#e1ed5e" style="font-size:6.75px; font-family:Arial;" text-anchor="middle"><textPath startOffset="22.145653131862435" xlink:href="#id106">October</textPath></text><path d="M 79.00077361379809 100.18025310272382 l -1.808782428111806 0.015526221719944536 a22.8088490638544,22.8088490638544 0 0,0 0.0,-0.3915586488875235 l 1.808782428111806 0.015526221719943872" fill="#ff0801" stroke="none" /><path d="M 79.00077361379809 99.81974689727619 l -9.90774057313384 -0.0850460367655955 a30.908105575380795,30.908105575380795 0 0,0 0.00910842502423314,-0.5305200941047683 l 9.90482071651094 0.25511304683941616" fill="#ff7a0b" stroke="none" /><path d="M 79.03789590574601 98.7389718711861 l -6.379970532427721 -0.38380318436642785 a27.391504430020827,27.391504430020827 0 0,0 0.032264634158491595,-0.4691206995506157 l 6.372441937104165 0.49326730807136854" fill="#ff4a06" stroke="none" /><path d="M 79.0935383218832 98.0201363427161 l -16.96556249080516 -1.6066564069080578 a38.04146869959493,38.04146869959493 0 0,0 0.0671479157703647,-0.6495951733995651 l 16.93548218255313 1.8976561025905354" fill="#ffd714" stroke="none" /><path d="M 79.13060592940154 97.66154086499901 l -6.022102876467028 -0.6747891882127001 a27.059790714478613,27.059790714478613 0 0,0 0.05568893813951262,-0.4611842951352563 l 6.009631852067847 0.7780671602713927" fill="#ff4506" stroke="none" /><path d="M 79.22317932658666 96.9465228501225 l -6.236962341294556 -0.9166186825763559 a27.303958205443188,27.303958205443188 0 0,0 0.07213251714081403,-0.46314250442041055 l 6.220308332015475 1.0235493689282165" fill="#ff4806" stroke="none" /><path d="M 79.2786578344484 96.59031103205396 l -7.296237032338019 -1.2005930271274026 a28.394355850839723,28.394355850839723 0 0,0 0.08327007558401946,-0.4802796678071525 l 7.274552139261766 1.3256657278551476" fill="#ff5808" stroke="none" /><path d="M 79.34024301695615 96.23510406497455 l -16.16077754144231 -2.9450320118752176 a37.42692741491713,37.42692741491713 0 0,0 0.12061042603114015,-0.6310847141098322 l 16.107840823129013 3.2220192910183645" fill="#ffd013" stroke="none" /><path d="M 79.407916724674 95.88100663000787 l -3.100736637857645 -0.6202341687657698 a24.16216035669561,24.16216035669561 0 0,0 0.08484633410149847,-0.4060204233943691 l 3.0896325929317796 0.673371043445548" fill="#ff1c02" stroke="none" /><path d="M 79.48165901384962 95.52812308129327 l -5.947413257855211 -1.2962110382981311 a27.08702616353157,27.08702616353157 0 0,0 0.10291668955015519,-0.4534699235615946 l 5.924285706747393 1.398115295798734" fill="#ff4506" stroke="none" /><path d="M 79.56144815229197 95.17655741523228 l -5.250492169529423 -1.2391018556599758 a26.394723480493674,26.394723480493674 0 0,0 0.10785697660854784,-0.44009327084639105 l 5.228447666404577 1.3290509511144843" fill="#ff3c05" stroke="none" /><path d="M 79.64726062577567 94.8264132398404 l -7.376789514848753 -1.8751510479635443 a28.611387192822427,28.611387192822427 0 0,0 0.12508696728905006,-0.47497558915984406 l 7.343513066754976 2.001507141496173" fill="#ff5b08" stroke="none" /><path d="M 79.83685265289637 94.1308016681162 l -5.836372273054593 -1.6988829084852894 a27.078605468890366,27.078605468890366 0 0,0 0.13374726706681658,-0.44520115312430614 l 5.806348685984147 1.798821665200319" fill="#ff4506" stroke="none" /><path d="M 79.94057633289273 93.78553927170692 l -17.385315532330022 -5.386015192540617 a39.200504273589615,39.200504273589615 0 0,0 0.2046551632242782,-0.6410793839268386 l 17.29029565332849 5.683663610158847" fill="#ffe615" stroke="none" /><path d="M 80.16572619554312 93.10060997987247 l -3.924095652913576 -1.36500416665893 a25.154727797126,25.154727797126 0 0,0 0.14537016609762407,-0.40662622708940116 l 3.900085316772009 1.4321653501292526" fill="#ff2a04" stroke="none" /><path d="M 80.28708602549916 92.7611449362534 l -7.364527524898618 -2.7043565164781027 a28.845368686888268,28.845368686888268 0 0,0 0.17467837195390773,-0.4633551346467609 l 7.317018469130274 2.830379931319009" fill="#ff5e08" stroke="none" /><path d="M 80.41425534168474 92.42381321644754 l -3.280708247561788 -1.2690484277970344 a24.51760295054943,24.51760295054943 0 0,0 0.15520964870953938,-0.3912297051947798 l 3.2584399238861175 1.3251791502053971" fill="#ff2103" stroke="none" /><path d="M 80.68587082218212 91.75594674310238 l -3.8008415389220525 -1.6223532409573664 a25.132605285100457,25.132605285100457 0 0,0 0.17277603141950248,-0.39534537195334263 l 3.7724316254855728 1.687360682686576" fill="#ff2a04" stroke="none" /><path d="M 80.83023694016515 91.42560881287825 l -5.99777554324176 -2.6827287118670053 a27.570414355927987,27.570414355927987 0 0,0 0.19695192684631613,-0.4303755043228566 l 5.950839151540396 2.7852931984045335" fill="#ff4c07" stroke="none" /><line stroke="#e1ed5e" stroke-width="0.3" x1="26.387840678322718" x2="22.05771365940052" y1="57.49999999999999" y2="54.99999999999999" /><path d="M 25.521815274538284 56.99999999999999 a86.0,86.0 0 0,1 29.574782752854787,-30.34633250058573" fill="none" id="id107" stroke="none" /><text fill="#e1ed5e" style="font-size:6.75px; font-family:Arial;" text-anchor="middle"><textPath startOffset="21.40746469413373" xlink:href="#id107">November</textPath></text><line stroke="#e1ed5e" stroke-width="0.3" x1="56.869717070023135" x2="54.33264160355391" y1="26.7553504044142" y2="22.446841604673864" /><path d="M 56.362301976729285 25.89364864446614 a86.0,86.0 0 0,1 42.16139366436587,-11.88097634709845" fill="none" id="id108" stroke="none" /><text fill="#e1ed5e" style="font-size:6.75px; font-family:Arial;" text-anchor="middle"><textPath startOffset="22.145653131862474" xlink:href="#id108">December</textPath></text></svg>