<?xml version="1.0" encoding="utf-8" ?>
<svg baseProfile="full" height="200mm" version="1.1" viewBox="0,0,200,200" width="200mm" xmlns="http://www.w3.org/2000/svg" xmlns:ev="http://www.w3.org/2001/xml-events" xmlns:xlink="http://www.w3.org/1999/xlink"><defs /><rect fill="#1a1a1a" height="200" width="200" x="0" y="0" /><text alignment-baseline="middle" fill="#e1ed5e" style="dominant-baseline: central; font-size:9.0px; font-family:Arial;" text-anchor="middle" x="100.0" y="100.0">2024</text><line stroke="#e1ed5e" stroke-width="0.3" x1="100.0" x2="100.0" y1="15.0" y2="10.0" /><path d="M 100.0 14.0 a86.0,86.0 0 0,1 42.35913384403234,11.155469271406648" fill="none" id="id97" stroke="none" /><text fill="#e1ed5e" style="font-size:6.75px; font-family:Arial;" text-anchor="middle"><textPath startOffset="22.145653131862478" xlink:href="#id97">January</textPath></text><path d="M 101.80034050326958 79.07731436759882 l 0.917050566313061 -10.657517660208184 a31.6968997573514,31.6968997573514 0 0,0 0.5417157696311855,0.051301046603835374 l -1.0998658993292594 10.640204858099166" fill="#ff800b" stroke="none" /><path d="M 102.15924093988457 79.11130261209362 l 2.207183243113961 -21.352495681899242 a42.46626958076808,42.46626958076808 0 0,0 0.7244828468443519,0.08117981411551867 l -2.5734019915591095 21.311460107276755" fill="#f4ff19" stroke="none" /><path d="M 102.87502721639298 79.19773525538626 l 1.2392198276550759 -8.966377356245482 a30.051606966491928,30.051606966491928 0 0,0 0.5104120829091884,0.07501299918225404 l -1.3929570161719462 8.943783283764347" fill="#ff6909" stroke="none" /><path d="M 103.23170211078529 79.25015418208739 l 6.26095598522411 -40.1998287319151 a61.68446632222451,61.68446632222451 0 0,0 1.0448834468085944,0.17193517354757065 l -6.950116935085775 40.08642755987186" fill="#31ff3f" stroke="none" /><path d="M 103.58742460773223 79.30868818359171 l 2.0239516907169883 -11.673615507823886 a32.84777107606585,32.84777107606585 0 0,0 0.5547601657593755,0.10109578223479028 l -2.2240465900274176 11.63715155165773" fill="#ff8f0d" stroke="none" /><path d="M 103.94208987418118 79.37332000966035 l 1.4895128396514983 -7.7937605852721195 a28.934818999827776,28.934818999827776 0 0,0 0.4870742955697505,0.0974285004251804 l -1.6230836207522057 7.7670426881840795" fill="#ff5a08" stroke="none" /><path d="M 104.64783097203109 79.52079915486377 l 2.281626032303809 -10.053265286586354 a31.308926242522478,31.308926242522478 0 0,0 0.5231093104490789,0.12345237291317572 l -2.453867496492773 10.01261677002695" fill="#ff7b0b" stroke="none" /><path d="M 105.3480935250658 79.69241777938227 l 2.8865498717774454 -10.96070002895336 a32.334421700596664,32.334421700596664 0 0,0 0.5355482503565905,0.14596605711197588 l -3.0742795230687285 10.909533477697243" fill="#ff880c" stroke="none" /><path d="M 106.04205211174951 79.88797359093562 l 3.25215170636389 -10.825355325466623 a32.30330963230744,32.30330963230744 0 0,0 0.5297117743396744,0.1641060617482369 l -3.4375041135751947 10.767932675911739" fill="#ff880c" stroke="none" /><path d="M 107.06938296918511 80.22567764915836 l 6.4761836771968015 -18.115038355449318 a40.23786811578118,40.23786811578118 0 0,0 0.6484252897471885,0.2381107480212927 l -6.786198118598115 18.001196758419304" fill="#ffef16" stroke="none" /><path d="M 107.74402155503746 80.48000691201159 l 3.138796492586654 -7.911817574944407 a29.511692003419384,29.511692003419384 0 0,0 0.46929989939350847,0.19086018352244327 l -3.274150853170602 7.85677013484267" fill="#ff6209" stroke="none" /><path d="M 108.4095320186766 80.7573450057729 l 4.094359306148318 -9.368695353753314 a31.224296100919723,31.224296100919723 0 0,0 0.4893093977180877,0.2188618698350237 l -4.2545821067220375 9.297029733008436" fill="#ff790b" stroke="none" /><path d="M 109.06512990194946 81.05736502329252 l 8.71725081647319 -18.215701485021874 a41.1941140530782,41.1941140530782 0 0,0 0.6352519822294679,0.3107335773912133 l -9.028663047964724 18.06337415753344" fill="#fffb17" stroke="none" /><path d="M 110.02825361518725 81.54914285379988 l 7.267929179106652 -13.372171085632473 a36.21965026194541,36.21965026194541 0 0,0 0.5437359641919864,0.30160117358749916 l -7.496409331454738 13.245436996611827" fill="#ffbc11" stroke="none" /><line stroke="#e1ed5e" stroke-width="0.3" x1="143.13028292997686" x2="145.6673583964461" y1="26.7553504044142" y2="22.446841604673864" /><path d="M 143.63769802327073 25.89364864446614 a86.0,86.0 0 0,1 29.32050498858742,28.57503671076993" fill="none" id="id98" stroke="none" /><text fill="#e1ed5e" style="font-size:6.75px; font-family:Arial;" text-anchor="middle"><textPath startOffset="20.669276256404974" xlink:href="#id98">February</textPath></text><path d="M 110.65571695917076 81.90426304109057 l 5.958577869960753 -10.118967892741376 a32.743004787818016,32.743004787818016 0 0,0 0.4818947729427451,0.2893639651906823 l -6.131405399460932 10.015189927014772" fill="#ff8e0d" stroke="none" /><path d="M 111.27062007382361 82.28071324371311 l 6.264110484463644 -9.84822212267322 a32.6716133905762,32.6716133905762 0 0,0 0.47064916514255484,0.3050691026235085 l -6.4322452818632065 9.739239178345818" fill="#ff8d0d" stroke="none" /><path d="M 111.8722381534696 82.67804972795209 l 4.798440616337023 -7.001068262370894 a29.487637431163623,29.487637431163623 0 0,0 0.41508049401620584,0.28975842159901954 l -4.917916201526989 6.917665024966747" fill="#ff6109" stroke="none" /><path d="M 114.91283532996326 85.21462403516908 l 4.870756956248154 -4.829126805064903 a27.858916753120432,27.858916753120432 0 0,0 0.3337938647964701,0.3425019109156912 l -4.952937622195435 4.74480220208147" fill="#ff4b06" stroke="none" /><path d="M 115.16444852881244 85.47280134310134 l 7.670553890255573 -7.348217111916038 a31.622320448337575,31.622320448337575 0 0,0 0.37215581059662894,0.39521657419228706 l -7.795565534588462 7.215459077779257" fill="#ff7f0b" stroke="none" /><path d="M 115.6541949942343 86.00192230759917 l 3.515929059324271 -3.1439654451422165 a25.716595792565773,25.716595792565773 0 0,0 0.2914412033942726,0.33160659033887846 l -3.5693813266771337 3.08314657699204" fill="#ff2c04" stroke="none" /><path d="M 115.8921839302757 86.27271002978787 l 8.564085810567637 -7.397453349849414 a32.31661971765263,32.31661971765263 0 0,0 0.35903062234293387,0.4229371703503201 l -8.689810996417682 7.249349397049542" fill="#ff880c" stroke="none" /><path d="M 116.35404254752997 86.82634096563983 l 11.034583529809353 -8.888679394430842 a35.16935619755955,35.16935619755955 0 0,0 0.3746935997199236,0.4734131229719425 l -11.185543560170835 8.697946327544221" fill="#ffae10" stroke="none" /><path d="M 116.7966241395341 87.39550010848427 l 12.002342957692411 -9.006781913521154 a36.00594405266794,36.00594405266794 0 0,0 0.36674279599254445,0.49755703775724336 l -12.15518777326878 8.799418566495035" fill="#ffb911" stroke="none" /><path d="M 117.01052211995028 87.68569379921539 l 38.27766132081597 -27.710074907203087 a68.25492151674678,68.25492151674678 0 0,0 0.6789248836129009,0.9549928728940803 l -38.74770130295884 27.048904807599502" fill="#39ff8c" stroke="none" /><path d="M 117.42321728460499 88.27688183743584 l 6.030139350370772 -4.057346871498143 a28.26805642662093,28.26805642662093 0 0,0 0.26743676053235893,0.4049333415892601 l -6.098900549823855 3.953233651569824" fill="#ff5007" stroke="none" /><path d="M 117.81537515405839 88.88188828441811 l 16.421261356957086 -10.248081597980054 a40.3566784597035,40.3566784597035 0 0,0 0.36173427306137185,0.5908657496597383 l -16.59476359447386 9.964678732195761" fill="#fff016" stroke="none" /><line stroke="#e1ed5e" stroke-width="0.3" x1="172.87174338648825" x2="177.1583165268699" y1="56.24261187166439" y2="53.66864786411523" /><path d="M 173.72905801456457 55.72781907015455 a86.0,86.0 0 0,1 12.242430191666344,42.057860355516425" fill="none" id="id99" stroke="none" /><text fill="#e1ed5e" style="font-size:6.75px; font-family:Arial;" text-anchor="middle"><textPath startOffset="22.145653131862474" xlink:href="#id99">March</textPath></text><path d="M 118.00360718960297 89.18935116829356 l 14.846734998370662 -8.915037785176786 a38.317720370273165,38.317720370273165 0 0,0 0.3337770677913854,0.5668264317466453 l -14.997585776291816 8.658860185136584" fill="#ffd714" stroke="none" /><path d="M 118.18653347947321 89.5 l 15.989086319316986 -9.231303290553827 a39.46260658110765,39.46260658110765 0 0,0 0.3336782027663137,0.589577411860215 l -16.145197887104676 8.955469108594494" fill="#ffe515" stroke="none" /><path d="M 118.36410011445183 89.81374322990088 l 3.11258283661432 -1.7264972307031743 a24.55934890147226,24.55934890147226 0 0,0 0.20133362494322898,0.370431193216769 l -3.14176181117289 1.672811204011802" fill="#ff1b02" stroke="none" /><path d="M 118.70294669586156 90.45014215332178 l 10.426247325215451 -5.323716174208449 a32.706775268625044,32.706775268625044 0 0,0 0.2510324226838666,0.502233005321089 l -10.516099661111054 5.143951312723609" fill="#ff8d0d" stroke="none" /><path d="M 118.8641267826498 90.77261029715802 l 5.455257170710053 -2.668439648617221 a27.072923592216178,27.072923592216178 0 0,0 0.20062421231501368,0.41922744213025753 l -5.500260640984978 2.57439970442186" fill="#ff4006" stroke="none" /><path d="M 119.0197475246899 91.09779779509293 l 11.846514702262127 -5.544767046252441 a34.079921719495104,34.079921719495104 0 0,0 0.24345322354514354,0.5319892297576942 l -11.939952390662322 5.340588834280063" fill="#ffa00e" stroke="none" /><path d="M 119.31412917781788 91.75594674310238 l 1.5527595716756255 -0.662780728356796 a22.68829517007881,22.68829517007881 0 0,0 0.14982286531512695,0.35952033565727154 l -1.5639082815272358 0.6360278832582467" fill="#ff0000" stroke="none" /><path d="M 119.4528033332814 92.08871423366111 l 11.257307671521268 -4.5782490278217765 a33.15266802690021,33.15266802690021 0 0,0 0.209874267424015,0.5290202539271722 l -11.334240613911406 4.3843277566810395" fill="#ff930d" stroke="none" /><path d="M 119.58574465831526 92.42381321644754 l 33.73414309224047 -13.04909124001026 a57.17003168864893,57.17003168864893 0 0,0 0.3462035160072498,0.9183459576612593 l -33.953177292062165 12.468077002154843" fill="#4fff2b" stroke="none" /><path d="M 119.71291397450082 92.76114493625339 l 11.403809545845693 -4.1876368244557 a33.14838155193764,33.14838155193764 0 0,0 0.19156580706960194,0.5358436566395487 l -11.474015522959238 3.9912582114352335" fill="#ff930d" stroke="none" /><path d="M 119.83427380445688 93.10060997987247 l 5.426287220312459 -1.887544372093762 a26.745208155841627,26.745208155841627 0 0,0 0.14711721167054245,0.4349258952885672 l -5.457889853555367 1.794116802331033" fill="#ff3b05" stroke="none" /><path d="M 119.94978838288452 93.4421083053983 l 49.526284882184335 -16.280273557788636 a73.13348445430933,73.13348445430933 0 0,0 0.38181001687370225,1.1960144397933037 l -49.798459614835295 15.427690084303947" fill="#3fffc1" stroke="none" /><path d="M 120.16314734710363 94.1308016681162 l 30.343312271992225 -8.832495974205541 a52.60268318940642,52.60268318940642 0 0,0 0.24493188967539017,0.8691768689602002 l -30.4904626537422 8.310311181342326" fill="#7fff26" stroke="none" /><path d="M 120.26092885502905 94.47779374421319 l 19.43396619327998 -5.296813904987488 a41.142871680711714,41.142871680711714 0 0,0 0.17987373381859534,0.6830098654278279 l -19.522029407903304 4.962423535186861" fill="#fffa17" stroke="none" /><path d="M 120.35273937422433 94.82641323984039 l 61.058218122672976 -15.520760280478832 a84.0,84.0 0 0,0 0.3432498939348352,1.4005767015676203 l -61.3156555431241 14.470327754303117" fill="#4dd2ff" stroke="none" /><path d="M 120.43855184770803 95.1765574152323 l 6.448936133698274 -1.5219313680100908 a27.62608876679541,27.62608876679541 0 0,0 0.10496484863019219,0.46249449037895296 l -6.474111843886132 1.4110025436921116" fill="#ff4706" stroke="none" /><path d="M 120.592083275326 95.88100663000786 l 10.872548333998907 -2.174814170274938 a32.08792694557333,32.08792694557333 0 0,0 0.10340518997077291,0.5410596488012336 l -10.908279816251838 1.9878519564403903" fill="#ff850c" stroke="none" /><line stroke="#e1ed5e" stroke-width="0.3" x1="184.99686870605535" x2="189.99668451229388" y1="99.2704041080226" y2="99.22748670261217" /><path d="M 185.99683186730306 99.26182062694052 a86.0,86.0 0 0,1 -10.086455211305974,41.156179273409016" fill="none" id="id100" stroke="none" /><text fill="#e1ed5e" style="font-size:6.75px; font-family:Arial;" text-anchor="middle"><textPath startOffset="21.40746469413373" xlink:href="#id100">April</textPath></text><line stroke="#e1ed5e" stroke-width="0.3" x1="174.33088141563837" x2="178.70328620479359" y1="141.23008692659167" y2="143.65538615756765" /><path d="M 175.20536237346943 141.71514677278685 a86.0,86.0 0 0,1 -30.301960400862466,31.631185727798858" fill="none" id="id101" stroke="none" /><text fill="#e1ed5e" style="font-size:6.75px; font-family:Arial;" text-anchor="middle"><textPath startOffset="22.145653131862474" xlink:href="#id101">May</textPath></text><line stroke="#e1ed5e" stroke-width="0.3" x1="143.1302829299769" x2="145.66735839644613" y1="173.24464959558577" y2="177.55315839532614" /><path d="M 143.63769802327073 174.10635135553383 a86.0,86.0 0 0,1 -40.68552437913181,11.842963189579606" fill="none" id="id102" stroke="none" /><text fill="#e1ed5e" style="font-size:6.75px; font-family:Arial;" text-anchor="middle"><textPath startOffset="21.407464694133747" xlink:href="#id102">June</textPath></text><line stroke="#e1ed5e" stroke-width="0.3" x1="101.45913802915013" x2="101.54496967792366" y1="184.9874750549273" y2="189.98673829345242" /><path d="M 101.47630435890484 185.9873277026323 a86.0,86.0 0 0,1 -42.54439059252881,-10.42667462771756" fill="none" id="id103" stroke="none" /><text fill="#e1ed5e" style="font-size:6.75px; font-family:Arial;" text-anchor="middle"><textPath startOffset="22.145653131862474" xlink:href="#id103">July</textPath></text><line stroke="#e1ed5e" stroke-width="0.3" x1="58.13341422392154" x2="55.67067388415222" y1="173.97424548756322" y2="178.32567169271397" /><path d="M 57.64086615596768 174.84453072859336 a86.0,86.0 0 0,1 -31.369924170532247,-30.572349798747897" fill="none" id="id104" stroke="none" /><text fill="#e1ed5e" style="font-size:6.75px; font-family:Arial;" text-anchor="middle"><textPath startOffset="22.145653131862474" xlink:href="#id104">August</textPath></text><line stroke="#e1ed5e" stroke-width="0.3" x1="26.387840678322732" x2="22.057713659400548" y1="142.50000000000003" y2="145.00000000000006" /><path d="M 25.521815274538298 143.00000000000003 a86.0,86.0 0 0,1 -11.493303480769221,-40.785679425670985" fill="none" id="id105" stroke="none" /><text fill="#e1ed5e" style="font-size:6.75px; font-family:Arial;" text-anchor="middle"><textPath startOffset="21.40746469413373" xlink:href="#id105">September</textPath></text><line stroke="#e1ed5e" stroke-width="0.3" x1="15.003131293944662" x2="10.003315487706104" y1="100.72959589197737" y2="100.7725132973878" /><path d="M 14.003168132696942 100.73817937305945 a86.0,86.0 0 0,1 10.791469493833604,-42.45332614584628" fill="none" id="id106" stroke="none" /><text fill="#e1ed5e" style="font-size:6.75px; font-family:Arial;" text-anchor="middle"><textPath startOffset="22.145653131862435" xlink:href="#id106">October</textPath></text><line stroke="#e1ed5e" stroke-width="0.3" x1="26.387840678322718" x2="22.05771365940052" y1="57.49999999999999" y2="54.99999999999999" /><path d="M 25.521815274538284 56.99999999999999 a86.0,86.0 0 0,1 29.574782752854787,-30.34633250058573" fill="none" id="id107" stroke="none" /><text fill="#e1ed5e" style="font-size:6.75px; font-family:Arial;" text-anchor="middle"><textPath startOffset="21.40746469413373" xlink:href="#id107">November</textPath></text><line stroke="#e1ed5e" stroke-width="0.3" x1="56.869717070023135" x2="54.33264160355391" y1="26.7553504044142" y2="22.446841604673864" /><path d="M 56.362301976729285 25.89364864446614 a86.0,86.0 0 0,1 42.16139366436587,-11.88097634709845" fill="none" id="id108" stroke="none" /><text fill="#e1ed5e" style="font-size:6.75px; font-family:Arial;" text-anchor="middle"><textPath startOffset="22.145653131862474" xlink:href="#id108">December</textPath></text></svg>