<?xml version="1.0" encoding="utf-8" ?>
<svg baseProfile="full" height="200mm" version="1.1" viewBox="0,0,200,200" width="200mm" xmlns="http://www.w3.org/2000/svg" xmlns:ev="http://www.w3.org/2001/xml-events" xmlns:xlink="http://www.w3.org/1999/xlink"><defs /><rect fill="#1a1a1a" height="200" width="200" x="0" y="0" /><text alignment-baseline="middle" fill="#e1ed5e" style="dominant-baseline: central; font-size:9.0px; font-family:Arial;" text-anchor="middle" x="100.0" y="100.0">2023</text><line stroke="#e1ed5e" stroke-width="0.3" x1="100.0" x2="100.0" y1="15.0" y2="10.0" /><path d="M 100.0 14.0 a86.0,86.0 0 0,1 42.46469731375804,11.215312516191453" fill="none" id="id85" stroke="none" /><text fill="#e1ed5e" style="font-size:6.75px; font-family:Arial;" text-anchor="middle"><textPath startOffset="22.20632615414155" xlink:href="#id85">January</textPath></text><path d="M 100.0 79.0 l 0.0 -31.99218540233607 a52.99218540233607,52.99218540233607 0 0,0 0.9121733608064345,0.007851364099868724 l -0.5506928815339062 31.98744541484476" fill="#7bff26" stroke="none" /><path d="M 101.44485096284872 79.0497635885617 l 0.897394457765896 -13.012155944058101 a34.04306402366083,34.04306402366083 0 0,0 0.584259726585395,0.04534979954110609 l -1.1212443737136322 12.99478088232853" fill="#ff9f0e" stroke="none" /><path d="M 101.80526077348638 79.07773832637324 l 0.14514134289412156 -1.6821310252190649 a22.68838111675701,22.68838111675701 0 0,0 0.38880848909147775,0.036922050976061126 l -0.1740749590758435 1.6793834297278256" fill="#ff0000" stroke="none" /><path d="M 102.52436894288641 79.15227682838746 l 2.735572892683397 -22.591969586355788 a43.756986813767966,43.756986813767966 0 0,0 0.7469635856005813,0.09697731140940573 l -3.1240512067918242 22.541533951782245" fill="#e4ff1a" stroke="none" /><path d="M 102.88285421437855 79.19881850522331 l 0.7343807689139767 -5.298910914142856 a26.349558111636227,26.349558111636227 0 0,0 0.44873425393899274,0.06613176440020534 l -0.8254840032816253 5.285484665581682" fill="#ff3505" stroke="none" /><path d="M 103.95276090670814 79.375362276772 l 2.8752159315399592 -15.00224485205473 a36.27528124958699,36.27528124958699 0 0,0 0.6122465800419514,0.12281090423963133 l -3.133028921049036 14.950529991737891" fill="#ffbd11" stroke="none" /><path d="M 104.66035177308747 79.52364482259891 l 3.2598134137613832 -14.322759422946577 a35.68903744226093,35.68903744226093 0 0,0 0.5978360955854762,0.14148848851551524 l -3.505873196309383 14.264525022290194" fill="#ffb510" stroke="none" /><path d="M 105.01212808612495 79.60689891045804 l 7.74898144909444 -31.528675907112223 a53.466969645381575,53.466969645381575 0 0,0 0.8918573436059402,0.22735429491726974 l -8.290547681385405 31.39061861602609" fill="#76ff27" stroke="none" /><path d="M 106.0581310904928 79.89281104454417 l 5.080485730583801 -16.862343360423377 a38.611074892336354,38.611074892336354 0 0,0 0.6347194203903066,0.19721041357109018 l -5.369990523684826 16.772392811969766" fill="#ffdb14" stroke="none" /><path d="M 106.74666289553966 80.11325718540242 l 8.228352018298843 -24.254231004200065 a46.61197959046005,46.61197959046005 0 0,0 0.7575955933552103,0.26431022674221244 l -8.644629615717328 24.108999924285644" fill="#c2ff1e" stroke="none" /><path d="M 107.4271985657038 80.35727306442388 l 3.480361099728814 -9.204517977323839 a30.840531722390985,30.840531722390985 0 0,0 0.49494182813369414,0.19202973993322203 l -3.638286092862175 9.14324553350007" fill="#ff740a" stroke="none" /><path d="M 107.76421540070413 80.48803036053334 l 3.7253030493358863 -9.361924707789832 a31.075887903491036,31.075887903491036 0 0,0 0.49531433086483606,0.20205115216195685 l -3.88590124978911 9.296412669444296" fill="#ff770b" stroke="none" /><path d="M 108.09893153111575 80.62456947434976 l 8.732432839138482 -20.890983600070673 a43.64262747713891,43.64262747713891 0 0,0 0.690626379207616,0.2956901732567333 l -9.090742976136415 20.737573898851146" fill="#e5ff1a" stroke="none" /><path d="M 108.76106565485865 80.91482961587045 l 5.864044485860342 -12.774277988739222 a35.055930985378964,35.055930985378964 0 0,0 0.5462411638854072,0.2564675507385503 l -6.083063861045347 12.671445455360669" fill="#ffad10" stroke="none" /><path d="M 109.41281617654863 81.2277094730956 l 7.10711112744809 -14.173946711489934 a36.855970293805825,36.855970293805825 0 0,0 0.5646677100843998,0.2892447329180779 l -7.350039325121245 14.049509453259356" fill="#ffc412" stroke="none" /><path d="M 110.05341064243156 81.56283822128135 l 9.612533498398086 -17.628627887267207 a41.07907670799533,41.07907670799533 0 0,0 0.6178995607246557,0.343860436557611 l -9.914557148194776 17.460552053149417" fill="#fff917" stroke="none" /><line stroke="#e1ed5e" stroke-width="0.3" x1="143.23703022742887" x2="145.7803849466894" y1="26.81831364943548" y2="22.513508569990506" /><path d="M 143.74570117128098 25.957352633546492 a86.0,86.0 0 0,1 28.547481713284135,27.462654790039103" fill="none" id="id86" stroke="none" /><text fill="#e1ed5e" style="font-size:6.75px; font-family:Arial;" text-anchor="middle"><textPath startOffset="19.985693538727396" xlink:href="#id86">February</textPath></text><path d="M 110.99172775467656 82.1063720568725 l 10.940550316712644 -17.81031528706038 a41.90222408876667,41.90222408876667 0 0,0 0.6113351873239858,0.3828180382182821 l -11.245504656408892 17.619352907519154" fill="#fbff18" stroke="none" /><path d="M 111.2981086023043 82.29822771554956 l 8.817337795346694 -13.814923479888643 a37.38894616967265,37.38894616967265 0 0,0 0.5395277885993975,0.3509238816468559 l -9.053832609730371 13.66110067408226" fill="#ffcb12" stroke="none" /><path d="M 112.48926042617603 83.11751280151076 l 10.018479042751995 -13.542582860479257 a37.84551788645892,37.84551788645892 0 0,0 0.5203828025105204,0.39194153818402583 l -10.250107999020898 13.368124732789385" fill="#ffd113" stroke="none" /><path d="M 112.77801427241765 83.33499621200491 l 11.997736728042844 -15.647370847894038 a40.717654552379,40.717654552379 0 0,0 0.552533617985354,0.43126125298059337 l -12.265302901187628 15.438531205690222" fill="#fff517" stroke="none" /><path d="M 113.06298171725822 83.55741782278167 l 6.128529185100901 -7.714076841918195 a30.852200337774914,30.852200337774914 0 0,0 0.41297374579790413,0.3339293820362761 l -6.260406329463296 7.60744136261779" fill="#ff740a" stroke="none" /><path d="M 113.34407831869373 83.78471172551755 l 9.98075233804297 -12.128284358977318 a36.707027049240224,36.707027049240224 0 0,0 0.484432185111178,0.405698023506782 l -10.188042060113265 11.954685178076716" fill="#ffc212" stroke="none" /><path d="M 113.6212207817346 84.01681056812373 l 13.440832240248707 -15.771520868822416 a41.721892814755364,41.721892814755364 0 0,0 0.5425956028526048,0.4705335599679218 l -13.710321641748076 15.537822315434822" fill="#fdff18" stroke="none" /><path d="M 113.89432698308785 84.25364557470407 l 23.98430089149696 -27.18125915275682 a57.25006949487391,57.25006949487391 0 0,0 0.7333161739755748,0.6583785014780313 l -24.448628053068525 26.76438164250949" fill="#4fff2b" stroke="none" /><path d="M 114.42810811169701 84.74124197986012 l 12.49999859315842 -13.21964406618654 a39.19365147697469,39.19365147697469 0 0,0 0.4862191882746095,0.46774247388921636 l -12.725701025045447 13.002518505535022" fill="#ffe215" stroke="none" /><path d="M 114.94478906791727 85.2469230424477 l 5.086579545926336 -5.021328782275061 a28.147519445006086,28.147519445006086 0 0,0 0.3374160253533173,0.34773687383256924 l -5.1722598349827615 4.933027712892377" fill="#ff4f07" stroke="none" /><path d="M 115.4437574822437 85.77008943001954 l 7.452241090764798 -6.866510587817804 a31.13335408083115,31.13335408083115 0 0,0 0.35974792174601794,0.3972426404242342 l -7.569332653126851 6.7372151601240216" fill="#ff780b" stroke="none" /><path d="M 115.68641384162765 86.03803664274999 l 8.806084764938726 -7.838007721218868 a32.78904126403723,32.78904126403723 0 0,0 0.3716218383963113,0.4248280026173411 l -8.939698466912885 7.685264162398579" fill="#ff8f0d" stroke="none" /><path d="M 116.82858285166822 87.43820079747576 l 6.49403844637672 -4.8475149509556115 a29.103760641995613,29.103760641995613 0 0,0 0.2962172269356612,0.4040399646446267 l -6.576518285826007 4.735012542639492" fill="#ff5c08" stroke="none" /><path d="M 117.2510076193507 88.02491185347247 l 18.41387314423719 -12.782311554594049 a43.41557969026829,43.41557969026829 0 0,0 0.4208738016070502,0.617580370758959 l -18.631171411512973 12.463453160564683" fill="#e8ff1a" stroke="none" /><line stroke="#e1ed5e" stroke-width="0.3" x1="172.23445277983987" x2="176.4835382374775" y1="55.19839476539836" y2="52.563006222186495" /><path d="M 173.08426987136738 54.67131705675599 a86.0,86.0 0 0,1 12.851231095245387,41.99856678651699" fill="none" id="id87" stroke="none" /><text fill="#e1ed5e" style="font-size:6.75px; font-family:Arial;" text-anchor="middle"><textPath startOffset="22.20632615414155" xlink:href="#id87">March</textPath></text><path d="M 118.3937258080291 89.86733742301442 l 30.765155231993102 -16.947786454351373 a56.124382445118215,56.124382445118215 0 0,0 0.45886199534248434,0.8502015883101915 l -31.05232532655405 16.415703882708726" fill="#5aff2a" stroke="none" /><path d="M 118.56541770881063 90.18545643968196 l 19.902499840079138 -10.521387382896295 a43.51242084595345,43.51242084595345 0 0,0 0.344350184998313,0.6651749529542219 l -20.080659458237566 10.177239707681728" fill="#e7ff1a" stroke="none" /><path d="M 119.04729006885535 91.15688171328212 l 14.199023614002396 -6.592205238677785 a36.654693912684735,36.654693912684735 0 0,0 0.26076792109394326,0.5745675480326967 l -14.310393852059686 6.346815681803025" fill="#ffc112" stroke="none" /><path d="M 119.196687751892 91.48605970444005 l 3.3994004080250866 -1.5076711403911425 a24.7187357262448,24.7187357262448 0 0,0 0.16915771260976228,0.39043932310157636 l -3.4248488304775293 1.4489326727029634" fill="#ff1e03" stroke="none" /><path d="M 119.47837535516314 92.15188598940014 l 17.978637780715154 -7.243848446576395 a40.383104931024995,40.383104931024995 0 0,0 0.2542336641755054,0.6469969447353008 l -18.10066499477236 6.93330249694531" fill="#fff116" stroke="none" /><path d="M 119.61058180528143 92.48833698450437 l 30.93352916131761 -11.848819644771911 a54.125183068904235,54.125183068904235 0 0,0 0.32577022792471505,0.8729022480709301 l -31.13290397774395 11.314594259671647" fill="#6fff27" stroke="none" /><path d="M 120.18372546131832 94.20196356495316 l 11.375310235939699 -3.2677051287850722 a32.83535296358173,32.83535296358173 0 0,0 0.15137602666655653,0.5445801088316445 l -11.429873033172619 3.0714137165344755" fill="#ff8f0d" stroke="none" /><path d="M 120.28053869075195 94.5502522615342 l 26.48168367106488 -7.116107609260032 a48.42113341131093,48.42113341131093 0 0,0 0.20937221565449887,0.8067965552187467 l -26.60025221858968 6.6592146284924345" fill="#aeff20" stroke="none" /><path d="M 120.37134235888165 94.90015583598534 l 51.25097319956997 -12.830375729164608 a73.83257324089539,73.83257324089539 0 0,0 0.29802764205565035,1.2355169819732943 l -51.46423364188644 11.946273515531908" fill="#40ffc8" stroke="none" /><path d="M 120.73433829027371 96.67025291283417 l 7.314923258126281 -1.174710476437685 a28.408646770883955,28.408646770883955 0 0,0 0.0733810315564342,0.48348931293589215 l -7.3340601831220145 1.0486220511097106" fill="#ff5207" stroke="none" /><path d="M 120.94382443527127 98.46500227214037 l 18.22771491192258 -1.3359308401551695 a39.2766053226523,39.2766053226523 0 0,0 0.043614629689384746,0.6746990170027527 l -18.24801013261638 1.0219727588993817" fill="#ffe315" stroke="none" /><line stroke="#e1ed5e" stroke-width="0.3" x1="184.98032266829074" x2="189.97916517819016" y1="98.17113171792111" y2="98.06355123074" /><path d="M 185.9800911702706 98.14961562048488 a86.0,86.0 0 0,1 -9.607161424134198,41.387399972396054" fill="none" id="id88" stroke="none" /><text fill="#e1ed5e" style="font-size:6.75px; font-family:Arial;" text-anchor="middle"><textPath startOffset="21.466115282336823" xlink:href="#id88">April</textPath></text><path d="M 120.99980553446 99.90962569577887 l 31.44986613456493 -0.13534695667038113 a52.45015737131905,52.45015737131905 0 0,0 -0.00388556438040736,0.9028683217360465 l -31.44753627289502 -0.4060308432693501" fill="#81ff25" stroke="none" /><path d="M 120.92983693683757 101.71520430193887 l 14.785335283715657 1.2116611687309904 a35.83490014255902,35.83490014255902 0 0,0 -0.05567276592960374,0.6143443328964158 l -14.762287921508978 -1.4659868901759767" fill="#ffb711" stroke="none" /><path d="M 120.8583938346157 102.4346265915055 l 62.575181503847105 7.303879774516526 a84.0,84.0 0 0,0 -0.1799939630126075,1.4347289828504204 l -62.44018603158764 -8.379926511654341" fill="#4dd2ff" stroke="none" /><path d="M 120.49622156327973 104.57218783832717 l 3.6670143303333336 0.8180180074828693 a24.757146198837127,24.757146198837127 0 0,0 -0.09636357711750057,0.4151317681530662 l -3.65239018728528 -0.8810184329845004" fill="#ff1e03" stroke="none" /><path d="M 120.41448212921028 104.9243191809786 l 8.561016315008244 2.0650622720595386 a29.806559063182455,29.806559063182455 0 0,0 -0.12460374502587761,0.497730022229301 l -8.524201255687306 -2.2121201336862355" fill="#ff6609" stroke="none" /><path d="M 119.9155931802556 106.66101706037122 l 14.221564945141408 4.756578720370731 a35.99593113520993,35.99593113520993 0 0,0 -0.20159293096365366,0.5859234209396429 l -14.137581183234522 -5.000674844399675" fill="#ffb911" stroke="none" /><path d="M 118.64920377521936 109.65438752849418 l 21.03592857352863 10.889955888649217 a44.687579661234366,44.687579661234366 0 0,0 -0.3595168808221823,0.6800704510415597 l -20.845359184481556 -11.25044135477691" fill="#d9ff1c" stroke="none" /><line stroke="#e1ed5e" stroke-width="0.3" x1="174.80103733775053" x2="179.2010983576182" y1="140.37084112569926" y2="142.7455964860345" /><path d="M 175.68104954172406 140.8457921977663 a86.0,86.0 0 0,1 -30.038265399797805,32.042727171017184" fill="none" id="id89" stroke="none" /><text fill="#e1ed5e" style="font-size:6.75px; font-family:Arial;" text-anchor="middle"><textPath startOffset="22.206326154141568" xlink:href="#id89">May</textPath></text><path d="M 118.48025628344425 109.97397251340804 l 17.846059110581574 9.631690183921084 a41.27933138881589,41.27933138881589 0 0,0 -0.34286139029896534,0.6223930142155233 l -17.6776213108311 -9.937453716534412" fill="#fffc17" stroke="none" /><line stroke="#e1ed5e" stroke-width="0.3" x1="143.8653032363475" x2="146.44561519142675" y1="172.8068346515853" y2="177.08958963109032" /><path d="M 144.38136562736335 173.6633856474863 a86.0,86.0 0 0,1 -40.68145358897372,12.25698825130547" fill="none" id="id90" stroke="none" /><text fill="#e1ed5e" style="font-size:6.75px; font-family:Arial;" text-anchor="middle"><textPath startOffset="21.466115282336833" xlink:href="#id90">June</textPath></text><line stroke="#e1ed5e" stroke-width="0.3" x1="102.19456741930631" x2="102.32365962044197" y1="184.97166512339345" y2="189.96999836594603" /><path d="M 102.22038585953345 185.97133177190398 a86.0,86.0 0 0,1 -42.740103519485714,-10.115201625700543" fill="none" id="id91" stroke="none" /><text fill="#e1ed5e" style="font-size:6.75px; font-family:Arial;" text-anchor="middle"><textPath startOffset="22.20632615414155" xlink:href="#id91">July</textPath></text><line stroke="#e1ed5e" stroke-width="0.3" x1="58.666819895761336" x2="56.23545636021788" y1="174.27360380694188" y2="178.64263932499728" /><path d="M 58.180547188652646 175.14741091055294 a86.0,86.0 0 0,1 -31.652253787137756,-30.449443065178592" fill="none" id="id92" stroke="none" /><text fill="#e1ed5e" style="font-size:6.75px; font-family:Arial;" text-anchor="middle"><textPath startOffset="22.20632615414155" xlink:href="#id92">August</textPath></text><line stroke="#e1ed5e" stroke-width="0.3" x1="26.63291911575756" x2="22.317208475507996" y1="142.92168965132927" y2="145.44649492493687" /><path d="M 25.769776987707644 143.4266507060508 a86.0,86.0 0 0,1 -11.730757126820373,-40.83630448921669" fill="none" id="id93" stroke="none" /><text fill="#e1ed5e" style="font-size:6.75px; font-family:Arial;" text-anchor="middle"><textPath startOffset="21.46611528233685" xlink:href="#id93">September</textPath></text><line stroke="#e1ed5e" stroke-width="0.3" x1="15.007084014347285" x2="10.007500721073583" y1="101.09737516637583" y2="101.16192664675087" /><path d="M 14.007167355692545 101.11028546245083 a86.0,86.0 0 0,1 10.666146001902534,-42.60595125391555" fill="none" id="id94" stroke="none" /><text fill="#e1ed5e" style="font-size:6.75px; font-family:Arial;" text-anchor="middle"><textPath startOffset="22.20632615414155" xlink:href="#id94">October</textPath></text><line stroke="#e1ed5e" stroke-width="0.3" x1="26.266209847984243" x2="21.928928074336255" y1="57.711370442889674" y2="55.22380399835377" /><path d="M 25.398753493254645 57.213857153982495 a86.0,86.0 0 0,1 29.58750427330803,-30.492523968695096" fill="none" id="id95" stroke="none" /><text fill="#e1ed5e" style="font-size:6.75px; font-family:Arial;" text-anchor="middle"><textPath startOffset="21.46611528233685" xlink:href="#id95">November</textPath></text><line stroke="#e1ed5e" stroke-width="0.3" x1="56.762969772571076" x2="54.21961505331055" y1="26.818313649435495" y2="22.513508569990535" /><path d="M 56.25429882871897 25.957352633546506 a86.0,86.0 0 0,1 42.265352541879196,-11.944610805530505" fill="none" id="id96" stroke="none" /><text fill="#e1ed5e" style="font-size:6.75px; font-family:Arial;" text-anchor="middle"><textPath startOffset="22.20632615414155" xlink:href="#id96">December</textPath></text></svg>