<?xml version="1.0" encoding="utf-8" ?>
<svg baseProfile="full" height="200mm" version="1.1" viewBox="0,0,200,200" width="200mm" xmlns="http://www.w3.org/2000/svg" xmlns:ev="http://www.w3.org/2001/xml-events" xmlns:xlink="http://www.w3.org/1999/xlink"><defs /><rect fill="#1a1a1a" height="200" width="200" x="0" y="0" /><text alignment-baseline="middle" fill="#e1ed5e" style="dominant-baseline: central; font-size:9.0px; font-family:Arial;" text-anchor="middle" x="100.0" y="100.0">2023</text><line stroke="#e1ed5e" stroke-width="0.3" x1="100.0" x2="100.0" y1="15.0" y2="10.0" /><path d="M 100.0 14.0 a86.0,86.0 0 0,1 42.46469731375804,11.215312516191453" fill="none" id="id85" stroke="none" /><text fill="#e1ed5e" style="font-size:6.75px; font-family:Arial;" text-anchor="middle"><textPath startOffset="22.20632615414155" xlink:href="#id85">January</textPath></text><path d="M 100.0 79.0 l 0.0 -62.078712684350506 a83.0787126843505,83.0787126843505 0 0,0 1.4300634704039858,0.012309007776917675 l -1.0685829911314575 62.06951505318215" fill="#4cdbff" stroke="none" /><path d="M 101.44485096284872 79.0497635885617 l 1.7413343917452329 -25.24922508720404 a46.309200164528484,46.309200164528484 0 0,0 0.7947757172418642,0.061689892041171424 l -2.1757002983494385 25.215509932974403" fill="#d2ff1c" stroke="none" /><path d="M 101.80526077348638 79.07773832637324 l 0.2816371439097454 -3.2640636236242035 a24.276191511480427,24.276191511480427 0 0,0 0.4160186349965196,0.039505982197623635 l -0.33778090599650923 3.2587320969114018" fill="#ff0000" stroke="none" /><path d="M 102.52436894288641 79.15227682838746 l 5.308197658156541 -43.83821771746036 a65.15842269625936,65.15842269625936 0 0,0 1.112301659536622,0.14440867867923257 l -6.062014046201009 43.74035071561699" fill="#35ff63" stroke="none" /><path d="M 102.88285421437855 79.19881850522331 l 1.4250171465621178 -10.28218497867994 a31.380462504329344,31.380462504329344 0 0,0 0.5344108000020782,0.07875826016943095 l -1.6017969269928518 10.25613223434954" fill="#ff6809" stroke="none" /><path d="M 103.95276090670814 79.375362276772 l 5.579165707963888 -29.110860545431102 a50.64066955540069,50.64066955540069 0 0,0 0.8547025875004524,0.17144529842811174 l -6.079434704931466 29.010511290925784" fill="#9fff22" stroke="none" /><path d="M 104.66035177308747 79.52364482259891 l 6.325451599274243 -27.79236416275738 a49.503102352026204,49.503102352026204 0 0,0 0.829238991872029,0.19625407773881723 l -6.802914278108796 27.679364172877694" fill="#acff21" stroke="none" /><path d="M 105.01212808612495 79.60689891045804 l 15.036384258374856 -61.17930326862588 a84.0,84.0 0 0,0 1.4011644452598997,0.3571880153245286 l -16.08725759231978 60.91141225713248" fill="#4dd2ff" stroke="none" /><path d="M 106.0581310904928 79.89281104454417 l 9.858345405275895 -32.72025825969836 a55.17312210950418,55.17312210950418 0 0,0 0.9069794659723103,0.28180293502741144 l -10.420110243958922 32.54571518978843" fill="#6cff28" stroke="none" /><path d="M 106.74666289553966 80.11325718540242 l 15.966571035574535 -47.06372568657525 a70.6983467143048,70.6983467143048 0 0,0 1.1490770484079218,0.40089041947023263 l -16.77433008804573 46.78191441393282" fill="#3cffa3" stroke="none" /><path d="M 107.4271985657038 80.35727306442388 l 6.753409747746674 -17.860756298020885 a40.094898762712845,40.094898762712845 0 0,0 0.6434598038413452,0.24965240714259962 l -7.059852716587686 17.741861186987737" fill="#ffdf14" stroke="none" /><path d="M 107.76421540070413 80.48803036053334 l 7.228703345941804 -18.166193612549193 a40.5515918132579,40.5515918132579 0 0,0 0.646346280655472,0.263660876667974 l -7.540333496185664 18.03907184969764" fill="#ffe415" stroke="none" /><path d="M 108.09893153111575 80.62456947434976 l 16.94470641623254 -40.53756729315425 a64.93651599272889,64.93651599272889 0 0,0 1.027593284613941,0.43996181656653566 l -17.639983458636795 40.239885948624924" fill="#34ff60" stroke="none" /><path d="M 108.76106565485865 80.91482961587045 l 11.37878917078896 -24.78763870113918 a48.274601287121996,48.274601287121996 0 0,0 0.7522143515224186,0.353174724133044 l -11.803781733610975 24.58809899436613" fill="#baff1f" stroke="none" /><path d="M 109.41281617654863 81.2277094730956 l 13.79087749548938 -27.503602971794102 a51.7674581095949,51.7674581095949 0 0,0 0.7931255586166944,0.4062697162872976 l -14.26226354169483 27.262140730194304" fill="#92ff23" stroke="none" /><path d="M 110.05341064243156 81.56283822128135 l 18.65248333964006 -34.20718253130278 a59.96211584944298,59.96211584944298 0 0,0 0.9019327602433792,0.5019246045735605 l -19.238540188955476 33.88104252916904" fill="#3aff2e" stroke="none" /><line stroke="#e1ed5e" stroke-width="0.3" x1="143.23703022742887" x2="145.7803849466894" y1="26.81831364943548" y2="22.513508569990506" /><path d="M 143.74570117128098 25.957352633546492 a86.0,86.0 0 0,1 28.547481713284135,27.462654790039103" fill="none" id="id86" stroke="none" /><text fill="#e1ed5e" style="font-size:6.75px; font-family:Arial;" text-anchor="middle"><textPath startOffset="19.985693538727396" xlink:href="#id86">February</textPath></text><path d="M 110.99172775467656 82.1063720568725 l 21.229411844752896 -34.55973487332887 a61.55937871551928,61.55937871551928 0 0,0 0.8981245062046502,0.5624054833912514 l -21.82115550332981 34.18918504861468" fill="#30ff36" stroke="none" /><path d="M 111.2981086023043 82.29822771554956 l 17.109458849229565 -26.80694221663493 a52.80166242697831,52.80166242697831 0 0,0 0.7619354670848411,0.4955840224058501 l -17.568361342098687 26.508459270069554" fill="#86ff25" stroke="none" /><path d="M 112.48926042617603 83.11751280151076 l 19.44019372880274 -26.278483317939056 a53.6876095440548,53.6876095440548 0 0,0 0.7382144643506653,0.5560078297580694 l -19.88965434691179 25.939958898675137" fill="#7cff26" stroke="none" /><path d="M 112.77801427241765 83.33499621200491 l 23.28081191815879 -30.362684728032576 a59.260800141431794,59.260800141431794 0 0,0 0.8041618474053089,0.6276610773037071 l -23.80000632072353 29.957445261505647" fill="#41ff2d" stroke="none" /><path d="M 113.06298171725822 83.55741782278167 l 11.892004177737578 -14.968654184514506 a40.11754093650414,40.11754093650414 0 0,0 0.536995448342915,0.4342129736963843 l -12.147903024644984 14.761735113553993" fill="#ffdf14" stroke="none" /><path d="M 113.34407831869373 83.78471172551755 l 19.36698756196214 -23.53413093248947 a51.47844362779625,51.47844362779625 0 0,0 0.6793744124056516,0.5689565326275726 l -19.76921951132691 23.19727324246808" fill="#95ff23" stroke="none" /><line stroke="#e1ed5e" stroke-width="0.3" x1="172.23445277983987" x2="176.4835382374775" y1="55.19839476539836" y2="52.563006222186495" /><path d="M 173.08426987136738 54.67131705675599 a86.0,86.0 0 0,1 12.851231095245387,41.99856678651699" fill="none" id="id87" stroke="none" /><text fill="#e1ed5e" style="font-size:6.75px; font-family:Arial;" text-anchor="middle"><textPath startOffset="22.20632615414155" xlink:href="#id87">March</textPath></text><line stroke="#e1ed5e" stroke-width="0.3" x1="184.98032266829074" x2="189.97916517819016" y1="98.17113171792111" y2="98.06355123074" /><path d="M 185.9800911702706 98.14961562048488 a86.0,86.0 0 0,1 -9.607161424134198,41.387399972396054" fill="none" id="id88" stroke="none" /><text fill="#e1ed5e" style="font-size:6.75px; font-family:Arial;" text-anchor="middle"><textPath startOffset="21.466115282336823" xlink:href="#id88">April</textPath></text><line stroke="#e1ed5e" stroke-width="0.3" x1="174.80103733775053" x2="179.2010983576182" y1="140.37084112569926" y2="142.7455964860345" /><path d="M 175.68104954172406 140.8457921977663 a86.0,86.0 0 0,1 -30.038265399797805,32.042727171017184" fill="none" id="id89" stroke="none" /><text fill="#e1ed5e" style="font-size:6.75px; font-family:Arial;" text-anchor="middle"><textPath startOffset="22.206326154141568" xlink:href="#id89">May</textPath></text><line stroke="#e1ed5e" stroke-width="0.3" x1="143.8653032363475" x2="146.44561519142675" y1="172.8068346515853" y2="177.08958963109032" /><path d="M 144.38136562736335 173.6633856474863 a86.0,86.0 0 0,1 -40.68145358897372,12.25698825130547" fill="none" id="id90" stroke="none" /><text fill="#e1ed5e" style="font-size:6.75px; font-family:Arial;" text-anchor="middle"><textPath startOffset="21.466115282336833" xlink:href="#id90">June</textPath></text><line stroke="#e1ed5e" stroke-width="0.3" x1="102.19456741930631" x2="102.32365962044197" y1="184.97166512339345" y2="189.96999836594603" /><path d="M 102.22038585953345 185.97133177190398 a86.0,86.0 0 0,1 -42.740103519485714,-10.115201625700543" fill="none" id="id91" stroke="none" /><text fill="#e1ed5e" style="font-size:6.75px; font-family:Arial;" text-anchor="middle"><textPath startOffset="22.20632615414155" xlink:href="#id91">July</textPath></text><line stroke="#e1ed5e" stroke-width="0.3" x1="58.666819895761336" x2="56.23545636021788" y1="174.27360380694188" y2="178.64263932499728" /><path d="M 58.180547188652646 175.14741091055294 a86.0,86.0 0 0,1 -31.652253787137756,-30.449443065178592" fill="none" id="id92" stroke="none" /><text fill="#e1ed5e" style="font-size:6.75px; font-family:Arial;" text-anchor="middle"><textPath startOffset="22.20632615414155" xlink:href="#id92">August</textPath></text><line stroke="#e1ed5e" stroke-width="0.3" x1="26.63291911575756" x2="22.317208475507996" y1="142.92168965132927" y2="145.44649492493687" /><path d="M 25.769776987707644 143.4266507060508 a86.0,86.0 0 0,1 -11.730757126820373,-40.83630448921669" fill="none" id="id93" stroke="none" /><text fill="#e1ed5e" style="font-size:6.75px; font-family:Arial;" text-anchor="middle"><textPath startOffset="21.46611528233685" xlink:href="#id93">September</textPath></text><line stroke="#e1ed5e" stroke-width="0.3" x1="15.007084014347285" x2="10.007500721073583" y1="101.09737516637583" y2="101.16192664675087" /><path d="M 14.007167355692545 101.11028546245083 a86.0,86.0 0 0,1 10.666146001902534,-42.60595125391555" fill="none" id="id94" stroke="none" /><text fill="#e1ed5e" style="font-size:6.75px; font-family:Arial;" text-anchor="middle"><textPath startOffset="22.20632615414155" xlink:href="#id94">October</textPath></text><line stroke="#e1ed5e" stroke-width="0.3" x1="26.266209847984243" x2="21.928928074336255" y1="57.711370442889674" y2="55.22380399835377" /><path d="M 25.398753493254645 57.213857153982495 a86.0,86.0 0 0,1 29.58750427330803,-30.492523968695096" fill="none" id="id95" stroke="none" /><text fill="#e1ed5e" style="font-size:6.75px; font-family:Arial;" text-anchor="middle"><textPath startOffset="21.46611528233685" xlink:href="#id95">November</textPath></text><line stroke="#e1ed5e" stroke-width="0.3" x1="56.762969772571076" x2="54.21961505331055" y1="26.818313649435495" y2="22.513508569990535" /><path d="M 56.25429882871897 25.957352633546506 a86.0,86.0 0 0,1 42.265352541879196,-11.944610805530505" fill="none" id="id96" stroke="none" /><text fill="#e1ed5e" style="font-size:6.75px; font-family:Arial;" text-anchor="middle"><textPath startOffset="22.20632615414155" xlink:href="#id96">December</textPath></text></svg>