<?xml version="1.0" encoding="utf-8" ?>
<svg baseProfile="full" height="200mm" version="1.1" viewBox="0,0,200,200" width="200mm" xmlns="http://www.w3.org/2000/svg" xmlns:ev="http://www.w3.org/2001/xml-events" xmlns:xlink="http://www.w3.org/1999/xlink"><defs /><rect fill="#1a1a1a" height="200" width="200" x="0" y="0" /><text alignment-baseline="middle" fill="#e1ed5e" style="dominant-baseline: central; font-size:9.0px; font-family:Arial;" text-anchor="middle" x="100.0" y="100.0">2023</text><line stroke="#e1ed5e" stroke-width="0.3" x1="100.0" x2="100.0" y1="15.0" y2="10.0" /><path d="M 100.0 14.0 a86.0,86.0 0 0,1 42.46469731375804,11.215312516191453" fill="none" id="id85" stroke="none" /><text fill="#e1ed5e" style="font-size:6.75px; font-family:Arial;" text-anchor="middle"><textPath startOffset="22.20632615414155" xlink:href="#id85">January</textPath></text><path d="M 100.0 79.0 l 0.0 -19.922698678860066 a40.922698678860066,40.922698678860066 0 0,0 0.7044169872171239,0.00606313940135753 l -0.34293650794459546 19.919746916067268" fill="#fffd17" stroke="none" /><path d="M 101.44485096284872 79.0497635885617 l 0.5588402027966328 -8.103143276260147 a29.122390862785526,29.122390862785526 0 0,0 0.49980930362725795,0.038794821372927696 l -0.6982396957862319 8.092323192698753" fill="#ff6409" stroke="none" /><path d="M 101.80526077348638 79.07773832637324 l 0.09038479878631712 -1.0475242354451464 a22.05141639501036,22.05141639501036 0 0,0 0.37789288917306946,0.03588548323659766 l -0.10840281504963079 1.0458132076933706" fill="#ff0000" stroke="none" /><path d="M 102.52436894288641 79.15227682838746 l 1.7035408419147668 -14.0688420303438 a35.17160426609634,35.17160426609634 0 0,0 0.6004048621021973,0.07794978283578699 l -1.9454604325248102 14.037433924343876" fill="#ffb510" stroke="none" /><path d="M 102.88285421437855 79.19881850522331 l 0.4573256434539911 -3.2998247584825027 a24.331364612415566,24.331364612415566 0 0,0 0.4143643206619192,0.06106652966499562 l -0.5140589445445661 3.291463744656538" fill="#ff2103" stroke="none" /><path d="M 103.95276090670814 79.375362276772 l 1.790501646584788 -9.342444097993424 a30.512473803935283,30.512473803935283 0 0,0 0.5149831260175743,0.10330077036941016 l -1.9510511820694878 9.310239371546805" fill="#ff770b" stroke="none" /><path d="M 104.66035177308747 79.52364482259891 l 2.0300045018785124 -8.919303781364441 a30.147398440098094,30.147398440098094 0 0,0 0.5050066986156894,0.11951876945029363 l -2.183234887456725 8.88303909977328" fill="#ff720a" stroke="none" /><path d="M 105.01212808612495 79.60689891045804 l 4.825572887156128 -19.634054439899735 a41.21836411380018,41.21836411380018 0 0,0 0.6875441224765879,0.17527030562776258 l -5.162825898317741 19.548081138103104" fill="#feff18" stroke="none" /><path d="M 106.0581310904928 79.89281104454417 l 3.1638034438647136 -10.500795164954907 a31.967057551036675,31.967057551036675 0 0,0 0.5254998027626736,0.16327534672032837 l -3.3440886193381054 10.444779683352056" fill="#ff8b0c" stroke="none" /><path d="M 106.74666289553966 80.11325718540242 l 5.1240943943825625 -15.10399273782839 a36.94951221783649,36.94951221783649 0 0,0 0.6005492124300732,0.2095198281239555 l -5.38332561087591 15.013552056532227" fill="#ffcc13" stroke="none" /><path d="M 107.4271985657038 80.35727306442388 l 2.167347576025868 -5.731988479067239 a27.128057395248902,27.128057395248902 0 0,0 0.43536247824067437,0.16891387779546677 l -2.2656932192662094 5.693831897381225" fill="#ff4906" stroke="none" /><path d="M 107.76421540070413 80.48803036053334 l 2.3198818463316986 -5.830011381274771 a27.27462225848957,27.27462225848957 0 0,0 0.4347264771809554,0.17733584537389468 l -2.4198921931010418 5.789214649717296" fill="#ff4b06" stroke="none" /><path d="M 108.09893153111575 80.62456947434976 l 5.438003874997389 -13.009576124137611 a35.10038854337773,35.10038854337773 0 0,0 0.55544901051596,0.23781427860196347 l -5.6611366433036645 12.914042317572857" fill="#ffb410" stroke="none" /><path d="M 108.76106565485865 80.91482961587045 l 3.651754009986944 -7.955008012396137 a29.7531399981231,29.7531399981231 0 0,0 0.4636131280780627,0.21767258000600312 l -3.7881453493646045 7.890970449750131" fill="#ff6d0a" stroke="none" /><path d="M 109.41281617654863 81.2277094730956 l 4.425856867501855 -8.82663268770047 a30.874090014537835,30.874090014537835 0 0,0 0.47301974606753683,0.2422990861224059 l -4.577137101158148 8.749141076265564" fill="#ff7c0b" stroke="none" /><path d="M 110.05341064243156 81.56283822128135 l 5.986074599800544 -10.97798844008102 a33.503972141081,33.503972141081 0 0,0 0.5039570342747199,0.28045154395117766 l -6.174155723147299 10.873321498569663" fill="#ff9f0e" stroke="none" /><line stroke="#e1ed5e" stroke-width="0.3" x1="143.23703022742887" x2="145.7803849466894" y1="26.81831364943548" y2="22.513508569990506" /><path d="M 143.74570117128098 25.957352633546492 a86.0,86.0 0 0,1 28.547481713284135,27.462654790039103" fill="none" id="id86" stroke="none" /><text fill="#e1ed5e" style="font-size:6.75px; font-family:Arial;" text-anchor="middle"><textPath startOffset="19.985693538727396" xlink:href="#id86">February</textPath></text><path d="M 110.99172775467656 82.1063720568725 l 6.813079025381529 -11.091131799132715 a34.01657598571247,34.01657598571247 0 0,0 0.4962870182807572,0.3107748853179516 l -7.002985196034549 10.972212572491818" fill="#ffa60f" stroke="none" /><path d="M 111.2981086023043 82.29822771554956 l 5.490877282600061 -8.603055849421056 a31.20599349798104,31.20599349798104 0 0,0 0.4503069058595052,0.29289213767251604 l -5.6381512142438455 8.507264787589012" fill="#ff800b" stroke="none" /><path d="M 112.48926042617603 83.11751280151076 l 6.238871670662676 -8.433459429849455 a31.490317329705235,31.490317329705235 0 0,0 0.43299763087244925,0.3261248385908292 l -6.383115455293509 8.324818001752778" fill="#ff840c" stroke="none" /><path d="M 112.77801427241765 83.33499621200491 l 7.471427495654495 -9.744187544506072 a33.2789014054731,33.2789014054731 0 0,0 0.4515906428866149,0.35247365978508755 l -7.6380506937005395 9.61413549549776" fill="#ff9c0e" stroke="none" /><path d="M 113.06298171725822 83.55741782278167 l 3.8164582620370036 -4.803836517397984 a27.135323866900336,27.135323866900336 0 0,0 0.3632213008494064,0.2936996982718851 l -3.8985829614509013 4.737430721861968" fill="#ff4906" stroke="none" /><path d="M 113.34407831869373 83.78471172551755 l 6.2153778780188835 -7.55272425864952 a30.781337633154244,30.781337633154244 0 0,0 0.40622932034978,0.3402053732631034 l -6.344464735327781 7.444617727992598" fill="#ff7b0b" stroke="none" /><path d="M 113.6212207817346 84.01681056812373 l 8.370095613912937 -9.821500282814645 a33.9042771355614,33.9042771355614 0 0,0 0.44092706372002577,0.3823676046905702 l -8.537916476279728 9.675967684704403" fill="#ffa40f" stroke="none" /><path d="M 113.89432698308785 84.25364557470407 l 14.935897428548829 -16.926759738421595 a43.57423813195878,43.57423813195878 0 0,0 0.5581424419701306,0.5011057952852725 l -15.22505085811495 16.667154934367023" fill="#e1ff1b" stroke="none" /><path d="M 114.42810811169701 84.74124197986012 l 7.7842042463121475 -8.232353684508952 a32.32984920178341,32.32984920178341 0 0,0 0.40106987850229825,0.3858289053519626 l -7.924757368426864 8.097141692394688" fill="#ff900d" stroke="none" /><path d="M 114.94478906791727 85.2469230424477 l 3.167598284553063 -3.1269642582606627 a25.45102059810367,25.45102059810367 0 0,0 0.3050919718938555,0.3144240953780779 l -3.2209545201500274 3.0719759673324707" fill="#ff3104" stroke="none" /><path d="M 115.4437574822437 85.77008943001954 l 4.640781861769448 -4.276026151258406 a27.31040853945084,27.31040853945084 0 0,0 0.3155735385462796,0.34846418317503614 l -4.713699040931764 4.19550918081382" fill="#ff4b07" stroke="none" /><path d="M 115.68641384162765 86.03803664274999 l 5.483869610844524 -4.881012788236085 a28.341465231659704,28.341465231659704 0 0,0 0.3212142534885969,0.3672034192356964 l -5.567075727910969 4.7858938127974415" fill="#ff5908" stroke="none" /><path d="M 116.82858285166822 87.43820079747576 l 4.0440741871497385 -3.0187240569725455 a26.04650680801241,26.04650680801241 0 0,0 0.2651005865852675,0.3615969021762734 l -4.095437386248632 2.9486647111247786" fill="#ff3905" stroke="none" /><path d="M 117.2510076193507 88.02491185347247 l 11.46698925221293 -7.960010806354399 a34.95899761973064,34.95899761973064 0 0,0 0.33889507714867345,0.4972867082595758 l -11.602308795030336 7.761446074824417" fill="#ffb210" stroke="none" /><line stroke="#e1ed5e" stroke-width="0.3" x1="172.23445277983987" x2="176.4835382374775" y1="55.19839476539836" y2="52.563006222186495" /><path d="M 173.08426987136738 54.67131705675599 a86.0,86.0 0 0,1 12.851231095245387,41.99856678651699" fill="none" id="id87" stroke="none" /><text fill="#e1ed5e" style="font-size:6.75px; font-family:Arial;" text-anchor="middle"><textPath startOffset="22.20632615414155" xlink:href="#id87">March</textPath></text><path d="M 118.3937258080291 89.86733742301442 l 19.158582315873865 -10.554003690509175 a42.873231820044246,42.873231820044246 0 0,0 0.350523174468133,0.6494662070453341 l -19.337413589560462 10.222656500131382" fill="#eaff1a" stroke="none" /><path d="M 118.56541770881063 90.18545643968196 l 12.394011296302502 -6.5520510048587335 a35.01930413334215,35.01930413334215 0 0,0 0.2771370478218292,0.5353405654411374 l -12.504957777284448 6.3377377171572515" fill="#ffb310" stroke="none" /><path d="M 119.04729006885535 91.15688171328212 l 8.842248987939797 -4.105206222948129 a30.748747883582507,30.748747883582507 0 0,0 0.2187519852421626,0.48199100280664586 l -8.911603290145306 3.9523932112994205" fill="#ff7a0b" stroke="none" /><path d="M 119.196687751892 91.48605970444005 l 2.1169304055399865 -0.938881713114627 a23.31579213512801,23.31579213512801 0 0,0 0.15955694939023113,0.3682794378982343 l -2.132778064772898 0.9023031306297898" fill="#ff1202" stroke="none" /><path d="M 119.47837535516314 92.15188598940014 l 11.19595234451857 -4.5110081747004385 a33.07056517537373,33.07056517537373 0 0,0 0.20819723929723913,0.5298392648530148 l -11.27194313369751 4.3176199049516395" fill="#ff990e" stroke="none" /><path d="M 119.61058180528143 92.48833698450437 l 19.26343489212403 -7.378691405861614 a41.62825757804177,41.62825757804177 0 0,0 0.2505533688827108,0.6713584613079081 l -19.38759284950837 7.046009807524373" fill="#f9ff18" stroke="none" /><path d="M 120.18372546131832 94.20196356495316 l 7.083819856602571 -2.0349189601594673 a28.37030521316542,28.37030521316542 0 0,0 0.13079146989068996,0.47052650591904277 l -7.117798097059624 1.9126811508214725" fill="#ff5a08" stroke="none" /><path d="M 120.28053869075195 94.5502522615342 l 16.491108614574046 -4.431459304286187 a38.07613817299517,38.07613817299517 0 0,0 0.16464061972957872,0.6344274689536608 l -16.564945566173925 4.1469354097836755" fill="#ffda14" stroke="none" /><path d="M 120.37134235888165 94.90015583598534 l 31.91584704866106 -7.989942117866099 a53.900766980123386,53.900766980123386 0 0,0 0.21757224193805463,0.9019774067476377 l -32.04865209085993 7.439379479459055" fill="#6eff28" stroke="none" /><path d="M 120.73433829027371 96.67025291283417 l 4.555269047671679 -0.7315349846421941 a25.613634091519515,25.613634091519515 0 0,0 0.0661613665270079,0.4359207409130238 l -4.567186307637987 0.6530151313370882" fill="#ff3304" stroke="none" /><path d="M 120.94382443527127 98.46500227214037 l 11.351061742968044 -0.8319327751290273 a32.38150758181914,32.38150758181914 0 0,0 0.03595798186638384,0.5562540640934701 l -11.363700315838845 0.6364196467825219" fill="#ff900d" stroke="none" /><line stroke="#e1ed5e" stroke-width="0.3" x1="184.98032266829074" x2="189.97916517819016" y1="98.17113171792111" y2="98.06355123074" /><path d="M 185.9800911702706 98.14961562048488 a86.0,86.0 0 0,1 -9.607161424134198,41.387399972396054" fill="none" id="id88" stroke="none" /><text fill="#e1ed5e" style="font-size:6.75px; font-family:Arial;" text-anchor="middle"><textPath startOffset="21.466115282336823" xlink:href="#id88">April</textPath></text><path d="M 120.99980553446 99.90962569577887 l 19.58497672508708 -0.08428547787322575 a40.58515808881774,40.58515808881774 0 0,0 -0.0030065924021296414,0.698626189272032 l -19.58352583539545 -0.25285018960249095" fill="#fff917" stroke="none" /><path d="M 120.92983693683757 101.71520430193887 l 9.207366612156354 0.7545455261002668 a30.238232454404333,30.238232454404333 0 0,0 -0.0469778353186945,0.5183964981419141 l -9.193014180560585 -0.9129234127907515" fill="#ff730a" stroke="none" /><path d="M 120.8583938346157 102.4346265915055 l 38.96784387180664 4.548391868336941 a60.23239381691426,60.23239381691426 0 0,0 -0.12906508648621992,1.028775727566516 l -38.88377727607358 -5.218485350190852" fill="#2fff30" stroke="none" /><path d="M 120.49622156327973 104.57218783832717 l 2.2835833387286586 0.5094095971253246 a23.33971173492858,23.33971173492858 0 0,0 -0.09084642040748082,0.3913640014437075 l -2.274476352390625 -0.548642255917597" fill="#ff1302" stroke="none" /><path d="M 120.41448212921028 104.9243191809786 l 5.331256564181453 1.2859894652998662 a26.484164973629994,26.484164973629994 0 0,0 -0.11071476357275054,0.4422504453837447 l -5.3083304863136425 -1.3775677500810068" fill="#ff4006" stroke="none" /><path d="M 119.9155931802556 106.66101706037122 l 8.856286295565244 2.9620947552180734 a30.33851231663305,30.33851231663305 0 0,0 -0.16990891542751294,0.4938348408326973 l -8.803986549194502 -3.1141022991400713" fill="#ff750a" stroke="none" /><path d="M 118.64920377521936 109.65438752849418 l 13.099838636526261 6.781572032893817 a35.75111831490595,35.75111831490595 0 0,0 -0.28762198892659274,0.5440724098725259 l -12.981164139374776 -7.006059457852477" fill="#ffbc11" stroke="none" /><line stroke="#e1ed5e" stroke-width="0.3" x1="174.80103733775053" x2="179.2010983576182" y1="140.37084112569926" y2="142.7455964860345" /><path d="M 175.68104954172406 140.8457921977663 a86.0,86.0 0 0,1 -30.038265399797805,32.042727171017184" fill="none" id="id89" stroke="none" /><text fill="#e1ed5e" style="font-size:6.75px; font-family:Arial;" text-anchor="middle"><textPath startOffset="22.206326154141568" xlink:href="#id89">May</textPath></text><path d="M 118.48025628344425 109.97397251340804 l 11.113390779464554 5.998004165366655 a33.6286780220593,33.6286780220593 0 0,0 -0.2793159412384138,0.5070395661472268 l -11.008498428774631 -6.188414249911687" fill="#ffa10e" stroke="none" /><path d="M 118.30583269289576 110.29060199501025 l 1.4831953087731027 0.8337764722046035 a22.701485095311885,22.701485095311885 0 0,0 -0.19441984660801667,0.33898739025871727 l -1.4686234660127064 -0.8591837083216359" fill="#ff0901" stroke="none" /><path d="M 117.75023020441432 111.22182372390056 l 7.81903995690084 4.943253528320723 a30.25057518713659,30.25057518713659 0 0,0 -0.28204359531848666,0.4377379233010886 l -7.732791498205303 -5.077113051543264" fill="#ff740a" stroke="none" /><path d="M 117.35343817320211 111.8261652097733 l 10.370391765344545 7.067300732164182 a33.54957230369124,33.54957230369124 0 0,0 -0.3293275428467254,0.47442088787949893 l -10.247203315335684 -7.244762882230701" fill="#ffa00e" stroke="none" /><path d="M 116.498646956653 112.99209946851258 l 6.7182492372118805 5.290383058285792 a29.551200250064042,29.551200250064042 0 0,0 -0.31814271684855244,0.3969319559475484 l -6.626188608308474 -5.40524284781159" fill="#ff6a09" stroke="none" /><path d="M 116.27256486870786 113.27417163493432 l 11.964910356738804 9.760248304640237 a36.440904339222755,36.440904339222755 0 0,0 -0.40068336092491746,0.4826489201213697 l -11.795130995920342 -9.964758481875378" fill="#ffc512" stroke="none" /><path d="M 115.80600337817218 113.82643327865902 l 10.632099281454149 9.300517519192384 a35.12590390932567,35.12590390932567 0 0,0 -0.4020095310813935,0.4516619698437242 l -10.470430900724416 -9.482153658776975" fill="#ffb410" stroke="none" /><path d="M 115.56566222782051 114.09645910891815 l 11.455080706501686 10.373864883175486 a36.45431805699781,36.45431805699781 0 0,0 -0.4252198167680013,0.46149212916790056 l -11.274814481737963 -10.569508267144721" fill="#ffc512" stroke="none" /><path d="M 115.32070863581623 114.36230785411682 l 11.284161742123787 10.578270801205317 a36.467130288648995,36.467130288648995 0 0,0 -0.4332528617632217,0.4542638934366228 l -11.100402328981602 -10.770941811224448" fill="#ffc512" stroke="none" /><path d="M 115.07121518719521 114.62390073753431 l 7.623663658044909 7.397392924647418 a31.62269596913224,31.62269596913224 0 0,0 -0.38242286201807896,0.3873923401913613 l -7.4952001709712945 -7.527525758819444" fill="#ff860c" stroke="none" /><path d="M 114.0293411484842 115.62618273729858 l 2.499242267163368 2.7837099374901664 a24.741022978552444,24.741022978552444 0 0,0 -0.3193449273928796,0.2817847688261801 l -2.4509549868639007 -2.8263178480886353" fill="#ff2703" stroke="none" /><path d="M 113.48314897796784 116.09983520530334 l 6.6993281102069675 7.999472433096608 a31.434201279258602,31.434201279258602 0 0,0 -0.417820217256179,0.343837593746268 l -6.560637764406097 -8.113605145700054" fill="#ff840c" stroke="none" /><path d="M 113.20401910651253 116.32954008644616 l 6.089004282935548 7.530331387940577 a30.68410367405319,30.68410367405319 0 0,0 -0.41356693512498827,0.32856258549739403 l -5.958479855093208 -7.634027887443097" fill="#ff790b" stroke="none" /><path d="M 112.92097659922987 116.55440617244103 l 6.6665420055927544 8.541199906886286 a31.83489170050753,31.83489170050753 0 0,0 -0.43488170763792944,0.33344874910942796 l -6.518531569461331 -8.654687997823086" fill="#ff890c" stroke="none" /><path d="M 112.63410532772338 116.77436683061366 l 3.0694182702929074 4.075282474454311 a26.10188747078984,26.10188747078984 0 0,0 -0.36121908568832833,0.2672212440635185 l -2.9988142141860146 -4.127513667257599" fill="#ff3a05" stroke="none" /><path d="M 112.04921762599082 117.19931262002967 l 7.367918956013705 10.517126125282493 a33.84119043069939,33.84119043069939 0 0,0 -0.47996978980713223,0.33012759802755276 l -7.185792281583689 -10.64239451267514" fill="#ffa30f" stroke="none" /><path d="M 111.7513745106137 117.40417183066458 l 6.127731168835709 9.075371234080954 a31.95040877382688,31.95040877382688 0 0,0 -0.4584507880549847,0.30383618376545385 l -5.97060568204076 -9.179505438937726" fill="#ff8a0c" stroke="none" /><path d="M 111.45004920935366 117.60387380957326 l 2.906521046759984 4.468629679795041 a26.33071438086903,26.33071438086903 0 0,0 -0.38206894461692303,0.24385447742097444 l -2.8291703000961306 -4.517998586039824" fill="#ff3d05" stroke="none" /><path d="M 111.1453310114006 117.79835938074945 l 1.7956097150266166 2.867470421732468 a24.383282558139143,24.383282558139143 0 0,0 -0.3576456286587905,0.21969515602773207 l -1.7459848864355174 -2.897954044588578" fill="#ff2203" stroke="none" /><line stroke="#e1ed5e" stroke-width="0.3" x1="143.8653032363475" x2="146.44561519142675" y1="172.8068346515853" y2="177.08958963109032" /><path d="M 144.38136562736335 173.6633856474863 a86.0,86.0 0 0,1 -40.68145358897372,12.25698825130547" fill="none" id="id90" stroke="none" /><text fill="#e1ed5e" style="font-size:6.75px; font-family:Arial;" text-anchor="middle"><textPath startOffset="21.466115282336833" xlink:href="#id90">June</textPath></text><path d="M 110.8373102113329 117.98757091392108 l 5.6690264121785505 9.40934721009628 a31.985157048587183,31.985157048587183 0 0,0 -0.4740385011296828,0.2800703020715644 l -5.5062200400204855 -9.505536084461594" fill="#ff8b0c" stroke="none" /><path d="M 110.5260780823613 118.17145234162733 l 5.543544659878559 9.569970581870166 a32.0596213467699,32.0596213467699 0 0,0 -0.47990388106650317,0.27250194839149416 l -5.377992011890856 -9.663975696056289" fill="#ff8c0c" stroke="none" /><path d="M 110.21172684928248 118.3499491758327 l 4.810028949030944 8.643375214761397 a30.891628460150905,30.891628460150905 0 0,0 -0.4668713417848152,0.2545754803520495 l -4.66053479537748 -8.724891346873218" fill="#ff7c0b" stroke="none" /><path d="M 109.57404056367764 118.69057910512821 l 4.99189339077265 9.745245769959787 a31.949375084531482,31.949375084531482 0 0,0 -0.491634081454482,0.24651553459738976 l -4.823405401635407 -9.82972914546648" fill="#ff8a0c" stroke="none" /><path d="M 109.2508944713604 118.85261126421891 l 4.279767285013208 8.72183648570044 a30.715288966220445,30.715288966220445 0 0,0 -0.47665350346683194,0.22882264784978276 l -4.129001113546143 -8.794213410049782" fill="#ff7a0b" stroke="none" /><path d="M 108.92500713936063 119.00905698771935 l 4.179418635301674 8.901595906138084 a30.833918334279637,30.833918334279637 0 0,0 -0.4823775708906953,0.2214358836701243 l -4.025573068643559 -8.972218860142283" fill="#ff7b0b" stroke="none" /><path d="M 108.59647513512805 119.15986991738527 l 3.951323353726073 8.806730697045213 a30.652536548285095,30.652536548285095 0 0,0 -0.48325814859213206,0.21184617069492456 l -3.799144530476187 -8.873441421034592" fill="#ff790b" stroke="none" /><path d="M 108.2653958097858 119.30500536409082 l 3.8412388201456373 8.971758610745486 a30.759486064485138,30.759486064485138 0 0,0 -0.48853173779504344,0.20420630601942524 l -3.6862356228531326 -9.036549959784884" fill="#ff7a0b" stroke="none" /><path d="M 107.93186726928326 119.44442032107085 l 3.6193745337542045 8.872644655343045 a30.58246811607406,30.58246811607406 0 0,0 -0.48914316584813755,0.19464016045543253 l -3.4661102918642004 -8.933631660204545" fill="#ff780b" stroke="none" /><path d="M 107.59598834532513 119.57807347666477 l 9.191480310232771 23.690330828878114 a46.41092452224219,46.41092452224219 0 0,0 -0.7472816982389191,0.28255799592084474 l -8.782328391233577 -23.84503707490559" fill="#c0ff1e" stroke="none" /><path d="M 107.2578585660854 119.70592522655815 l 3.3817675982437674 9.1818900599674 a30.784858566267555,30.784858566267555 0 0,0 -0.4988326285181427,0.17886363297177865 l -3.2232154090958898 -9.23874123397914" fill="#ff7b0b" stroke="none" /><path d="M 106.91757812671514 119.82793768551818 l 3.2318882213399984 9.263600220402473 a30.811187008648698,30.811187008648698 0 0,0 -0.5022667560567501,0.17039615377656261 l -3.071951732346021 -9.31785936107716" fill="#ff7b0b" stroke="none" /><path d="M 106.57524785965236 119.94407469862006 l 3.4613943477410505 10.49911865016426 a32.054987257378485,32.054987257378485 0 0,0 -0.5255165664808243,0.1682538093209624 l -3.2801564361692854 -10.557145306144928" fill="#ff8c0c" stroke="none" /><path d="M 106.2309692047433 120.05430185196036 l 2.8990242428813993 9.330475778733927 a30.770471831920634,30.770471831920634 0 0,0 -0.507163349967106,0.15280415702069103 l -2.7379859184740476 -9.378995304860343" fill="#ff7b0b" stroke="none" /><path d="M 105.88484417918355 120.15858648285463 l 2.778938170452938 9.51927761107744 a30.916609480662256,30.916609480662256 0 0,0 -0.5121392774382881,0.1447356754250328 l -2.6146677249100443 -9.56570207984099" fill="#ff7d0b" stroke="none" /><path d="M 105.53697534728816 120.25689768951611 l 4.509421690602718 16.497616134441156 a38.102813280365645,38.102813280365645 0 0,0 -0.6341570189169901,0.16748663245943018 l -4.224774228874231 -16.57279411620417" fill="#ffda14" stroke="none" /><path d="M 105.18746579009965 120.34920634021253 l 2.360463729904703 9.259543183897458 a30.55567522442331,30.55567522442331 0 0,0 -0.5107842580946214,0.12553834332040065 l -2.200726187066871 -9.298802785531889" fill="#ff780b" stroke="none" /><path d="M 104.83641907484287 120.43548508189849 l 2.2094621819704634 9.335715280244457 a30.59360739906254,30.59360739906254 0 0,0 -0.5135061983597616,0.11687233891403427 l -2.0484358342178397 -9.372364352736177" fill="#ff780b" stroke="none" /><path d="M 104.48393922423573 120.51570834832081 l 2.2894097026627893 10.474910430493477 a31.722180063471587,31.722180063471587 0 0,0 -0.5344561032633811,0.11200047285819849 l -2.10876213797003 -10.512766884078218" fill="#ff870c" stroke="none" /><path d="M 103.7750983002368 120.6578951692458 l 1.445070855787362 7.90764104053 a29.03859543727139,29.03859543727139 0 0,0 -0.49248217295196395,0.08562433843948898 l -1.308739711363348 -7.931343957490495" fill="#ff6309" stroke="none" /><path d="M 103.41894727170886 120.7198165907248 l 2.6191559149240438 15.872847946149724 a37.0874882945807,37.0874882945807 0 0,0 -0.6307771775077688,0.09851442253886253 l -2.3455428738077577 -15.915580676035692" fill="#ffcd13" stroke="none" /><path d="M 102.70371172650421 120.8252237178851 l 1.2333258819593793 9.499639757109305 a30.579365753846265,30.579365753846265 0 0,0 -0.522575989977961,0.06327667479750002 l -1.0696224689300382 -9.519461960632157" fill="#ff780b" stroke="none" /><path d="M 102.34483914955558 120.86867818915974 l 1.0698301077198846 9.521309911305325 a30.581225333249655,30.581225333249655 0 0,0 -0.5236196088426449,0.05427531340795118 l -0.9057779022716371 -9.538314593169035" fill="#ff780b" stroke="none" /><path d="M 101.98527174616119 120.90594882070398 l 0.9061670187999288 9.542412193531042 a30.585341367797533,30.585341367797533 0 0,0 -0.5245468803536651,0.045260112015077895 l -0.7417758207047219 -9.556596557824784" fill="#ff780b" stroke="none" /><path d="M 101.62511606390274 120.93702456842531 l 0.7474496347517797 9.629694588629208 a30.658659266521685,30.658659266521685 0 0,0 -0.5265073445760878,0.036311029089025185 l -0.5815795293967615 -9.641133962234518" fill="#ff790b" stroke="none" /><path d="M 101.26447882468166 120.96189622390904 l 0.903360087687695 14.975450787559112 a36.00267261985783,36.00267261985783 0 0,0 -0.6189235421320003,0.031991277531606195 l -0.6454484771422151 -14.988781871852918" fill="#ffbf11" stroke="none" /><path d="M 100.90346689309514 120.98055641714683 l 0.4215290256390262 9.788862847631968 a30.797934607314218,30.797934607314218 0 0,0 -0.5298412849560732,0.018248805160894905 l -0.2529673890083008 -9.794668451218957" fill="#ff7b0b" stroke="none" /><line stroke="#e1ed5e" stroke-width="0.3" x1="102.19456741930631" x2="102.32365962044197" y1="184.97166512339345" y2="189.96999836594603" /><path d="M 102.22038585953345 185.97133177190398 a86.0,86.0 0 0,1 -42.740103519485714,-10.115201625700543" fill="none" id="id91" stroke="none" /><text fill="#e1ed5e" style="font-size:6.75px; font-family:Arial;" text-anchor="middle"><textPath startOffset="22.20632615414155" xlink:href="#id91">July</textPath></text><path d="M 100.54218724476979 120.99299961872073 l 0.3933717354891275 15.230997727814538 a36.23607669667534,36.23607669667534 0 0,0 -0.6236751808723525,0.010737133836151214 l -0.13113686472410702 -15.23551233892985" fill="#ffc212" stroke="none" /><path d="M 99.81925306533755 120.99922214144158 l -0.09536905510073805 11.079999653769255 a32.08041008195083,32.08041008195083 0 0,0 -0.5521501603995567,-0.009505765744229264 l 0.28607890539296266 -11.076716410745867" fill="#ff8c0c" stroke="none" /><path d="M 99.45781275523022 120.99299961872073 l -0.2241694073790519 8.679636655110752 a29.682530989748717,29.682530989748717 0 0,0 -0.5106521122563298,-0.017587891253769583 l 0.37354187131002475 -8.674491965430889" fill="#ff6c09" stroke="none" /><path d="M 99.09653310690486 120.98055641714683 l -0.41430488045107 9.621101763258107 a30.630018051537277,30.630018051537277 0 0,0 -0.5265619991102464,-0.027217240748520468 l 0.5798549479748054 -9.612544715747385" fill="#ff790b" stroke="none" /><path d="M 98.73552117531835 120.96189622390904 l -0.5758429216899658 9.546035354745172 a30.563387792226415,30.563387792226415 0 0,0 -0.524871228315785,-0.036198192932544344 l 0.7400769107846809 -9.534708817296343" fill="#ff780b" stroke="none" /><path d="M 98.37488393609728 120.93702456842531 l -0.7441433364673781 9.587098216623211 a30.61593477101362,30.61593477101362 0 0,0 -0.5250715654968985,-0.04530538405699601 l 0.9090592197058183 -9.572868580287553" fill="#ff790b" stroke="none" /><path d="M 98.01472825383883 120.90594882070398 l -0.8994290171645325 9.471457515605636 a30.51406748067513,30.51406748067513 0 0,0 -0.52246971481086,-0.05415612218991886 l 1.062331328580986 -9.454572024959955" fill="#ff770b" stroke="none" /><path d="M 97.65516085044442 120.86867818915974 l -1.4233133927611166 12.667252319410654 a33.7469644361953,33.7469644361953 0 0,0 -0.5767076234005012,-0.0698312617475872 l 1.6411484392130071 -12.640875528937718" fill="#ffa20f" stroke="none" /><path d="M 97.2962882734958 120.8252237178851 l -1.4503630625485415 11.171359340436506 a32.265115291303644,32.265115291303644 0 0,0 -0.550153108946496,-0.07624620789343528 l 1.6424447626818686 -11.144738567050467" fill="#ff8f0d" stroke="none" /><path d="M 96.58105272829116 120.7198165907248 l -1.873491070412351 11.353901735928945 a32.50743470196747,32.50743470196747 0 0,0 -0.5513122049481376,-0.09585269358959037 l 2.0686522468325386 -11.319970463818349" fill="#ff920d" stroke="none" /><path d="M 96.22490169976321 120.6578951692458 l -1.748252595553812 9.566696275444585 a30.725125436952776,30.725125436952776 0 0,0 -0.5194483131650112,-0.09955350551547687 l 1.9126685232905183 -9.535185571580639" fill="#ff7a0b" stroke="none" /><path d="M 95.51606077576429 120.51570834832081 l -1.2152831651848286 5.560377545439602 a26.691635232462687,26.691635232462687 0 0,0 -0.44801255234279297,-0.10196619830957417 l 1.3108158669204841 -5.5386346135523405" fill="#ff4206" stroke="none" /><path d="M 94.81253420990036 120.34920634021253 l -2.3706805824382333 9.299621489714772 a30.59703528574916,30.59703528574916 0 0,0 -0.5092360120954013,-0.13449385916848602 l 2.530407037345124 -9.257436281242704" fill="#ff780b" stroke="none" /><path d="M 94.46302465271185 120.25689768951611 l -2.7377436915000866 10.015972689132022 a31.383397778655457,31.383397778655457 0 0,0 -0.5198717107699585,-0.1469209383217517 l 2.9097465703746592 -9.96736295747175" fill="#ff830c" stroke="none" /><path d="M 94.11515582081647 120.15858648285463 l -2.826191852348832 9.68114552195626 a31.0852337109051,31.0852337109051 0 0,0 -0.5123513006056172,-0.15436724399066643 l 2.992418127394695 -9.631062908859867" fill="#ff7f0b" stroke="none" /><path d="M 93.76903079525671 120.05430185196036 l -2.782412052517345 8.955160801507168 a30.377458174305247,30.377458174305247 0 0,0 -0.4980147828479061,-0.1594486066794045 l 2.9361481804561915 -8.905939348168056" fill="#ff750a" stroke="none" /><path d="M 93.42475214034765 119.94407469862007 l -1.571702616971065 4.7672962397716985 a26.019697456414587,26.019697456414587 0 0,0 -0.42415857043557104,-0.14389761640011883 l 1.6535309203438617 -4.739535636473457" fill="#ff3905" stroke="none" /><path d="M 93.08242187328487 119.8279376855182 l -10.560812382282053 30.27058400911368 a53.059928484426955,53.059928484426955 0 0,0 -0.8597740846493375,-0.30828439745851993 l 11.080306027561116 -30.084312070615205" fill="#77ff27" stroke="none" /><path d="M 92.06813273071674 119.44442032107085 l -4.173570155614891 10.23121663413641 a32.04972767349806,32.04972767349806 0 0,0 -0.509023756878362,-0.2127719716582051 l 4.349065371990715 -10.157859619458232" fill="#ff8c0c" stroke="none" /><path d="M 91.7346041902142 119.30500536409082 l -3.728060747112875 8.707415153120857 a30.4719330436275,30.4719330436275 0 0,0 -0.4804108111408863,-0.21059798163182952 l 3.8773922329115043 -8.641952618194576" fill="#ff770a" stroke="none" /><path d="M 91.40352486487194 119.15986991738527 l -4.12548183606903 9.194896057178083 a31.077981637314316,31.077981637314316 0 0,0 -0.4861957902290575,-0.22318864089653392 l 4.283145622065506 -9.122520345947475" fill="#ff7f0b" stroke="none" /><path d="M 90.7491055286396 118.85261126421891 l -4.4577649841701055 9.084582103274968 a31.119352777981256,31.119352777981256 0 0,0 -0.47886177360220356,-0.24011123429149575 l 4.613480665455069 -9.006503028074171" fill="#ff7f0b" stroke="none" /><path d="M 90.42595943632237 118.69057910512821 l -0.7327976146751242 1.4305779982901528 a22.607341206236377,22.607341206236377 0 0,0 -0.3448255741926257,-0.18039644295447987 l 0.7573140913942454 -1.4177521363909562" fill="#ff0801" stroke="none" /><line stroke="#e1ed5e" stroke-width="0.3" x1="58.666819895761336" x2="56.23545636021788" y1="174.27360380694188" y2="178.64263932499728" /><path d="M 58.180547188652646 175.14741091055294 a86.0,86.0 0 0,1 -31.652253787137756,-30.449443065178592" fill="none" id="id92" stroke="none" /><text fill="#e1ed5e" style="font-size:6.75px; font-family:Arial;" text-anchor="middle"><textPath startOffset="22.20632615414155" xlink:href="#id92">August</textPath></text><path d="M 89.7882731507175 118.34994917583269 l -3.71914581258008 6.683114192694121 a28.64827175823542,28.64827175823542 0 0,0 -0.4288390263227457,-0.24350599115714486 l 3.8336336058240326 -6.618105035742342" fill="#ff5e08" stroke="none" /><path d="M 89.1626897886671 117.98757091392108 l -4.780055176498854 7.933848877908386 a30.26255286127219,30.26255286127219 0 0,0 -0.44388074973427905,-0.27266781069374113 l 4.915915126165442 -7.850392600386267" fill="#ff740a" stroke="none" /><path d="M 88.8546689885994 117.79835938074946 l -3.606702581015621 5.759666415535709 a27.79573842390617,27.79573842390617 0 0,0 -0.40332701539560833,-0.2574223839827392 l 3.7053113984581523 -5.696729602729166" fill="#ff5207" stroke="none" /><path d="M 88.24862548938628 117.40417183066458 l -10.106432018323728 14.967957942534367 a39.06044664759088,39.06044664759088 0 0,0 -0.5539945294066595,-0.38104248891771664 l 10.36258343235328 -14.791774664251548" fill="#ffe615" stroke="none" /><path d="M 87.65650970185807 116.9893568818739 l -9.956047634003658 13.703323962792442 a37.938239935713256,37.938239935713256 0 0,0 -0.5250201295802339,-0.38839734040485824 l 10.190452734002456 -13.529916673647818" fill="#ffd814" stroke="none" /><path d="M 87.36589467227662 116.77436683061367 l -3.0266423197814962 4.018488624253297 a26.03078667358749,26.03078667358749 0 0,0 -0.3555945176841354,-0.2726547128320816 l 3.0953655659591184 -3.9657945695938484" fill="#ff3905" stroke="none" /><path d="M 87.07902340077011 116.55440617244103 l -11.819952082181139 15.143769219338976 a40.21054432840613,40.21054432840613 0 0,0 -0.5419663469481851,-0.4305708437548514 l 12.078875921846683 -14.938064461578994" fill="#fff417" stroke="none" /><path d="M 86.79598089348748 116.32954008644616 l -6.17323482737905 7.634500129359241 a30.818066024383413,30.818066024383413 0 0,0 -0.4096306098994017,-0.33709810443726423 l 6.30373556582314 -7.5271069060647955" fill="#ff7b0b" stroke="none" /><path d="M 86.51685102203217 116.09983520530335 l -19.086345015355167 22.79044827887788 a50.726975944373834,50.726975944373834 0 0,0 -0.6646067786258291,-0.5663923150810822 l 19.475817270558053 -22.458531573573847" fill="#90ff24" stroke="none" /><path d="M 85.97065885151581 115.62618273729859 l -7.304098603409472 8.135462549533596 a31.93323407337426,31.93323407337426 0 0,0 -0.40585688386495133,-0.37074064063679346 l 7.443055036741278 -8.008529142310227" fill="#ff8a0c" stroke="none" /><path d="M 85.70375840098266 115.38237550388516 l -6.540782051079238 7.037707421346929 a30.607869461446796,30.607869461446796 0 0,0 -0.38283764253170083,-0.3619968865345412 l 6.660955528001756 -6.924075898066457" fill="#ff780b" stroke="none" /><path d="M 85.18274418774928 114.88116024355367 l -6.365796732366591 6.393251385584876 a30.02203033230836,30.02203033230836 0 0,0 -0.36306552655985014,-0.3677834615708167 l 6.474902883981974 -6.282727430033395" fill="#ff700a" stroke="none" /><path d="M 84.67929136418377 114.36230785411682 l -16.071806215140217 15.066419845223706 a43.02952477856866,43.02952477856866 0 0,0 -0.5019160312736751,-0.5447307223274737 l 16.32876865440962 -14.787537868094889" fill="#e8ff1a" stroke="none" /><path d="M 84.43433777217949 114.09645910891817 l -10.82541285736634 9.803629774792341 a35.604818393038215,35.604818393038215 0 0,0 -0.40749061955451465,-0.45782003084789974 l 10.992562326569193 -9.615835574203578" fill="#ffba11" stroke="none" /><path d="M 83.95833913139862 113.55231037782056 l -9.903984860489954 8.367081058876545 a33.96522123076289,33.96522123076289 0 0,0 -0.37346216412781597,-0.44985923499892294 l 10.046543024511307 -8.195360566763862" fill="#ffa50f" stroke="none" /><path d="M 83.50135304334701 112.99209946851258 l -28.294181521752737 22.280664691872158 a57.013729702677736,57.013729702677736 0 0,0 -0.6005261112001923,-0.7762609504606878 l 28.673514450170998 -21.790325747298215" fill="#4eff2b" stroke="none" /><path d="M 82.85270091963577 112.12312394758628 l -13.627630275831438 9.634721490043242 a37.6895226152655,37.6895226152655 0 0,0 -0.36996590482871766,-0.5329634792668233 l 13.79145708782229 -9.398716748589406" fill="#ffd513" stroke="none" /><path d="M 82.6465618267979 111.8261652097733 l -8.384114774287443 5.713676187324019 a31.14590932947947,31.14590932947947 0 0,0 -0.29810624068496827,-0.44562838223814827 l 8.481224120383143 -5.5685108908800505" fill="#ff800b" stroke="none" /><path d="M 82.44556493220864 111.52570212397912 l -47.99690154805785 31.513289261690165 a78.41767984083748,78.41767984083748 0 0,0 -0.7311333494329461,-1.1347351946621804 l 48.53223976086784 -30.682432467106537" fill="#46fff8" stroke="none" /><path d="M 82.05923443525364 110.91462005526583 l -53.82229669423909 32.743860165797486 a84.0,84.0 0 0,0 -0.7408764972070725,-1.2417516244555555 l 54.3779540671444 -31.812546447455823" fill="#4dd2ff" stroke="none" /><line stroke="#e1ed5e" stroke-width="0.3" x1="26.63291911575756" x2="22.317208475507996" y1="142.92168965132927" y2="145.44649492493687" /><path d="M 25.769776987707644 143.4266507060508 a86.0,86.0 0 0,1 -11.730757126820373,-40.83630448921669" fill="none" id="id93" stroke="none" /><text fill="#e1ed5e" style="font-size:6.75px; font-family:Arial;" text-anchor="middle"><textPath startOffset="21.46611528233685" xlink:href="#id93">September</textPath></text><path d="M 81.69416730710424 110.29060199501025 l -23.564364756353473 13.246679516905443 a48.03245835276688,48.03245835276688 0 0,0 -0.398952088036195,-0.7242139232530836 l 23.788893253841184 -12.839095075254535" fill="#aeff20" stroke="none" /><line stroke="#e1ed5e" stroke-width="0.3" x1="15.007084014347285" x2="10.007500721073583" y1="101.09737516637583" y2="101.16192664675087" /><path d="M 14.007167355692545 101.11028546245083 a86.0,86.0 0 0,1 10.666146001902534,-42.60595125391555" fill="none" id="id94" stroke="none" /><text fill="#e1ed5e" style="font-size:6.75px; font-family:Arial;" text-anchor="middle"><textPath startOffset="22.20632615414155" xlink:href="#id94">October</textPath></text><line stroke="#e1ed5e" stroke-width="0.3" x1="26.266209847984243" x2="21.928928074336255" y1="57.711370442889674" y2="55.22380399835377" /><path d="M 25.398753493254645 57.213857153982495 a86.0,86.0 0 0,1 29.58750427330803,-30.492523968695096" fill="none" id="id95" stroke="none" /><text fill="#e1ed5e" style="font-size:6.75px; font-family:Arial;" text-anchor="middle"><textPath startOffset="21.46611528233685" xlink:href="#id95">November</textPath></text><line stroke="#e1ed5e" stroke-width="0.3" x1="56.762969772571076" x2="54.21961505331055" y1="26.818313649435495" y2="22.513508569990535" /><path d="M 56.25429882871897 25.957352633546506 a86.0,86.0 0 0,1 42.265352541879196,-11.944610805530505" fill="none" id="id96" stroke="none" /><text fill="#e1ed5e" style="font-size:6.75px; font-family:Arial;" text-anchor="middle"><textPath startOffset="22.20632615414155" xlink:href="#id96">December</textPath></text></svg>