<?xml version="1.0" encoding="utf-8" ?>
<svg baseProfile="full" height="200mm" version="1.1" viewBox="0,0,200,200" width="200mm" xmlns="http://www.w3.org/2000/svg" xmlns:ev="http://www.w3.org/2001/xml-events" xmlns:xlink="http://www.w3.org/1999/xlink"><defs /><rect fill="#1a1a1a" height="200" width="200" x="0" y="0" /><text alignment-baseline="middle" fill="#e1ed5e" style="dominant-baseline: central; font-size:9.0px; font-family:Arial;" text-anchor="middle" x="100.0" y="100.0">2024</text><line stroke="#e1ed5e" stroke-width="0.3" x1="100.0" x2="100.0" y1="15.0" y2="10.0" /><path d="M 100.0 14.0 a86.0,86.0 0 0,1 42.35913384403234,11.155469271406648" fill="none" id="id97" stroke="none" /><text fill="#e1ed5e" style="font-size:6.75px; font-family:Arial;" text-anchor="middle"><textPath startOffset="22.145653131862478" xlink:href="#id97">January</textPath></text><path d="M 101.80034050326958 79.07731436759882 l 1.4200551439005311 -16.50319331401283 a37.56417659201314,37.56417659201314 0 0,0 0.6419904466645711,0.06079716277408562 l -1.7031451539501152 16.476384395733557" fill="#ff900d" stroke="none" /><path d="M 102.15924093988457 79.11130261209362 l 3.41782888866899 -33.0643940934482 a54.2405732664025,54.2405732664025 0 0,0 0.925354765616363,0.10368793159265029 l -3.9849195558861497 33.00085040134858" fill="#8eff24" stroke="none" /><path d="M 102.87502721639298 79.19773525538626 l 1.9189350678448591 -13.884458234490594 a35.01643650361669,35.01643650361669 0 0,0 0.5947373234248948,0.08740590563892482 l -2.156997496877436 13.849471255552787" fill="#ff6a09" stroke="none" /><path d="M 103.23170211078529 79.25015418208739 l 9.695106332355895 -62.24953745373786 a84.0,84.0 0 0,0 1.422889987787718,0.23413600601732654 l -10.762273823196683 62.07393544922487" fill="#4dd2ff" stroke="none" /><path d="M 103.58742460773223 79.30868818359171 l 3.134094361845334 -18.07662342595755 a39.34630376813891,39.34630376813891 0 0,0 0.6645127290337223,0.12109635531361879 l -3.44394182443011 18.020158896712566" fill="#ffaa0f" stroke="none" /><path d="M 103.94208987418118 79.37332000966035 l 2.306514436119891 -12.068658170008323 a33.287087485182894,33.287087485182894 0 0,0 0.5603382101166978,0.11208333521016539 l -2.5133491317675456 12.0272854381353" fill="#ff4f07" stroke="none" /><path d="M 104.64783097203109 79.52079915486377 l 3.533103737841547 -15.567506970319037 a36.96339861349336,36.96339861349336 0 0,0 0.6175841934271684,0.14574818805423517 l -3.7998200850086006 15.504562638618575" fill="#ff870c" stroke="none" /><path d="M 105.3480935250658 79.69241777938227 l 4.469829848121647 -16.972671986282204 a38.55138094923268,38.55138094923268 0 0,0 0.6385184435140516,0.17403104114515208 l -4.760529692570391 16.89344045099291" fill="#ff9e0e" stroke="none" /><path d="M 106.04205211174951 79.88797359093562 l 5.035965222653129 -16.763090367289536 a38.50320383203278,38.50320383203278 0 0,0 0.6313780430482587,0.19560253167511685 l -5.3229838985730185 16.674171247807774" fill="#ff9e0e" stroke="none" /><path d="M 107.06938296918511 80.22567764915836 l 10.028386963024325 -28.051183155618364 a50.78988790697615,50.78988790697615 0 0,0 0.8184690025710339,0.3005531547210528 l -10.508445117249483 27.87489915188859" fill="#b9ff1f" stroke="none" /><path d="M 107.74402155503746 80.48000691201159 l 4.860434384632407 -12.251469720009936 a34.18037680446342,34.18037680446342 0 0,0 0.5435421118419207,0.22105384499845973 l -5.070030957664768 12.166228618432184" fill="#ff5d08" stroke="none" /><path d="M 108.4095320186766 80.7573450057729 l 6.340125841750021 -14.507448681071622 a36.83234862309295,36.83234862309295 0 0,0 0.577192013009939,0.2581706458333303 l -6.5882312576155915 14.39647428432844" fill="#ff850c" stroke="none" /><path d="M 109.06512990194946 81.05736502329252 l 13.498685151433563 -28.20706026883508 a52.27063718294252,52.27063718294252 0 0,0 0.8060623864874779,0.39428550553231795 l -13.980907787183108 27.97118101320554" fill="#a6ff21" stroke="none" /><path d="M 110.02825361518725 81.54914285379988 l 11.254406894692272 -20.706841075967276 a44.567667298582236,44.567667298582236 0 0,0 0.6690579112477792,0.3711151450689806 l -11.60820899409615 20.51059301546515" fill="#fff316" stroke="none" /><line stroke="#e1ed5e" stroke-width="0.3" x1="143.13028292997686" x2="145.6673583964461" y1="26.7553504044142" y2="22.446841604673864" /><path d="M 143.63769802327073 25.89364864446614 a86.0,86.0 0 0,1 29.32050498858742,28.57503671076993" fill="none" id="id98" stroke="none" /><text fill="#e1ed5e" style="font-size:6.75px; font-family:Arial;" text-anchor="middle"><textPath startOffset="20.669276256404974" xlink:href="#id98">February</textPath></text><path d="M 110.65571695917076 81.90426304109057 l 9.226873048657017 -15.669247623741478 a39.184072903234885,39.184072903234885 0 0,0 0.5766911142407305,0.34628644442000855 l -9.494496919455182 15.508547178785548" fill="#ffa80f" stroke="none" /><path d="M 111.27062007382361 82.28071324371311 l 9.699991082484276 -15.249997107360096 a39.073523142286504,39.073523142286504 0 0,0 0.5628715308990473,0.3648465259078536 l -9.960348245640331 15.081236739748348" fill="#ffa60f" stroke="none" /><path d="M 111.8722381534696 82.67804972795209 l 7.430397548660864 -10.841172083617247 a34.143128237894786,34.143128237894786 0 0,0 0.4806131576097849,0.3355053103104742 l -7.61540579744441 10.712021957501646" fill="#ff5c08" stroke="none" /><path d="M 114.91283532996326 85.21462403516908 l 7.542379585694797 -7.477915190272408 a31.621050108516222,31.621050108516222 0 0,0 0.3788701699416303,0.3887541710003692 l -7.669636556787239 7.347338327204297" fill="#ff3505" stroke="none" /><path d="M 115.16444852881244 85.47280134310134 l 11.877872288129813 -11.37873296368702 a37.44869034154451,37.44869034154451 0 0,0 0.4407250167680949,0.46803469495392713 l -12.071453138634167 11.173156808788598" fill="#ff8e0d" stroke="none" /><path d="M 115.6541949942343 86.00192230759917 l 5.444425127347175 -4.868438520865173 a28.30366063003568,28.30366063003568 0 0,0 0.3207599085437776,0.36496589483854325 l -5.527196099849543 4.774260348215331" fill="#ff0000" stroke="none" /><path d="M 115.8921839302757 86.27271002978787 l 13.261508748635853 -11.45497540386641 a38.52381453318112,38.52381453318112 0 0,0 0.4279912078588036,0.5041725666890893 l -13.45619452000177 11.225636054727769" fill="#ff9e0e" stroke="none" /><path d="M 116.35404254752997 86.82634096563983 l 17.08708077604148 -13.764142742195485 a42.941284257638586,42.941284257638586 0 0,0 0.45749556189509044,0.5780306972535724 l -17.320842768578128 13.468792101027235" fill="#ffdd14" stroke="none" /><line stroke="#e1ed5e" stroke-width="0.3" x1="172.87174338648825" x2="177.1583165268699" y1="56.24261187166439" y2="53.66864786411523" /><path d="M 173.72905801456457 55.72781907015455 a86.0,86.0 0 0,1 12.242430191666344,42.057860355516425" fill="none" id="id99" stroke="none" /><text fill="#e1ed5e" style="font-size:6.75px; font-family:Arial;" text-anchor="middle"><textPath startOffset="22.145653131862474" xlink:href="#id99">March</textPath></text><line stroke="#e1ed5e" stroke-width="0.3" x1="184.99686870605535" x2="189.99668451229388" y1="99.2704041080226" y2="99.22748670261217" /><path d="M 185.99683186730306 99.26182062694052 a86.0,86.0 0 0,1 -10.086455211305974,41.156179273409016" fill="none" id="id100" stroke="none" /><text fill="#e1ed5e" style="font-size:6.75px; font-family:Arial;" text-anchor="middle"><textPath startOffset="21.40746469413373" xlink:href="#id100">April</textPath></text><line stroke="#e1ed5e" stroke-width="0.3" x1="174.33088141563837" x2="178.70328620479359" y1="141.23008692659167" y2="143.65538615756765" /><path d="M 175.20536237346943 141.71514677278685 a86.0,86.0 0 0,1 -30.301960400862466,31.631185727798858" fill="none" id="id101" stroke="none" /><text fill="#e1ed5e" style="font-size:6.75px; font-family:Arial;" text-anchor="middle"><textPath startOffset="22.145653131862474" xlink:href="#id101">May</textPath></text><line stroke="#e1ed5e" stroke-width="0.3" x1="143.1302829299769" x2="145.66735839644613" y1="173.24464959558577" y2="177.55315839532614" /><path d="M 143.63769802327073 174.10635135553383 a86.0,86.0 0 0,1 -40.68552437913181,11.842963189579606" fill="none" id="id102" stroke="none" /><text fill="#e1ed5e" style="font-size:6.75px; font-family:Arial;" text-anchor="middle"><textPath startOffset="21.407464694133747" xlink:href="#id102">June</textPath></text><line stroke="#e1ed5e" stroke-width="0.3" x1="101.45913802915013" x2="101.54496967792366" y1="184.9874750549273" y2="189.98673829345242" /><path d="M 101.47630435890484 185.9873277026323 a86.0,86.0 0 0,1 -42.54439059252881,-10.42667462771756" fill="none" id="id103" stroke="none" /><text fill="#e1ed5e" style="font-size:6.75px; font-family:Arial;" text-anchor="middle"><textPath startOffset="22.145653131862474" xlink:href="#id103">July</textPath></text><line stroke="#e1ed5e" stroke-width="0.3" x1="58.13341422392154" x2="55.67067388415222" y1="173.97424548756322" y2="178.32567169271397" /><path d="M 57.64086615596768 174.84453072859336 a86.0,86.0 0 0,1 -31.369924170532247,-30.572349798747897" fill="none" id="id104" stroke="none" /><text fill="#e1ed5e" style="font-size:6.75px; font-family:Arial;" text-anchor="middle"><textPath startOffset="22.145653131862474" xlink:href="#id104">August</textPath></text><line stroke="#e1ed5e" stroke-width="0.3" x1="26.387840678322732" x2="22.057713659400548" y1="142.50000000000003" y2="145.00000000000006" /><path d="M 25.521815274538298 143.00000000000003 a86.0,86.0 0 0,1 -11.493303480769221,-40.785679425670985" fill="none" id="id105" stroke="none" /><text fill="#e1ed5e" style="font-size:6.75px; font-family:Arial;" text-anchor="middle"><textPath startOffset="21.40746469413373" xlink:href="#id105">September</textPath></text><line stroke="#e1ed5e" stroke-width="0.3" x1="15.003131293944662" x2="10.003315487706104" y1="100.72959589197737" y2="100.7725132973878" /><path d="M 14.003168132696942 100.73817937305945 a86.0,86.0 0 0,1 10.791469493833604,-42.45332614584628" fill="none" id="id106" stroke="none" /><text fill="#e1ed5e" style="font-size:6.75px; font-family:Arial;" text-anchor="middle"><textPath startOffset="22.145653131862435" xlink:href="#id106">October</textPath></text><line stroke="#e1ed5e" stroke-width="0.3" x1="26.387840678322718" x2="22.05771365940052" y1="57.49999999999999" y2="54.99999999999999" /><path d="M 25.521815274538284 56.99999999999999 a86.0,86.0 0 0,1 29.574782752854787,-30.34633250058573" fill="none" id="id107" stroke="none" /><text fill="#e1ed5e" style="font-size:6.75px; font-family:Arial;" text-anchor="middle"><textPath startOffset="21.40746469413373" xlink:href="#id107">November</textPath></text><line stroke="#e1ed5e" stroke-width="0.3" x1="56.869717070023135" x2="54.33264160355391" y1="26.7553504044142" y2="22.446841604673864" /><path d="M 56.362301976729285 25.89364864446614 a86.0,86.0 0 0,1 42.16139366436587,-11.88097634709845" fill="none" id="id108" stroke="none" /><text fill="#e1ed5e" style="font-size:6.75px; font-family:Arial;" text-anchor="middle"><textPath startOffset="22.145653131862474" xlink:href="#id108">December</textPath></text></svg>